<?xml version="1.0" encoding="utf-8"?>
<!-- Generator: Adobe Illustrator 24.0.1, SVG Export Plug-In . SVG Version: 6.00 Build 0)  -->
<svg version="1.1" id="Layer_1" xmlns="http://www.w3.org/2000/svg" xmlns:xlink="http://www.w3.org/1999/xlink" x="0px" y="0px"
	 viewBox="0 0 2362 1328" style="enable-background:new 0 0 2362 1328;" xml:space="preserve">
<style type="text/css">
	.st0{fill-rule:evenodd;clip-rule:evenodd;fill:#3E3E40;}
	.st1{fill-rule:evenodd;clip-rule:evenodd;fill:#EF6036;}
	.st2{fill-rule:evenodd;clip-rule:evenodd;fill:#F9D2B9;}
	.st3{fill-rule:evenodd;clip-rule:evenodd;fill:#3F3E40;}
	.st4{fill-rule:evenodd;clip-rule:evenodd;fill:#403F41;}
	.st5{fill-rule:evenodd;clip-rule:evenodd;fill:#FEFEFE;}
	.st6{fill-rule:evenodd;clip-rule:evenodd;fill:#2E3192;}
	.st7{fill-rule:evenodd;clip-rule:evenodd;fill:#EED7C1;}
	.st8{opacity:0.996;fill-rule:evenodd;clip-rule:evenodd;fill:#FEFFFE;enable-background:new    ;}
	.st9{opacity:0.955;fill-rule:evenodd;clip-rule:evenodd;fill:#FEFFFE;enable-background:new    ;}
	.st10{opacity:0.972;fill-rule:evenodd;clip-rule:evenodd;fill:#FEFFFE;enable-background:new    ;}
	.st11{opacity:0.973;fill-rule:evenodd;clip-rule:evenodd;fill:#FEFFFE;enable-background:new    ;}
	.st12{opacity:0.978;fill-rule:evenodd;clip-rule:evenodd;fill:#FEFFFE;enable-background:new    ;}
	.st13{opacity:0.988;fill-rule:evenodd;clip-rule:evenodd;fill:#FEFFFE;enable-background:new    ;}
	.st14{opacity:0.997;fill-rule:evenodd;clip-rule:evenodd;fill:#FEFFFE;enable-background:new    ;}
	.st15{fill-rule:evenodd;clip-rule:evenodd;fill:#FDFCFD;}
	.st16{fill-rule:evenodd;clip-rule:evenodd;fill:#FBFBFD;}
	.st17{fill-rule:evenodd;clip-rule:evenodd;fill:#FEFDFE;}
	.st18{fill-rule:evenodd;clip-rule:evenodd;fill:#FDFDFD;}
	.st19{fill-rule:evenodd;clip-rule:evenodd;fill:#FDFDFE;}
	.st20{fill-rule:evenodd;clip-rule:evenodd;fill:#FCFCFD;}
	.st21{opacity:0.957;fill-rule:evenodd;clip-rule:evenodd;fill:#FEFFFE;enable-background:new    ;}
	.st22{opacity:0.959;fill-rule:evenodd;clip-rule:evenodd;fill:#FEFFFE;enable-background:new    ;}
	.st23{opacity:0.968;fill-rule:evenodd;clip-rule:evenodd;fill:#FEFFFE;enable-background:new    ;}
	.st24{opacity:0.97;fill-rule:evenodd;clip-rule:evenodd;fill:#FEFFFE;enable-background:new    ;}
	.st25{opacity:0.976;fill-rule:evenodd;clip-rule:evenodd;fill:#FEFFFE;enable-background:new    ;}
	.st26{opacity:0.98;fill-rule:evenodd;clip-rule:evenodd;fill:#FEFFFE;enable-background:new    ;}
</style>
<g>
	<g>
		<path class="st0" d="M1033.5,77.5c-8.9,0.1-17.2,2.3-25,6.5c-4,4.9-5,10.4-3,16.5c-6,1.4-12,1.3-18-0.5c-10.5-4.4-20.8-9.1-31-14
			c-18.1-6.6-35.8-5.6-53,3c-14.4,10.2-28.4,20.8-42,32c-7.5,4.8-15.3,9-23.5,12.5c-4.7,23.4-6.7,47.1-6,71
			c-9.4-3.7-17.9-2.3-25.5,4c-6-2.1-11.5-5.1-16.5-9c-4.1-5.2-6-11.2-5.5-18c7.3,4.6,13.8,3.6,19.5-3c0.5-1.5,1-3,1.5-4.5
			c-2.7-9-3.9-18.2-3.5-27.5c1-5.9,3.5-11.1,7.5-15.5c-10.1-3.8-19-9.6-26.5-17.5c-5.9-9.4-6.5-19.1-2-29c1.1-1.7,2.6-2.2,4.5-1.5
			c3.6,5.4,8.8,8.3,15.5,8.5c11-1.4,20.5-5.9,28.5-13.5c11.3-10.7,22.7-21.3,34-32c25-19.7,53.3-27.7,85-24
			c22.1,5.8,40,18,53.5,36.5c7.5-11.4,18.1-17.4,32-18c6.6-0.1,12.5,1.9,17.5,6c-8.7,5.9-14.6,13.9-17.5,24
			C1033.5,72.8,1033.3,75.1,1033.5,77.5z"/>
	</g>
	<g>
		<path class="st1" d="M1058.5,80.5c13,6.2,23,15.7,30,28.5c-1.4,3.1-3.3,3.3-5.5,0.5c-3.6-7.4-8.8-13.6-15.5-18.5
			c-9.6-5.1-19.8-8.6-30.5-10.5c-8,0.6-15.8,2.1-23.5,4.5c-2.2,0.8-3.7,2.3-4.5,4.5c-0.8,3.4-0.7,6.7,0.5,10c0.8,0.4,1.6,0.8,2.5,1
			c19.8-13.1,38.4-11.4,56,5c2.7,3.3,5.3,6.7,8,10c-0.1,4.4-1.9,5.1-5.5,2c-9.8-15.1-23.8-21.9-42-20.5c-4.5,0.6-8.5,2.2-12,5
			c-2.1,5.2-0.5,8.4,5,9.5c15.4-6.4,28.9-3.4,40.5,9c0.9,2.1,0.4,3.8-1.5,5c-8.6-10.9-19.6-14.7-33-11.5c-2.7,3.7-2.7,7.3,0,11
			c4.3,0.5,8.7,0.7,13,0.5c0,1,0,2,0,3c-5.4,0.3-10.8-0.1-16-1c-2.1-2.2-3.1-4.9-3-8c0.3-1.9-0.4-3.2-2-4c-4.9-1-7.4-4-7.5-9
			c-2.1-2.2-4.2-4.2-6.5-6c-2-6.1-1-11.6,3-16.5c7.8-4.2,16.1-6.4,25-6.5c1.6-0.6,3.2-0.9,5-1C1045.3,77.2,1052,78.6,1058.5,80.5z"
			/>
	</g>
	<g>
		<path class="st2" d="M1058.5,80.5c15.1,0.6,26.6,7.3,34.5,20c5.6,11.1,10.6,22.5,15,34c3.3,12.1,5.6,24.5,7,37
			c20,26.4,35.4,55.4,46,87c6.3,19.9,8.6,40.2,7,61c-3.7,18.8-10.7,36.1-21,52c-1.3,1.7-2.8,3-4.5,4c-2.5-7.7-5.3-15.3-8.5-23
			c-0.3-4.5-1.3-8.8-3-13c-6.6-18.9-15.1-36.9-25.5-54c-0.8-0.9-1.8-1.2-3-1c-0.9-31.4-8.9-60.7-24-88c-0.5-1.2-1.2-2.4-2-3.5
			c-6.6-2.6-12.1-6.8-16.5-12.5c-1-13.3-2-26.7-3-40c-3.7-6.6-9.2-10.6-16.5-12c0-1,0-2,0-3c-4.3,0.2-8.7,0-13-0.5
			c-2.7-3.7-2.7-7.3,0-11c13.4-3.2,24.4,0.6,33,11.5c1.9-1.2,2.4-2.9,1.5-5c-11.6-12.4-25.1-15.4-40.5-9c-5.5-1.1-7.1-4.3-5-9.5
			c3.5-2.8,7.5-4.4,12-5c18.2-1.4,32.2,5.4,42,20.5c3.6,3.1,5.4,2.4,5.5-2c-2.7-3.3-5.3-6.7-8-10c-17.6-16.4-36.2-18.1-56-5
			c-0.9-0.2-1.7-0.6-2.5-1c-1.2-3.3-1.3-6.6-0.5-10c0.8-2.2,2.3-3.7,4.5-4.5c7.7-2.4,15.5-3.9,23.5-4.5c10.7,1.9,20.9,5.4,30.5,10.5
			c6.7,4.9,11.9,11.1,15.5,18.5c2.2,2.8,4.1,2.6,5.5-0.5C1081.5,96.2,1071.5,86.7,1058.5,80.5z"/>
	</g>
	<g>
		<path class="st2" d="M1005.5,100.5c2.3,1.8,4.4,3.8,6.5,6c0.1,5,2.6,8,7.5,9c0.2,1.7,0.8,3,2,4c-0.1,3.1,0.9,5.8,3,8
			c6.6,24.2,10.6,48.9,12,74c13-3.3,21.3,1.3,25,14c2.1,17.9-4.9,31.1-21,39.5c-5.3,2.1-10.5,1.9-15.5-0.5
			c-10.7,22.5-27.2,39.2-49.5,50c-17.9,10.7-36.9,13.5-57,8.5c-7.5-2.2-14.8-4.7-22-7.5c-23.7-11.8-42-29.3-55-52.5
			c-13.9,5.8-25.4,2.6-34.5-9.5c-8.2-11.6-8.4-23.3-0.5-35c7.6-6.3,16.1-7.7,25.5-4c-0.7-23.9,1.3-47.6,6-71
			c8.2-3.5,16-7.7,23.5-12.5c13.6-11.2,27.6-21.8,42-32c17.2-8.6,34.9-9.6,53-3c10.2,4.9,20.5,9.6,31,14
			C993.5,101.8,999.5,101.9,1005.5,100.5z"/>
	</g>
	<g>
		<path class="st1" d="M1593.5,562.5c-10.1,5.6-20.1,11.4-30,17.5c-4.8,3.8-9.3,8-13.5,12.5c-12.9,19.5-25.6,39.2-38,59
			c-24.6,33.6-51.7,65.1-81.5,94.5c-10.5,9.1-21.5,17.4-33,25c-1.7,0.7-3.3,0.7-5,0c-4.8-2.7-8.9-6.2-12.5-10.5
			c-15.1-19.1-29.4-38.8-43-59c-7.5-12.8-14.3-26-20.5-39.5c11.6-7.5,22.9-15.5,34-24c7.9-6.7,15.2-13.9,22-21.5
			c4.3,7.3,9.6,13.8,16,19.5c1.6,0.5,3.3,0.7,5,0.5c0.1-2.2-0.4-4.2-1.5-6c-4.7-6.8-9.5-13.5-14.5-20c13.6-15.2,22.4-32.8,26.5-53
			c2.1-18.8-1.4-36.4-10.5-53c3.8,0.4,7.8-0.1,12-1.5c5.7-5.2,6.3-10.9,2-17c-4.4-2.2-9.1-3-14-2.5c0.9-2.6,1.2-5.2,1-8
			c6.4,0.5,9.9-2.5,10.5-9c1.9-9.4-0.8-17-8-23c-4.6-7.5-9.5-14.8-14.5-22c1.3-0.9,2.6-0.7,4,0.5c6.3,5.9,11.8,12.4,16.5,19.5
			c1.4,2.3,1.7,4.7,1,7c1.6-0.9,3.1-1.9,4.5-3c34.9-0.9,68.6-7.7,101-20.5c4.1-2.9,3.8-5-1-6.5c-31.4,10.3-63.4,15.7-96,16
			c0.8-9.5-2.6-17.1-10-23c49.1-14,86.3-43,111.5-87c1.6-3.5,2.4-7.2,2.5-11c-1.5-0.3-2.8,0.1-4,1c-19.6,38.8-49.6,66.3-90,82.5
			c-8.8,3.7-17.8,6.8-27,9.5c-5.6-3.5-11.3-7-17-10.5c0.6-1.9,1.6-3.6,3-5c7.8-0.9,15.5-2.6,23-5c4.2-1.6,7.8-3.9,11-7
			c4-0.3,8-0.7,12-1c21.6-9.9,39.4-24.4,53.5-43.5c10-12.9,14.5-27.6,13.5-44c0.4-26.6-6.1-51.2-19.5-74
			c-27.1-32.8-61.6-53.8-103.5-63c-3.8,0.4-7.3,1.8-10.5,4c-44.7,48.2-58.7,104.2-42,168c4.1,9.6,8.8,18.9,14,28
			c7.8,5.7,16,10.7,24.5,15c-4,3.5-7.8,7.1-11.5,11c-3.5,6.6-6.6,13.3-9.5,20c-16-12.5-33-14.2-51-5c-0.2-3,0-6,0.5-9
			c4.1-4.3,8.9-7.5,14.5-9.5c2.2-1.7,3.9-3.9,5-6.5c-29.2-35.6-45.5-76.4-49-122.5c0.2-26.7,7-51.5,20.5-74.5
			c8.7-13.7,18.5-26.5,29.5-38.5c42.3-34.5,87.3-38.2,135-11c25.9,15.9,45.7,37.4,59.5,64.5c11,21.8,19.7,44.4,26,68
			c4,16,8,32,12,48c-1,14.2-2.5,28.3-4.5,42.5c2.2,20.5,8.3,39.6,18.5,57.5c6.4,10.5,13.1,20.8,20,31c11.6,40.6,21.4,81.6,29.5,123
			c-1.1-0.1-2.1,0-3,0.5C1597.9,560.1,1595.9,561.6,1593.5,562.5z"/>
	</g>
	<g>
		<path class="st0" d="M1019.5,115.5c1.6,0.8,2.3,2.1,2,4C1020.3,118.5,1019.7,117.2,1019.5,115.5z"/>
	</g>
	<g>
		<path class="st0" d="M887.5,119.5c8.7-1.3,16.2,1.1,22.5,7c0.8,1.8,0.6,3.4-0.5,5c-7-5.7-15-7.6-24-5.5c-8.2,2.7-15.2,7.2-21,13.5
			c-3.2-1.4-3.7-3.4-1.5-6C869.8,126.3,878,121.7,887.5,119.5z"/>
	</g>
	<g>
		<path class="st0" d="M1024.5,127.5c5.2,0.9,10.6,1.3,16,1c7.3,1.4,12.8,5.4,16.5,12c1,13.3,2,26.7,3,40c4.4,5.7,9.9,9.9,16.5,12.5
			c0.8,1.1,1.5,2.3,2,3.5c-3.2,8.5-8.9,14.9-17,19c-3.7-12.7-12-17.3-25-14C1035.1,176.4,1031.1,151.7,1024.5,127.5z"/>
	</g>
	<g>
		<path class="st0" d="M869.5,143.5c4-0.2,8,0,12,0.5c2.4,2,3.9,4.5,4.5,7.5c2.1,10-0.4,18.5-7.5,25.5c-5.2,1.9-9.4,0.4-12.5-4.5
			c-4.3-8.1-4.6-16.4-1-25C866.4,145.9,867.9,144.6,869.5,143.5z"/>
	</g>
	<g>
		<path class="st3" d="M957.5,135.5c3.2,1.7,6.5,3.2,10,4.5c8.4,0.8,16.7,0.6,25-0.5c4,0.4,4.7,1.9,2,4.5c-7,1.2-14,2.4-21,3.5
			c5.1,8.5,5.3,17.2,0.5,26c-10,9.6-16.6,7.6-20-6c-1.9-9.8,1.3-17.3,9.5-22.5C959,143,957,139.9,957.5,135.5z"/>
	</g>
	<g>
		<path class="st2" d="M1395.5,406.5c2.1,1.9,4.4,3.6,7,5c7.4,5.9,10.8,13.5,10,23c-1.3,3.6-2.6,7.2-4,11c-1.4,1.1-2.9,2.1-4.5,3
			c0.7-2.3,0.4-4.7-1-7c-4.7-7.1-10.2-13.6-16.5-19.5c-1.4-1.2-2.7-1.4-4-0.5c5,7.2,9.9,14.5,14.5,22c7.2,6,9.9,13.6,8,23
			c-0.6,6.5-4.1,9.5-10.5,9c0.2,2.8-0.1,5.4-1,8c-3.1,0.3-5.6,1.6-7.5,4c-2.3-4.5-5.5-8.1-9.5-11c-2.1-5.9-5.4-10.9-10-15
			c-1.2,3.3-0.9,6.5,1,9.5c-3.7-0.3-7.3,0.2-11,1.5c-0.8-1.5-1.1-3.2-1-5c1-10-3.6-15-14-15c1.8-13.8-4.2-20.5-18-20
			c3.5-11.3,7.8-22.3,13-33c2.9-6.7,6-13.4,9.5-20c3.7-3.9,7.5-7.5,11.5-11c-8.5-4.3-16.7-9.3-24.5-15c-5.2-9.1-9.9-18.4-14-28
			c-16.7-63.8-2.7-119.8,42-168c3.2-2.2,6.7-3.6,10.5-4c41.9,9.2,76.4,30.2,103.5,63c13.4,22.8,19.9,47.4,19.5,74
			c1,16.4-3.5,31.1-13.5,44c-14.1,19.1-31.9,33.6-53.5,43.5c-4,0.3-8,0.7-12,1c-3.2,3.1-6.8,5.4-11,7c-7.5,2.4-15.2,4.1-23,5
			c-1.4,1.4-2.4,3.1-3,5C1384.2,399.5,1389.9,403,1395.5,406.5z"/>
	</g>
	<g>
		<path class="st4" d="M1411.5,179.5c8-1.3,14.3,1.2,19,7.5c-0.3,1.4-0.9,2.6-2,3.5c-12.7-10.2-21.2-7.5-25.5,8
			c-0.7,1-1.6,1.1-2.5,0.5c-0.9-1.2-1.6-2.5-2-4C1400.2,187.4,1404.5,182.2,1411.5,179.5z"/>
	</g>
	<g>
		<path class="st1" d="M933.5,189.5c6.4-0.5,11.6,1.9,15.5,7c1.9,4.4,3.4,8.9,4.5,13.5c0,2-0.8,3.5-2.5,4.5c-2.6-4.5-5-9.1-7-14
			c-5.6-4.3-10.6-3.7-15,2c-1.5,4.6-2.9,9.3-4,14c-1.3,1.3-2.7,1.3-4,0c-3.3-8.8-1.5-16.7,5.5-23.5
			C928.9,191.8,931.3,190.6,933.5,189.5z"/>
	</g>
	<g>
		<path class="st5" d="M1078.5,196.5c15.1,27.3,23.1,56.6,24,88c-1.9-0.2-3.4,0.5-4.5,2c-7.3,11.3-14.2,23-20.5,35
			c-5.3,0.2-10.6,0.4-16,0.5c-0.5,0.5-1,1-1.5,1.5c-1.3,4.3-2.5,8.6-3.5,13c-22.4,8.1-45.4,13.7-69,17c0.2-10.7-0.1-21.4-1-32
			c-4.1,0.3-8.1,0.9-12,2c0.3-5.3,0.7-10.7,1-16c0-1,0-2,0-3c22.3-10.8,38.8-27.5,49.5-50c5,2.4,10.2,2.6,15.5,0.5
			c16.1-8.4,23.1-21.6,21-39.5C1069.6,211.4,1075.3,205,1078.5,196.5z"/>
	</g>
	<g>
		<path class="st0" d="M1426.5,200.5c9.2,0,14.7,4.7,16.5,14c1.1,6.2,0.4,12.2-2,18c-3.4,3.3-7.2,3.8-11.5,1.5
			c-8.3-7-11.4-15.8-9.5-26.5C1421.7,204.6,1423.9,202.3,1426.5,200.5z"/>
	</g>
	<g>
		<path class="st1" d="M1038.5,215.5c8.8-1.4,13.8,2.2,15,11c-2.9,12.1-4.8,11.8-5.5-1c-2.2-2.8-5-3.6-8.5-2.5c-0.9,2-2.3,3.6-4,5
			c-0.9,0.6-1.8,0.5-2.5-0.5C1032.9,222.7,1034.8,218.7,1038.5,215.5z"/>
	</g>
	<g>
		<path class="st1" d="M822.5,216.5c6.7-0.2,11.1,2.8,13,9c-2.5-0.3-4.8-1.1-7-2.5c-8.3-1.7-12.5,1.8-12.5,10.5
			c-2.3,0.9-3.5-0.1-3.5-3C813,223.5,816.3,218.9,822.5,216.5z"/>
	</g>
	<g>
		<path class="st0" d="M1354.5,223.5c4.4,1.9,5,4.8,2,8.5c7.5,8.9,8.9,18.8,4,29.5c-5.9,3.8-11,2.8-15.5-3c-2.8-5-4.6-10.3-5.5-16
			c-3.9,2.7-6.9,1.8-9-2.5c0.3-1.3,0.9-2.3,2-3c5.6-2.9,11.2-5.6,17-8C1351.7,227.6,1353.3,225.8,1354.5,223.5z"/>
	</g>
	<g>
		<path class="st1" d="M937.5,251.5c10.8-0.5,21.1,1.3,31,5.5c1.6,2.8,0.9,5-2,6.5c-17-5.7-33.3-4-49,5c-2.6-2.4-3.3-5.2-2-8.5
			C922.3,255.5,929.6,252.6,937.5,251.5z"/>
	</g>
	<g>
		<path class="st1" d="M1393.5,256.5c11.7-0.1,18.4,5.7,20,17.5c-0.3,0.8-0.7,1.7-1,2.5c-2-2.2-3.8-4.5-5.5-7
			c-3.6-5.7-8.4-7.2-14.5-4.5c-1.4,1.2-2.2,2.7-2.5,4.5c-0.1,6-0.1,12,0,18c-0.7,0.9-1.5,1.5-2.5,2c-1.7-1.3-2.8-2.9-3.5-5
			c-2.3-7.9-1.7-15.6,2-23C1388.2,259.2,1390.7,257.5,1393.5,256.5z"/>
	</g>
	<g>
		<path class="st6" d="M1102.5,284.5c1.2-0.2,2.2,0.1,3,1c10.4,17.1,18.9,35.1,25.5,54c1.7,4.2,2.7,8.5,3,13c3.2,7.7,6,15.3,8.5,23
			c5.6,33.8,10.6,67.6,15,101.5c-28.7,15.7-57.7,30.9-87,45.5c-1.4-24.8-1.1-49.7,1-74.5c0-2.3-0.5-4.5-1.5-6.5c-2.1-1-3.8-0.3-5,2
			c-2.9,28.5-3.1,56.8-0.5,85c1.4,10.3,2.6,20.6,3.5,31c3.2,51,6.8,102,11,153c2.6,28.9,5.7,57.7,9.5,86.5
			c-0.2,4.1-0.4,8.3-0.5,12.5c-3.5,2.3-7.3,3.6-11.5,4c-14.1,3.7-28.4,5.8-43,6.5c-31.7,0.7-63.3,1.2-95,1.5c-6.4,0-12.7-0.3-19-1
			c-45-1-89.6-5-134-12c-2.5,0.2-4.8-0.1-7-1c1.2-12.7,0.5-25.4-2-38c6.4-44.1,11.4-88.4,15-133c-4,0-8,0-12,0
			c-14.5-3.7-28.8-8.1-43-13c-19.3-7.5-35.9-18.6-50-33.5c10.9-19.6,21.4-39.4,31.5-59.5c11-18.7,22-37.3,33-56
			c10.1-23.3,20.8-46.3,32-69c6.1-9.5,12.6-18.6,19.5-27.5c27.7-8.8,54.7-19.3,81-31.5c6.3,8.8,14.3,15.8,24,21
			c-2.2,36.3-2.5,72.6-1,109c16.6,1.1,33.3,1.3,50,0.5c0.8-1.1,1.5-2.3,2-3.5c-0.9-34-1.2-68-1-102c7.7-3,15-6.9,22-11.5
			c3.5-2,6.2-4.9,8-8.5c23.6-3.3,46.6-8.9,69-17c1-4.4,2.2-8.7,3.5-13c0.5-0.5,1-1,1.5-1.5c5.4-0.1,10.7-0.3,16-0.5
			c6.3-12,13.2-23.7,20.5-35C1099.1,285,1100.6,284.3,1102.5,284.5z"/>
	</g>
	<g>
		<path class="st1" d="M1098.5,299.5c1,0,2,0,3,0c0.2,2.5-0.3,4.8-1.5,7c-3.8,5.2-7.8,10.2-12,15c-1.5-1.2-2.7-2.7-3.5-4.5
			C1089,311,1093.7,305.2,1098.5,299.5z"/>
	</g>
	<g>
		<path class="st1" d="M975.5,304.5c0,1,0,2,0,3c-15.4,11.3-32.4,19.5-51,24.5c-0.9,0.4-1.6,1.1-2,2c4.1,9.1,8.6,17.9,13.5,26.5
			c4.3-9.8,8.5-19.6,12.5-29.5c8.5-3.1,17.2-5.6,26-7.5c3.9-1.1,7.9-1.7,12-2c0.9,10.6,1.2,21.3,1,32c-1.8,3.6-4.5,6.5-8,8.5
			c-7,4.6-14.3,8.5-22,11.5c-0.2,34,0.1,68,1,102c-0.5,1.2-1.2,2.4-2,3.5c-16.7,0.8-33.4,0.6-50-0.5c-1.5-36.4-1.2-72.7,1-109
			c-9.7-5.2-17.7-12.2-24-21c-1.2-8.6-1.1-17.3,0.5-26c3.2-0.3,6.4,0.3,9.5,2c0.6-0.2,1.1-0.5,1.5-1c0.9-6.1,1.4-12.1,1.5-18
			c7.2,2.8,14.5,5.3,22,7.5C938.6,318,957.6,315.2,975.5,304.5z"/>
	</g>
	<g>
		<path class="st7" d="M975.5,307.5c-0.3,5.3-0.7,10.7-1,16c-8.8,1.9-17.5,4.4-26,7.5c-4,9.9-8.2,19.7-12.5,29.5
			c-4.9-8.6-9.4-17.4-13.5-26.5c0.4-0.9,1.1-1.6,2-2C943.1,327,960.1,318.8,975.5,307.5z"/>
	</g>
	<g>
		<path class="st1" d="M1413.5,310.5c10.2-0.6,15.3,4,15.5,14c-1.9,4.1-5.1,6.9-9.5,8.5c-17,6-21.9,0.8-14.5-15.5
			C1407.4,314.5,1410.3,312.2,1413.5,310.5z"/>
	</g>
	<g>
		<path class="st2" d="M1402.5,411.5c-2.6-1.4-4.9-3.1-7-5c9.2-2.7,18.2-5.8,27-9.5c40.4-16.2,70.4-43.7,90-82.5
			c1.2-0.9,2.5-1.3,4-1c-0.1,3.8-0.9,7.5-2.5,11C1488.8,368.5,1451.6,397.5,1402.5,411.5z"/>
	</g>
	<g>
		<path class="st1" d="M1108.5,320.5c1.3,0,2.7,0,4,0c0.2,1.1,0,2.1-0.5,3c-4.7,4.9-9.9,9.3-15.5,13c-2.2-1.3-2.8-3-2-5
			C1099.2,327.8,1103.9,324.1,1108.5,320.5z"/>
	</g>
	<g>
		<path class="st1" d="M1117.5,340.5c4.3,0.5,5,2.3,2,5.5c-5.4,3.4-11.1,6.2-17,8.5c-1.4-2.4-1.1-4.4,1-6
			C1108.2,345.8,1112.9,343.1,1117.5,340.5z"/>
	</g>
	<g>
		<path class="st1" d="M1391.5,359.5c8.8-0.4,17.4,0.1,26,1.5c4.5,4.2,5.2,9.1,2,14.5c-0.8,1.2-1.6,1.2-2.5,0c-0.3-3.3-0.7-6.7-1-10
			c-0.5-0.5-1-1-1.5-1.5c-7-0.7-14-0.7-21,0c-10.1,1.2-20.1,2.5-30,4c-1.5-2-1.2-3.7,1-5C1373.6,361.4,1382.6,360.2,1391.5,359.5z"
			/>
	</g>
	<g>
		<path class="st1" d="M1126.5,362.5c4,0.4,4.6,1.9,2,4.5c-5.5,2.6-10.8,5.5-16,8.5c-2.6-1.7-2.6-3.6,0-5.5
			C1117.4,367.7,1122.1,365.2,1126.5,362.5z"/>
	</g>
	<g>
		<path class="st6" d="M932.5,366.5c1.3,0.6,2.1,1.6,2.5,3c0.2,6.2,0.3,12.3,0.5,18.5c-1.2,27.5-2.2,55-3,82.5c-3,0.3-4.7-1-5-4
			c-0.6-6.3-0.9-12.6-1-19c1.2-26.3,2.7-52.7,4.5-79C931.7,368,932.2,367.3,932.5,366.5z"/>
	</g>
	<g>
		<path class="st1" d="M1134.5,385.5c3.8,1.9,3.8,4.1,0,6.5c-5.2,2.7-10.5,4.8-16,6.5c-0.2-2,0.1-3.8,1-5.5
			C1124.8,391,1129.8,388.5,1134.5,385.5z"/>
	</g>
	<g>
		<path class="st6" d="M1336.5,399.5c-5.2,10.7-9.5,21.7-13,33c-0.3,2-0.7,4-1,6c5.6-0.1,9.8,2.2,12.5,7c1,5.3,1.8,10.6,2.5,16
			c7.7-2.8,13.7-0.8,18,6c-0.1,1.8,0.2,3.5,1,5c-0.2,2.4,0,4.7,0.5,7c1.8-1.8,4-3,6.5-3.5c4.4-0.6,8.7-0.5,13,0.5
			c4,2.9,7.2,6.5,9.5,11c1.9-2.4,4.4-3.7,7.5-4c4.9-0.5,9.6,0.3,14,2.5c4.3,6.1,3.7,11.8-2,17c-4.2,1.4-8.2,1.9-12,1.5
			c9.1,16.6,12.6,34.2,10.5,53c-4.1,20.2-12.9,37.8-26.5,53c-1.6,2-3.3,4-5,6c-6.8,7.6-14.1,14.8-22,21.5c-11.1,8.5-22.4,16.5-34,24
			c6.2,13.5,13,26.7,20.5,39.5c13.6,20.2,27.9,39.9,43,59c3.6,4.3,7.8,7.8,12.5,10.5c1.7,0.7,3.3,0.7,5,0c11.5-7.6,22.5-15.9,33-25
			c29.8-29.4,56.9-60.9,81.5-94.5c12.4-19.8,25.1-39.5,38-59c4.2-4.5,8.7-8.7,13.5-12.5c9.9-6.1,19.9-11.9,30-17.5
			c13.1,28.9,27.3,57.2,42.5,85c7.2,17.7,7.2,35.4,0,53c-6.7,11.3-14.8,21.5-24.5,30.5c4.1,0.9,6.1,3.4,6,7.5c-0.1,4.7-1.8,8.7-5,12
			c-3.8,1.8-7.8,2.4-12,2c-2.4-2.8-3.6-2.2-3.5,2c-2.2,1.9-4.8,3.4-7.5,4.5c1.6,3.1,3,6.2,4,9.5c6.3,15,12.3,30,18,45
			c21.7,67.8,42.8,135.8,63.5,204c3.3,14.6,6.4,29.3,9.5,44c-1.1,4.9-3.3,9.2-6.5,13c-12.9,16.9-28.7,30-47.5,39.5
			c-2.2,1-4.6,1.5-7,1.5c-0.5,20.3-9.2,35.8-26,46.5c-20.4,11.1-42.1,18.5-65,22c-13.3,0.4-26.7,0.9-40,1.5c-2.1-1.3-4.6-2-7.5-2
			c-2.5,0.2-5,0.3-7.5,0.5c-25.4,9.9-51.7,14.4-79,13.5c-16.5-0.9-32.8-3-49-6.5c-11.2-1.3-22.3-1.5-33.5-0.5
			c-12.3-3.5-24.1-2.5-35.5,3c-10.9-2.4-21.5-5.6-32-9.5c-15.2-6.1-30.2-12.4-45-19c-9.3-7.6-13.1-17.4-11.5-29.5
			c-1.7,1.1-3.6,1.2-5.5,0.5c-24.9-6.9-44.1-21.4-57.5-43.5c-3.1-5.6-5.1-11.6-6-18c-1.1-39.2,4.3-77.5,16-115
			c19.6-64.3,41.9-127.7,67-190c16-34.4,33.9-67.7,53.5-100c-4-3.8-8.2-7.5-12.5-11c-2.6-3.5-4.9-7.2-7-11
			c-6.8-18.8-9.6-38.1-8.5-58c0.9-28.9,6.4-56.9,16.5-84c6-15.4,15.2-28.5,27.5-39.5c3-2.5,6.3-4.5,10-6c-6-4.1-10.6-9.3-14-15.5
			c-7.7-20.2-3.1-36.9,14-50C1303.5,385.3,1320.5,387,1336.5,399.5z"/>
		<g>
			<g>
				<path class="st8" d="M1283.6,405.1c1.4,0,2.6,0.5,3.6,1.5c2.1,2.8,4.3,5.6,6.4,8.5c2.1-2.8,4.1-5.5,6.2-8.3
					c1-1.1,2.2-1.7,3.7-1.7c3.4,0,6.7,0,10.1,0c0.9,0,1.8,0.2,2.6,0.6c-0.8,0-1.6,0.1-2.3,0.2c-0.7,0.2-1.4,0.5-1.9,1
					c-0.4,0.4-0.9,0.8-1.3,1.3c-0.7,0.8-1.4,1.6-2,2.4c-1.3,1.8-2.6,3.7-4,5.5c-2.1,2.8-4.2,5.5-6.3,8.3c0,2.7,0,5.4,0,8
					c-0.3,1.9-1.3,3.2-3,3.9c-0.3,0.1-0.6,0.2-0.8,0.2c-1.8,0.1-3.6,0.1-5.4,0.1c0-4.1,0-8.1,0-12.2c-3-4-6-8-9-11.9
					c-0.9-1.4-1.1-2.9-0.5-4.5C1280.2,406.2,1281.6,405.2,1283.6,405.1z"/>
			</g>
			<g>
				<path class="st9" d="M1295.1,439c0.5,0,0.8,0.3,0.8,0.7c0,0.5-0.3,0.7-0.8,0.7c-0.6-0.1-0.8-0.4-0.7-1
					C1294.6,439.2,1294.9,439,1295.1,439z"/>
			</g>
			<g>
				<path class="st10" d="M1279,439.3c0.5,0,0.9,0,1.4,0c0.5,1.1,1,2.2,1.5,3.3c0.5-1.1,1-2.2,1.5-3.3c0.4,0,0.9,0,1.3,0
					c-0.7,1.5-1.5,3-2.2,4.6c0,1,0,1.9,0,2.9c-0.4,0-0.8,0-1.2,0c0-1,0-1.9,0-2.9C1280.5,442.3,1279.8,440.8,1279,439.3z"/>
			</g>
			<g>
				<path class="st11" d="M1291,439.9c0.4,0,0.7,0,1.1,0c0,0.5,0,0.9,0,1.4c0.5,0,1,0,1.5,0c0,0.3,0,0.6,0,0.9c-0.5,0-1,0-1.5,0
					c0,1.1,0,2.2,0.1,3.3c0.1,0.2,0.2,0.3,0.4,0.4c0.3,0,0.6,0,0.9-0.1c0,0.3,0.1,0.6,0.1,0.9c0,0,0,0.1,0,0.1
					c-0.6,0.1-1.1,0.2-1.7,0.1c-0.5-0.2-0.8-0.5-0.9-1.1c0-1.2,0-2.4,0-3.6c-0.3,0-0.6,0-0.9,0c0-0.3,0-0.6,0-0.9c0.3,0,0.6,0,0.9,0
					C1291,440.8,1291,440.4,1291,439.9z"/>
			</g>
			<g>
				<path class="st11" d="M1286.9,441.2c0.6,0,1.1,0.1,1.6,0.3c0.6,0.4,0.9,0.9,0.9,1.5c0,1.3,0,2.6,0,3.8c-0.3,0-0.6,0-0.9,0
					c0-0.1-0.1-0.3-0.1-0.4c-0.4,0.4-0.9,0.6-1.5,0.6c-0.8,0-1.4-0.3-1.8-1c-0.3-1.3,0.2-2,1.4-2.4c0.4,0,0.8,0,1.3,0.1
					c0.2,0.1,0.3,0.2,0.5,0.3c0.1-1.4-0.6-2-1.9-1.7c-0.2,0-0.5,0.1-0.7,0.3c-0.1-0.3-0.2-0.6-0.3-0.9c0.1-0.1,0.3-0.2,0.4-0.2
					C1286.2,441.3,1286.5,441.2,1286.9,441.2z M1287,444.3c0.5-0.1,1,0.1,1.3,0.5c0.2,0.7-0.1,1.1-0.8,1.3c-0.5,0.1-0.9-0.1-1.2-0.4
					C1286.1,445,1286.3,444.5,1287,444.3z"/>
			</g>
			<g>
				<path class="st12" d="M1299.3,441.2c0.6-0.1,1.1,0.1,1.5,0.6c0.1,0.1,0.1,0.2,0.2,0.4c0.4-0.7,1-1,1.8-0.9
					c0.6,0.1,1.1,0.4,1.3,1c0.1,0.2,0.1,0.4,0.1,0.6c0,1.3,0,2.7,0,4c-0.4,0-0.7,0-1.1,0c0-1.3,0-2.6-0.1-3.8
					c-0.2-0.7-0.6-0.9-1.3-0.7c-0.3,0.1-0.5,0.4-0.5,0.7c-0.1,1.3-0.1,2.6-0.1,3.9c-0.4,0-0.8,0-1.1,0c0-1.3,0-2.6-0.1-3.9
					c-0.2-0.6-0.6-0.9-1.2-0.7c-0.3,0.1-0.6,0.4-0.6,0.7c-0.1,1.3-0.1,2.6-0.1,3.9c-0.4,0-0.7,0-1.1,0c0-1.8,0-3.7,0-5.5
					c0.3,0,0.6,0,1,0c0,0.2,0,0.4,0.1,0.7C1298.4,441.5,1298.8,441.2,1299.3,441.2z"/>
			</g>
			<g>
				<path class="st13" d="M1294.6,441.3c0.4,0,0.8,0,1.1,0c0,1.8,0,3.7,0,5.5c-0.4,0-0.8,0-1.1,0
					C1294.6,445,1294.6,443.1,1294.6,441.3z"/>
			</g>
		</g>
		<path class="st14" d="M1327,423.7l7.3-18.6c-1.2,0.1-2.2,0.6-3.2,1.4c-2.3,2.7-4.6,5.5-6.9,8.3c-2.3-2.7-4.6-5.5-6.9-8.2
			c-0.8-0.1-1.5-0.1-2.3,0c-0.6,0-1.1,0.1-1.6,0.3c-0.6,0.3-1.1,0.6-1.6,1.1c-1.1,1.1-2.1,2.3-3,3.6c0,8.4,0,16.7,0,25.1
			c1.8,0,3.6,0,5.4,0c0.3,0,0.5-0.1,0.8-0.1c1.9-0.4,2.9-1.5,3-3.4c0-4.4,0-8.8,0-13.3c2,2.4,4.1,4.8,6.1,7.1
			C1325.1,425.9,1326,424.8,1327,423.7z"/>
	</g>
	<g>
		<path class="st1" d="M1137.5,413.5c3.6,1.6,3.9,3.8,1,6.5c-4.4,1.7-8.8,3.7-13,6c-4,0.2-5-1.7-3-5.5
			C1127.5,418,1132.5,415.6,1137.5,413.5z"/>
	</g>
	<g>
		<path class="st2" d="M1408.5,445.5c1.4-3.8,2.7-7.4,4-11c32.6-0.3,64.6-5.7,96-16c4.8,1.5,5.1,3.6,1,6.5
			C1477.1,437.8,1443.4,444.6,1408.5,445.5z"/>
	</g>
	<g>
		<path class="st1" d="M1323.5,432.5c13.8-0.5,19.8,6.2,18,20c10.4,0,15,5,14,15c-4.3-6.8-10.3-8.8-18-6c-0.7-5.4-1.5-10.7-2.5-16
			c-2.7-4.8-6.9-7.1-12.5-7C1322.8,436.5,1323.2,434.5,1323.5,432.5z"/>
	</g>
	<g>
		<path class="st1" d="M1070.5,522.5c-3,1-5,3-6,6c-2.6-28.2-2.4-56.5,0.5-85c1.2-2.3,2.9-3,5-2c1,2,1.5,4.2,1.5,6.5
			C1069.4,472.8,1069.1,497.7,1070.5,522.5z"/>
	</g>
	<g>
		<path class="st1" d="M1138.5,440.5c2.5-0.4,4.5,0.5,6,2.5c-5,4.2-10.7,7.3-17,9.5c-0.6-0.2-1.1-0.5-1.5-1c-0.5-2-0.7-4-0.5-6
			C1130.2,444.6,1134.6,443,1138.5,440.5z"/>
	</g>
	<g>
		<path class="st1" d="M1377.5,440.5c2.2,0.7,4.1,2,5.5,4c5.4,7.7,9.9,15.8,13.5,24.5c-1.2,3.1-2.9,3.3-5,0.5
			C1386,460.2,1381.3,450.5,1377.5,440.5z"/>
	</g>
	<g>
		<path class="st1" d="M1271.5,444.5c3.4,6.2,8,11.4,14,15.5c-3.7,1.5-7,3.5-10,6c-12.3,11-21.5,24.1-27.5,39.5
			c-10.1,27.1-15.6,55.1-16.5,84c-16.3-4.3-20.8-14.3-13.5-30c4.2-13.8,9.6-27.1,16-40C1246,494.2,1258.5,469.2,1271.5,444.5z"/>
	</g>
	<g>
		<path class="st1" d="M1376.5,476.5c-4.3-1-8.6-1.1-13-0.5c-2.5,0.5-4.7,1.7-6.5,3.5c-0.5-2.3-0.7-4.6-0.5-7
			c3.7-1.3,7.3-1.8,11-1.5c-1.9-3-2.2-6.2-1-9.5C1371.1,465.6,1374.4,470.6,1376.5,476.5z"/>
	</g>
	<g>
		<path class="st1" d="M1141.5,466.5c2-0.2,3.8,0.1,5.5,1c0.4,1.6-0.1,2.9-1.5,4c-5.1,2.6-10.5,4.6-16,6c-1.4-2.5-1.1-4.7,1-6.5
			C1134.5,470,1138.1,468.5,1141.5,466.5z"/>
	</g>
	<g>
		<path class="st1" d="M818.5,483.5c2.5,1.4,3.8,3.6,4,6.5c-8.1,47.7-17.4,95.2-28,142.5c-3,0.3-5.3-0.7-7-3
			c8.4-40.2,16.2-80.5,23.5-121c1.8-7,3.5-14,5-21C817.5,486.5,818.3,485.2,818.5,483.5z"/>
	</g>
	<g>
		<path class="st1" d="M704.5,571.5c1.3,0,2.7,0,4,0c-2.4,7-6,13.4-11,19c-1.9-1.2-2.4-2.9-1.5-5
			C699.1,580.9,701.9,576.3,704.5,571.5z"/>
	</g>
	<g>
		<path class="st1" d="M719.5,579.5c1.3,0,2.7,0,4,0c0,2.9-0.8,5.6-2.5,8c-3,4.7-6.4,9-10,13c-2-1.1-2.7-2.8-2-5
			C712.3,590,715.8,584.7,719.5,579.5z"/>
	</g>
	<g>
		<path class="st1" d="M735.5,585.5c1,0,2,0,3,0c0.2,1.7,0,3.4-0.5,5c-3,5.7-6,11.3-9,17c-1.7,1.4-3,1.1-4-1
			C726.4,598.4,729.9,591.4,735.5,585.5z"/>
	</g>
	<g>
		<path class="st1" d="M752.5,590.5c2.6,1.2,3.5,3.2,2.5,6c-3,7.3-6.5,14.3-10.5,21c-2.6-1.2-3.4-3.2-2.5-6
			C745,604.1,748.5,597.1,752.5,590.5z"/>
	</g>
	<g>
		<path class="st1" d="M769.5,596.5c1.4,1.3,2.1,2.9,2,5c-2.2,7.6-4.2,15.3-6,23c-2.8,0.1-4.8-1-6-3.5c3-6.9,5.1-14.1,6.5-21.5
			C767.1,598.4,768.3,597.4,769.5,596.5z"/>
	</g>
	<g>
		<path class="st1" d="M784.5,600.5c2.4,0.2,3.4,1.5,3,4c-1,5-1.9,10-2.5,15c-0.5,3.3-1.7,6.3-3.5,9c-2-0.5-3.3-1.7-4-3.5
			c1.7-6.4,3.3-12.7,5-19c-0.5-0.4-0.8-0.9-1-1.5C782.5,603.1,783.5,601.8,784.5,600.5z"/>
	</g>
	<g>
		<path class="st2" d="M1377.5,610.5c5,6.5,9.8,13.2,14.5,20c1.1,1.8,1.6,3.8,1.5,6c-1.7,0.2-3.4,0-5-0.5
			c-6.4-5.7-11.7-12.2-16-19.5C1374.2,614.5,1375.9,612.5,1377.5,610.5z"/>
	</g>
	<g>
		<path class="st1" d="M1517.5,675.5c1.9,0.4,3.4,1.4,4.5,3c12.1,31.9,25.6,63.2,40.5,94c-1.8,4.1-4.2,4.8-7.5,2
			C1539.7,742.5,1527.2,709.5,1517.5,675.5z"/>
	</g>
	<g>
		<path class="st1" d="M1491.5,698.5c1.4-0.2,2.7,0,4,0.5c-0.5,0.4-0.8,0.9-1,1.5c35,121.6,73.4,242.1,115,361.5
			c-1.5,2.9-3.7,3.8-6.5,2.5c-25.9-74.3-50.5-148.9-74-224c-17.2-42.4-30-86.1-38.5-131C1490.7,705.8,1491,702.1,1491.5,698.5z"/>
	</g>
	<g>
		<path class="st1" d="M1461.5,729.5c3.7,1.7,6.4,4.6,8,8.5c-1.2,18.5-1.3,37-0.5,55.5c2.9,42,5.1,84,6.5,126c-2,0.5-4,0.7-6,0.5
			c-1.5-2.6-2.3-5.4-2.5-8.5C1462.2,850.8,1460.3,790.2,1461.5,729.5z"/>
	</g>
	<g>
		<path class="st1" d="M1600.5,752.5c-0.5,5.2-2,10.2-4.5,15c-0.7,0.8-1.5,1.1-2.5,1c-1-3.3-2.4-6.4-4-9.5c2.8-1.1,5.2-2.6,7.5-4.5
			C1596.9,750.3,1598.1,749.7,1600.5,752.5z"/>
	</g>
	<g>
		<path class="st1" d="M1612.5,750.5c1.8,1.6,3.2,3.6,4,6c-1.5,3.6-4.2,4.7-8,3.5c-3.8-1.4-6.4-3.9-8-7.5
			C1604.7,752.9,1608.7,752.3,1612.5,750.5z"/>
	</g>
	<g>
		<path class="st2" d="M1600.5,752.5c1.6,3.6,4.2,6.1,8,7.5c3.8,1.2,6.5,0.1,8-3.5c4.3,5.6,7.3,12,9,19c-2.8,9.7-6.6,19.1-11.5,28
			c-1.3,3.2-2.2,6.6-2.5,10c-5.7-15-11.7-30-18-45c1,0.1,1.8-0.2,2.5-1C1598.5,762.7,1600,757.7,1600.5,752.5z"/>
	</g>
	<g>
		<path class="st1" d="M787.5,771.5c1.5,0.9,2.5,2.2,3,4c-1,8.3-1.7,16.6-2,25c-4.4,0.2-6.1-1.9-5-6.5c0.6-6.8,1.1-13.7,1.5-20.5
			C786,772.9,786.8,772.3,787.5,771.5z"/>
	</g>
	<g>
		<path class="st1" d="M1072.5,774.5c2,0.9,3,2.6,3,5c1.3,7.6,2.3,15.3,3,23c-2,0-4,0-6,0c-0.6-7.8-1.2-15.7-2-23.5
			C1070.5,777.2,1071.2,775.7,1072.5,774.5z"/>
	</g>
	<g>
		<path class="st1" d="M765.5,845.5c0,1.3-0.7,2-2,2c-8.3-3-12.3-9-12-18c3.7-17,3.7-34,0-51c0.3-0.8,0.8-1.5,1.5-2
			c3,3.9,5,8.2,6,13c-0.7,15-1.4,30-2,45c1.3,3.8,3.8,6.4,7.5,8C765.4,843.3,765.7,844.3,765.5,845.5z"/>
	</g>
	<g>
		<path class="st1" d="M831.5,777.5c2.4,0.9,3.4,2.8,3,5.5c-0.7,6.8-1.2,13.7-1.5,20.5c-3.4,0.9-5.3-0.6-5.5-4.5
			c0.7-5.7,1.4-11.3,2-17C829.8,780.2,830.4,778.7,831.5,777.5z"/>
	</g>
	<g>
		<path class="st1" d="M1048.5,777.5c2.4-0.4,3.9,0.6,4.5,3c0.8,7,1.7,14,2.5,21c-0.6,3.5-2.4,4.5-5.5,3
			C1048.3,795.5,1047.8,786.5,1048.5,777.5z"/>
	</g>
	<path class="st2" d="M774,753.5c1.3-38.4,5.8-76.4,13.5-114c-2.9,0.3-5.6,0-8-1c-14.5-3.7-28.8-8.1-43-13
		c-2.2,38.3-4.4,76.7-6.5,115c-5.1,13.7-10.5,27.4-16,41c-4.7,9.4-5.4,19.1-2,29c4.3,12.1,8.9,24.1,14,36c9,10,18.4,19.7,28,29
		c3.9-0.9,5.7-3.4,5.5-7.5c-0.7-3.9-1.7-7.8-3-11.5c-2.9-1.4-5.4-3.4-7.5-6c-2.9-3.5-5.6-7.2-8-11c-0.7-7.1-0.2-14.1,1.5-21
		c-0.2-6,0-12,0.5-18c0.4-8.4,3.2-15.7,8.5-22c0.3-0.8,0.8-1.5,1.5-2c3,3.9,5,8.2,6,13c-0.7,15-1.4,30-2,45c1.3,3.8,3.8,6.4,7.5,8
		c0.9,0.8,1.2,1.8,1,3c3.9-12.1,8.3-24.1,13-36c1.2-12.7,0.5-25.4-2-38C775.7,765.5,774.9,759.5,774,753.5z"/>
	<g>
		<path class="st1" d="M808.5,778.5c1.3-0.2,2.5,0.2,3.5,1c0.5,8,0.3,16-0.5,24c-1.6,0.2-3.1-0.1-4.5-1
			C806.4,794.4,806.9,786.4,808.5,778.5z"/>
	</g>
	<g>
		<path class="st1" d="M853.5,778.5c1-0.1,1.8,0.2,2.5,1c0.2,8.7-0.1,17.3-1,26c-1.5,2.5-3.2,2.5-5,0c-0.6-1.6-1.1-3.3-1.5-5
			c0.9-5.7,1.7-11.3,2.5-17C851.3,781.5,852.2,779.8,853.5,778.5z"/>
	</g>
	<g>
		<path class="st1" d="M1023.5,780.5c2.6-0.2,4.3,0.9,5,3.5c-0.4,8.1-0.4,16.2,0,24.5c-2,0-4,0-6,0
			C1022.2,799.1,1022.5,789.8,1023.5,780.5z"/>
	</g>
	<g>
		<path class="st1" d="M877.5,781.5c1-0.1,1.8,0.2,2.5,1c0.5,8.3,0.7,16.7,0.5,25c-1.6,0.2-3.1-0.1-4.5-1c-0.7-7.3-0.7-14.7,0-22
			C876.5,783.5,877,782.5,877.5,781.5z"/>
	</g>
	<g>
		<path class="st1" d="M927.5,781.5c1,0.5,1.8,1.1,2.5,2c0.5,8.3,0.7,16.7,0.5,25c-1.9,0.2-3.4-0.5-4.5-2c-0.7-7.7-0.7-15.3,0-23
			C926.7,783,927.2,782.3,927.5,781.5z"/>
	</g>
	<g>
		<path class="st1" d="M903.5,782.5c1.6-0.1,2.8,0.5,3.5,2c0.6,7.7,0.5,15.4-0.5,23c-1.6,0.2-3.1-0.1-4.5-1c-0.7-7.3-0.7-14.7,0-22
			C902.7,784,903.2,783.3,903.5,782.5z"/>
	</g>
	<g>
		<path class="st1" d="M998.5,782.5c1.2,0.5,2.4,1.2,3.5,2c0.3,7.5,0.8,15,1.5,22.5c0,2.5-1.1,4-3.5,4.5c-1.7-0.3-2.7-1.3-3-3
			c-0.7-7.7-0.7-15.3,0-23C997.5,784.5,998,783.5,998.5,782.5z"/>
	</g>
	<g>
		<path class="st1" d="M949.5,783.5c1.5,0,2.7,0.7,3.5,2c0.5,8.3,0.7,16.7,0.5,25c-3.1,0.5-5.1-0.7-6-3.5c1.3-4.3,1.3-8.7,0-13
			C948.1,790.5,948.8,787,949.5,783.5z"/>
	</g>
	<g>
		<path class="st1" d="M970.5,784.5c1.3-0.2,2.5,0.2,3.5,1c1.3,8,1.6,16,1,24c-2.5,1.5-4.1,0.8-5-2
			C969.2,799.8,969.4,792.1,970.5,784.5z"/>
	</g>
	<g>
		<path class="st1" d="M1342.5,805.5c2.5-0.2,4.3,0.8,5.5,3c-0.1,20-0.4,40-1,60c-5.6,74.3-10.6,148.7-15,223
			c-5,4.1-7.5,2.6-7.5-4.5c4.7-91.9,9.9-183.7,15.5-275.5C1340.2,809.2,1341.1,807.2,1342.5,805.5z"/>
	</g>
	<g>
		<path class="st0" d="M785.5,810.5c44.4,7,89,11,134,12c2.5,110,4.3,220,5.5,330c0.2,7.4,1.1,14.7,2.5,22c-0.4,3.2-2,5.3-5,6.5
			c-4.5,0.2-8.9,0.7-13,1.5c-27,1.5-54,2.8-81,4c-12.3,0.6-24.7,0.9-37,1c-6.9-0.8-13.9-1.6-21-2.5c-0.9-0.4-1.8-0.9-2.5-1.5
			c-0.2-7.3-0.3-14.7-0.5-22C772.5,1044.4,778.5,927.4,785.5,810.5z"/>
	</g>
	<g>
		<path class="st0" d="M1076.5,815.5c2.7,56.3,5.9,112.7,9.5,169c2,54,3.7,108,5,162c0,8.6,0.8,17.1,2.5,25.5c-0.7,2.1-1.7,4.1-3,6
			c-12.4,2.2-24.7,4.3-37,6.5c-30.6,3.1-61.3,3.8-92,2c-4.6-1.1-9.2-2.2-14-3.5c-1.4-0.5-2.6-1.3-3.5-2.5c-5.6-119-7.5-238-5.5-357
			c31.7-0.3,63.3-0.8,95-1.5C1048.1,821.3,1062.4,819.2,1076.5,815.5z"/>
	</g>
	<g>
		<path class="st1" d="M742.5,818.5c1.6,1.6,2.2,3.6,2,6c-0.2,4.7,0,9.3,0.5,14c4,4.7,8,9.3,12,14c0.5,1.3,0.7,2.6,0.5,4
			c-0.3,0-0.7,0-1,0c-2.9-1.4-5.4-3.4-7.5-6c-2.9-3.5-5.6-7.2-8-11C740.3,832.4,740.8,825.4,742.5,818.5z"/>
	</g>
	<g>
		<path class="st2" d="M744.5,824.5c2.6,1.3,4.9,2.9,7,5c-0.3,9,3.7,15,12,18c0.8,4.2-0.6,7.6-4,10c-0.7-0.4-1.3-0.7-2-1
			c0.2-1.4,0-2.7-0.5-4c-4-4.7-8-9.3-12-14C744.5,833.8,744.3,829.2,744.5,824.5z"/>
	</g>
	<g>
		<path class="st1" d="M1245.5,875.5c2.6,0.1,4.6,1.2,6,3.5c-16.4,75.2-33.7,150.2-52,225c-2.9,1-5.2,0.3-7-2
			c4.3-23.6,9.2-47.1,14.5-70.5c11-48.4,22.8-96.6,35.5-144.5C1241.9,882.9,1242.9,879,1245.5,875.5z"/>
	</g>
	<g>
		<path class="st1" d="M1480.5,1013.5c2.3,2.8,3.5,6.2,3.5,10c0.7,20.3,0.7,40.7,0,61c-0.3,1.3-0.8,2.4-1.5,3.5c-2,0.5-4,0.7-6,0.5
			c0.4-23,0.4-46,0-69C1476.9,1016.7,1478.2,1014.7,1480.5,1013.5z"/>
	</g>
	<g>
		<path class="st1" d="M1145.5,1037.5c3.4-0.6,5.4,0.7,6,4c-1.5,5.4-4.7,9.4-9.5,12c-0.8-0.1-1.4-0.5-2-1
			C1139.2,1046.4,1141,1041.4,1145.5,1037.5z"/>
	</g>
	<g>
		<path class="st1" d="M1619.5,1044.5c3.5-0.6,6.3,0.4,8.5,3c3.5,6.3,3.3,12.5-0.5,18.5c-2.3,0.4-4.3-0.2-6-2
			c-4.8-4.1-6.6-9.3-5.5-15.5C1616.7,1046.7,1617.9,1045.3,1619.5,1044.5z"/>
	</g>
	<g>
		<path class="st15" d="M1129.5,1046.5c5.3,0,7.3,2.7,6,8c0.2,5.2-1.3,9.9-4.5,14c-5-4.9-6.7-10.9-5-18
			C1127,1049,1128.2,1047.6,1129.5,1046.5z"/>
	</g>
	<g>
		<path class="st16" d="M1145.5,1056.5c9.1-1.8,12.2,1.6,9.5,10c-5.1,5.3-11.3,7-18.5,5c-2.4-2.2-2.6-4.5-0.5-7
			C1138.4,1060.8,1141.5,1058.1,1145.5,1056.5z"/>
	</g>
	<g>
		<path class="st17" d="M1641.5,1061.5c5.2,0.2,7.6,3.1,7,8.5c-0.3,6.1-2.9,10.6-8,13.5c-1.9-0.1-3.1-1.1-3.5-3
			C1634,1072.9,1635.5,1066.6,1641.5,1061.5z"/>
	</g>
	<g>
		<path class="st1" d="M1178.5,1069.5c5.5,0,7.3,2.7,5.5,8c-1.9,5.2-5.2,9.2-10,12c-2.1-5.8-1.8-11.4,1-17
			C1176.2,1071.4,1177.3,1070.4,1178.5,1069.5z"/>
	</g>
	<g>
		<path class="st18" d="M1622.5,1073.5c5.8,1.7,10,5.3,12.5,11c0.8,2.3,0.6,4.4-0.5,6.5c-6.5-0.2-12-2.7-16.5-7.5
			C1615.9,1078.6,1617.4,1075.3,1622.5,1073.5z"/>
	</g>
	<g>
		<path class="st19" d="M1159.5,1082.5c3.8-0.7,6.7,0.7,8.5,4c0.9,5,0.4,9.9-1.5,14.5c-1,0.7-2,0.7-3,0
			C1158.3,1095.5,1156.9,1089.3,1159.5,1082.5z"/>
	</g>
	<g>
		<path class="st19" d="M1177.5,1092.5c3-0.2,6,0,9,0.5c2.6,3.2,2.3,6.2-1,9c-3.3,1.9-6.8,3.4-10.5,4.5c-5.2-2.3-5.9-5.6-2-10
			C1174.4,1094.9,1175.9,1093.6,1177.5,1092.5z"/>
	</g>
	<g>
		<path class="st1" d="M1583.5,1102.5c4.6-0.6,7.4,1.4,8.5,6c0.7,3.7,0.7,7.3,0,11c-0.3,2.1-1.3,3.8-3,5c-5-2.3-8.7-6-11-11
			C1577.2,1108.5,1579,1104.8,1583.5,1102.5z"/>
	</g>
	<g>
		<path class="st1" d="M1216.5,1114.5c3.4-0.6,5.4,0.7,6,4c-1.5,5.4-4.7,9.4-9.5,12c-0.8-0.1-1.4-0.5-2-1
			C1210.2,1123.4,1212,1118.4,1216.5,1114.5z"/>
	</g>
	<g>
		<path class="st15" d="M1600.5,1117.5c4-0.5,6,1.3,6,5.5c-1.2,5.9-3.4,11.4-6.5,16.5c-3.2-3-4.7-6.9-4.5-11.5
			C1595.2,1123.4,1596.8,1119.9,1600.5,1117.5z"/>
	</g>
	<g>
		<path class="st15" d="M1200.5,1123.5c5.3,0,7.3,2.7,6,8c0.2,5.2-1.3,9.9-4.5,14c-5-4.9-6.7-10.9-5-18
			C1198,1126,1199.2,1124.6,1200.5,1123.5z"/>
	</g>
	<g>
		<path class="st1" d="M1513.5,1126.5c2.2-0.3,4.1,0.3,5.5,2c2.9,8.3,1.1,15.3-5.5,21c-6.8-5.5-8.3-12.2-4.5-20
			C1510.4,1128.2,1511.9,1127.2,1513.5,1126.5z"/>
	</g>
	<g>
		<path class="st19" d="M1580.5,1130.5c7.2,0.4,12.1,4.1,14.5,11c0.5,1.6,0.7,3.3,0.5,5c-7.1-0.1-12.9-2.7-17.5-8
			C1576.8,1135,1577.7,1132.4,1580.5,1130.5z"/>
	</g>
	<g>
		<path class="st16" d="M1216.5,1133.5c9.1-1.8,12.2,1.6,9.5,10c-5.1,5.3-11.3,7-18.5,5c-2.4-2.2-2.6-4.5-0.5-7
			C1209.4,1137.8,1212.5,1135.1,1216.5,1133.5z"/>
	</g>
	<g>
		<path class="st1" d="M1272.5,1134.5c5.5-1.3,8.2,0.9,8,6.5c-1.2,6.2-4.3,11-9.5,14.5c-1.5-1.2-2.7-2.7-3.5-4.5
			C1267.7,1145,1269.3,1139.5,1272.5,1134.5z"/>
	</g>
	<g>
		<path class="st1" d="M1348.5,1142.5c5-1.3,7.7,0.6,8,5.5c-1.4,6.4-4.8,11.5-10,15.5c-2.8-1.3-4.1-3.5-4-6.5
			C1342.3,1151.1,1344.3,1146.3,1348.5,1142.5z"/>
	</g>
	<g>
		<path class="st1" d="M1435.5,1146.5c5.7-0.3,8.3,2.3,8,8c-0.2,5-2,9.4-5.5,13c-2.6,1.4-4.6,0.7-6-2c-1.7-5.4-1.7-10.7,0-16
			C1433.2,1148.4,1434.3,1147.4,1435.5,1146.5z"/>
	</g>
	<g>
		<path class="st20" d="M1500.5,1146.5c3.8,0.9,6.3,3.2,7.5,7c2.2,4.9,3,9.9,2.5,15c-6.2-2.7-11.4-6.7-15.5-12c-0.7-2.3-0.7-4.7,0-7
			C1496.9,1148.4,1498.7,1147.4,1500.5,1146.5z"/>
	</g>
	<g>
		<path class="st5" d="M1524.5,1147.5c5-0.2,6.8,2.2,5.5,7c-3.3,5.8-7.8,10.5-13.5,14C1513.7,1159.2,1516.4,1152.2,1524.5,1147.5z"
			/>
	</g>
	<g>
		<path class="st19" d="M1250.5,1148.5c8.5,0.5,12.5,5.2,12,14c0.1,2.5-0.4,4.9-1.5,7c-4.9-2.6-8.9-6.3-12-11
			C1248,1154.8,1248.5,1151.5,1250.5,1148.5z"/>
	</g>
	<g>
		<path class="st17" d="M1278.5,1156.5c10.9-1.6,13.8,2.4,8.5,12c-6.1,3.6-12.6,4.9-19.5,4c-0.2-2.5,0.3-4.8,1.5-7
			C1272.1,1162.3,1275.2,1159.3,1278.5,1156.5z"/>
	</g>
	<g>
		<path class="st19" d="M1328.5,1158.5c5.3-0.8,9.2,1.2,11.5,6c0.4,4.3,0.9,8.7,1.5,13c-0.2,2.1-0.7,4.1-1.5,6
			c-6.4-3.4-11.1-8.4-14-15C1324.9,1164.6,1325.7,1161.2,1328.5,1158.5z"/>
	</g>
	<g>
		<path class="st19" d="M1353.5,1163.5c3-0.2,6,0,9,0.5c3.3,6.2,1.6,10.9-5,14c-3.3,1.9-6.8,3.4-10.5,4.5
			C1344.7,1174.7,1346.8,1168.4,1353.5,1163.5z"/>
	</g>
	<g>
		<path class="st20" d="M1447.5,1163.5c7.6-0.3,10.1,3,7.5,10c-5.3,5.9-11.8,9.6-19.5,11C1434.7,1174.5,1438.7,1167.5,1447.5,1163.5
			z"/>
	</g>
	<g>
		<path class="st19" d="M1418.5,1166.5c4.1-0.8,7.3,0.5,9.5,4c2.7,5.6,3.3,11.2,2,17c-10.3-2.3-15-8.7-14-19
			C1417,1167.9,1417.8,1167.3,1418.5,1166.5z"/>
	</g>
	<g>
		<path class="st6" d="M909.5,1182.5c0.9,16.7,0.4,33.3-1.5,50c-1.6,6.9-5.4,12.1-11.5,15.5c-5.7,1.8-11.4,3.8-17,6
			c-3.9,6.7-7.8,13.6-11.5,20.5c-14.1,14.8-31.4,21.2-52,19c-7.9,0-15.7-0.5-23.5-1.5c-9.8-1-17.7-5.5-23.5-13.5
			c-13.4-17.2-17.4-36.6-12-58c2.4-7.3,6.6-13.3,12.5-18c1.4,0.2,2.7,0,4-0.5c33.5-18.7,61.8-12.9,85,17.5c1.5-1,2.2-2.5,2-4.5
			c-0.2-3.2-1.4-6.1-3.5-8.5c-8.3-8.6-17.8-15.2-28.5-20C855.5,1185.3,882.5,1184,909.5,1182.5z"/>
	</g>
	<g>
		<path class="st1" d="M1492.5,1185.5c-1,0.3-1.7,1-2,2c-2.7-0.2-5.3,0-8,0.5c-11.1,4.8-22.4,8.8-34,12c-11.1,1.8-22.1,3.3-33,4.5
			c-6.7-0.1-13.4,0.2-20,1c-16.7-1.9-33.4-4.4-50-7.5c-3.7-0.7-7.3-0.7-11,0c9.6,5.2,16.7,12.7,21.5,22.5c0.8,1.1,0.6,2.1-0.5,3
			c-11.8-13.3-26.5-21.8-44-25.5c-6.6-1.4-13.3-1.7-20-1c-7,2.8-14,5.7-21,8.5c0-1.8,0.5-3.5,1.5-5c2.6-2.7,5.5-5,8.5-7
			c11.4-5.5,23.2-6.5,35.5-3c11.2-1,22.3-0.8,33.5,0.5c16.2,3.5,32.5,5.6,49,6.5c27.3,0.9,53.6-3.6,79-13.5c2.5-0.2,5-0.3,7.5-0.5
			C1487.9,1183.5,1490.4,1184.2,1492.5,1185.5z"/>
	</g>
	<g>
		<path class="st6" d="M1053.5,1184.5c0.8,1.2,1.8,2.2,3,3c-4.4,0.5-8.7,1.3-13,2.5c-3.7,2.2-7.7,3.9-12,5
			c-7.2,4.7-13.2,10.5-18,17.5c-1.2,2.3-1.2,4.7,0,7c7.5-5.9,14.4-12.4,21-19.5c23.7-12.3,46.7-11.3,69,3c1.6,0.8,2.9,0.6,4-0.5
			c3.4,3.1,6.9,6.1,10.5,9c12.9,22.3,13.2,44.6,1,67c-19.5,17.3-42.3,24.1-68.5,20.5c-14.4-3.9-26.2-11.8-35.5-23.5
			c-4.7-6.9-9.5-13.8-14.5-20.5c-11.4-1.3-21.6-5.5-30.5-12.5c-7-10.4-10.1-21.9-9.5-34.5c0.9-7.1,1.2-14.3,1-21.5
			C992.2,1188.3,1022.9,1187.6,1053.5,1184.5z"/>
	</g>
	<g>
		<path class="st1" d="M828.5,1186.5c10.7,4.8,20.2,11.4,28.5,20c2.1,2.4,3.3,5.3,3.5,8.5c0.2,2-0.5,3.5-2,4.5
			c-23.2-30.4-51.5-36.2-85-17.5c-1.3,0.5-2.6,0.7-4,0.5c0-2.1,0.6-3.9,2-5.5c6.3-4,13-7.2,20-9.5
			C803.8,1187.4,816.2,1187.1,828.5,1186.5z"/>
	</g>
	<g>
		<path class="st1" d="M1107.5,1202.5c-1.1,1.1-2.4,1.3-4,0.5c-22.3-14.3-45.3-15.3-69-3c-6.6,7.1-13.5,13.6-21,19.5
			c-1.2-2.3-1.2-4.7,0-7c4.8-7,10.8-12.8,18-17.5c4.3-1.1,8.3-2.8,12-5c4.3-1.2,8.6-2,13-2.5c8.7-1.4,17.4-0.9,26,1.5
			c7.9,2.8,15.6,6.1,23,10C1106.8,1199.8,1107.5,1201,1107.5,1202.5z"/>
	</g>
	<g>
		<path class="st6" d="M1490.5,1187.5c1.1,0.1,2.1,0.4,3,1c-16.1,5.9-27.9,16.5-35.5,32c-1,2.9-0.3,5.2,2,7c0.8-0.1,1.4-0.5,2-1
			c9.8-21.8,26.8-32.4,51-32c5.2,0.9,10.3,1.1,15.5,0.5c0.6-0.4,0.9-0.9,1-1.5c18.7,4.8,29.5,16.8,32.5,36c2.9,17.7-0.4,34-10,49
			c-8.1,8.5-17.9,14-29.5,16.5c-38.7,12.7-66.4,0.5-83-36.5c-12.6-1.1-20.4-7.8-23.5-20c-1.7-11.3-1.8-22.7-0.5-34
			c10.9-1.2,21.9-2.7,33-4.5c11.6-3.2,22.9-7.2,34-12C1485.2,1187.5,1487.8,1187.3,1490.5,1187.5z"/>
	</g>
	<g>
		<path class="st1" d="M1529.5,1193.5c-0.1,0.6-0.4,1.1-1,1.5c-5.2,0.6-10.3,0.4-15.5-0.5c-24.2-0.4-41.2,10.2-51,32
			c-0.6,0.5-1.2,0.9-2,1c-2.3-1.8-3-4.1-2-7c7.6-15.5,19.4-26.1,35.5-32c10.1-1.5,20.1-1,30,1.5
			C1526,1190.4,1528,1191.6,1529.5,1193.5z"/>
	</g>
	<g>
		<path class="st6" d="M1395.5,1205.5c0.8,14.3,0.6,28.7-0.5,43c-0.6,8-4.8,12.8-12.5,14.5c-5,0.3-10,0.7-15,1
			c-6.8,8.2-13.8,16.2-21,24c-16.9,10.4-35.2,14.1-55,11c-20.1-6.6-31.9-20.5-35.5-41.5c-3.8-19.9,1-37.3,14.5-52
			c7-2.8,14-5.7,21-8.5c6.7-0.7,13.4-0.4,20,1c17.5,3.7,32.2,12.2,44,25.5c1.1-0.9,1.2-1.9,0.5-3c-4.8-9.8-11.9-17.3-21.5-22.5
			c3.7-0.7,7.3-0.7,11,0C1362.1,1201.1,1378.8,1203.6,1395.5,1205.5z"/>
	</g>
	<g>
		<g>
			<path class="st8" d="M971.7,474.8c2,0,3.7,0.7,5.1,2.2c3.1,4.1,6.1,8.1,9.2,12.2c3-4,6-7.9,8.9-11.9c1.4-1.6,3.1-2.4,5.3-2.5
				c4.8,0,9.7,0.1,14.5,0c1.3,0,2.6,0.3,3.7,0.9c-1.1,0-2.3,0.1-3.4,0.3c-1,0.3-1.9,0.8-2.8,1.5c-0.6,0.6-1.3,1.2-1.9,1.8
				c-1,1.1-2,2.3-2.9,3.5c-1.9,2.6-3.8,5.3-5.8,7.9c-3,4-6,7.9-9.1,11.9c0,3.9,0,7.7-0.1,11.6c-0.4,2.7-1.9,4.6-4.4,5.6
				c-0.4,0.1-0.8,0.2-1.2,0.3c-2.6,0.1-5.1,0.1-7.7,0.1c0-5.8,0-11.7,0-17.5c-4.3-5.7-8.7-11.5-13-17.2c-1.3-2-1.5-4.2-0.7-6.5
				C966.9,476.3,968.9,475,971.7,474.8z"/>
		</g>
		<g>
			<path class="st14" d="M1045.6,474.8c2.3,0,4.5,0,6.8,0c0,13.2,0,26.4,0,39.6c-0.4,2.6-1.8,4.4-4.2,5.4c-2.9,1-5.4,0.3-7.5-1.9
				c-0.9-1.1-1.4-2.3-1.6-3.8c0-6.1,0-12.1-0.1-18.2c-2.9,3.4-5.9,6.9-8.8,10.3c-3-3.4-5.9-6.8-8.8-10.3c0,6.4,0,12.7-0.1,19.1
				c-0.2,2.8-1.7,4.4-4.4,4.9c-0.4,0.1-0.7,0.1-1.1,0.2c-2.6,0-5.2,0-7.8,0c0-12,0-24.1,0-36.1c1.3-1.8,2.8-3.5,4.4-5.1
				c0.7-0.6,1.4-1.2,2.3-1.6c0.7-0.3,1.5-0.4,2.3-0.5c1.1,0,2.2,0,3.3,0.1c3.3,3.9,6.7,7.9,9.9,11.8c3.3-4,6.6-8,9.9-11.9
				C1041.7,475.5,1043.5,474.8,1045.6,474.8z"/>
		</g>
		<g>
			<path class="st9" d="M988.4,523.6c0.7,0,1.1,0.4,1.2,1.1c-0.1,0.7-0.4,1-1.1,1.1c-0.9-0.1-1.2-0.6-1-1.5
				C987.7,523.9,988,523.6,988.4,523.6z"/>
		</g>
		<g>
			<path class="st21" d="M1042.4,523.6c0.8,0.1,1.2,0.5,1.1,1.4c-0.3,0.7-0.8,0.9-1.5,0.7c-0.5-0.3-0.7-0.8-0.6-1.4
				C1041.7,523.9,1042,523.6,1042.4,523.6z"/>
		</g>
		<g>
			<path class="st22" d="M1051.3,523.6c0.9,0.1,1.2,0.6,1.1,1.5c-0.3,0.6-0.8,0.8-1.4,0.6c-0.5-0.3-0.7-0.7-0.6-1.3
				C1050.5,523.9,1050.8,523.6,1051.3,523.6z"/>
		</g>
		<g>
			<path class="st10" d="M965.2,524c0.7-0.1,1.3-0.1,2,0c0.7,1.6,1.4,3.2,2.2,4.8c0.7-1.6,1.5-3.2,2.2-4.8c0.6-0.1,1.2-0.1,1.9,0
				c-1.1,2.2-2.1,4.4-3.2,6.6c0,1.4,0,2.8,0,4.2c-0.6,0-1.1,0-1.7,0c0-1.4,0-2.8,0-4.2C967.3,528.4,966.3,526.2,965.2,524z"/>
		</g>
		<g>
			<path class="st23" d="M1007.2,524c0.6,0,1.2,0,1.8,0.1c0.9,2.2,1.7,4.3,2.6,6.5c0.9-2.2,1.8-4.4,2.6-6.6c0.6,0,1.1,0,1.7,0
				c0,3.6,0,7.2,0,10.8c-0.6,0-1.1,0-1.7,0c0-2.5,0-4.9,0-7.4c-0.8,1.9-1.5,3.8-2.3,5.7c-0.3,0-0.6,0-0.8,0
				c-0.8-1.9-1.5-3.7-2.3-5.6c0,2.4,0,4.9,0,7.3c-0.5,0-1.1,0-1.6,0C1007.2,531.2,1007.2,527.6,1007.2,524z"/>
		</g>
		<g>
			<path class="st23" d="M1038.1,524c0.6,0,1.1,0,1.7,0c0,3.6,0,7.2,0,10.8c-0.5,0-1,0-1.5,0c0-0.3-0.1-0.5-0.1-0.8
				c-0.7,0.8-1.6,1.1-2.7,0.9c-1.4-0.3-2.1-1.1-2.2-2.5c0-1.1,0-2.1,0-3.2c0.2-1.9,1.3-2.7,3.2-2.6c0.6,0.1,1.1,0.3,1.5,0.8
				C1038.1,526.3,1038.1,525.2,1038.1,524z M1036.3,528.2c1,0,1.6,0.4,1.8,1.5c0,0.9,0,1.8-0.1,2.8c-0.3,0.9-0.9,1.3-1.9,1.1
				c-0.6-0.2-1-0.6-1.1-1.2c0-1,0-2,0.1-3C1035.3,528.6,1035.7,528.3,1036.3,528.2z"/>
		</g>
		<g>
			<path class="st11" d="M982.5,524.9c0.5,0,1.1,0,1.6,0c0,0.7,0,1.3,0,2c0.7,0,1.5,0,2.2,0c0,0.4,0,0.9,0,1.3c-0.7,0-1.5,0-2.2,0
				c0,1.6,0,3.2,0.1,4.8c0.1,0.3,0.3,0.5,0.6,0.5c0.4,0,0.9,0,1.3-0.1c0.1,0.4,0.1,0.8,0.2,1.2c0,0,0,0.1-0.1,0.1
				c-0.8,0.2-1.6,0.3-2.4,0.1c-0.8-0.2-1.2-0.7-1.3-1.5c0-1.7,0-3.5,0-5.2c-0.4,0-0.8,0-1.3,0c0-0.4,0-0.9,0-1.3c0.4,0,0.8,0,1.3,0
				C982.5,526.2,982.5,525.5,982.5,524.9z"/>
		</g>
		<g>
			<path class="st11" d="M976.5,526.7c0.8-0.1,1.6,0.1,2.4,0.4c0.8,0.5,1.2,1.2,1.3,2.2c0,1.8,0,3.7,0,5.5c-0.4,0-0.9,0-1.3,0
				c0-0.2-0.1-0.4-0.1-0.6c-0.6,0.6-1.3,0.9-2.1,0.8c-1.2,0.1-2.1-0.4-2.6-1.5c-0.4-1.8,0.2-2.9,2-3.4c0.6-0.1,1.2,0,1.8,0.2
				c0.2,0.1,0.5,0.3,0.7,0.4c0.1-2-0.8-2.8-2.8-2.4c-0.3,0.1-0.7,0.2-1,0.4c-0.2-0.4-0.3-0.9-0.4-1.3c0.2-0.1,0.4-0.3,0.6-0.3
				C975.5,526.9,976,526.8,976.5,526.7z M976.6,531.2c0.8-0.2,1.4,0.1,1.9,0.7c0.3,1-0.1,1.6-1.1,1.8c-0.7,0.1-1.2-0.1-1.7-0.6
				C975.4,532.2,975.7,531.5,976.6,531.2z"/>
		</g>
		<g>
			<path class="st12" d="M994.4,526.7c0.9-0.1,1.6,0.2,2.2,0.8c0.1,0.2,0.2,0.4,0.3,0.6c0.6-1,1.4-1.5,2.6-1.3
				c0.9,0.1,1.5,0.6,1.9,1.4c0.1,0.3,0.2,0.6,0.2,0.9c0,1.9,0,3.9,0,5.8c-0.5,0-1.1,0-1.6,0c0-1.8,0-3.7-0.1-5.5
				c-0.3-1-0.9-1.3-1.9-1c-0.4,0.2-0.7,0.5-0.8,1c-0.1,1.9-0.1,3.7-0.1,5.6c-0.6,0-1.1,0-1.7,0c0-1.9,0-3.7-0.1-5.6
				c-0.2-0.9-0.8-1.3-1.7-1c-0.5,0.2-0.8,0.5-0.9,1c-0.1,1.9-0.1,3.7-0.1,5.6c-0.5,0-1.1,0-1.6,0c0-2.7,0-5.3,0-8c0.5,0,0.9,0,1.4,0
				c0,0.3,0.1,0.6,0.1,1C993.1,527.2,993.7,526.8,994.4,526.7z"/>
		</g>
		<g>
			<path class="st24" d="M1020.1,526.7c1-0.1,1.8,0.1,2.7,0.6c0.6,0.5,0.9,1.2,1,2c0,1.8,0,3.7,0,5.5c-0.4,0-0.9,0-1.3,0
				c0-0.2-0.1-0.4-0.1-0.6c-0.6,0.6-1.3,0.9-2.1,0.8c-1.6,0-2.6-0.8-2.8-2.4c0.1-1.4,0.9-2.2,2.2-2.5c0.9-0.2,1.7,0,2.4,0.5
				c0.1-0.5,0-1-0.1-1.5c-0.3-0.7-0.9-1-1.7-1c-0.7,0-1.3,0.2-1.9,0.5c-0.2-0.4-0.3-0.8-0.4-1.2c0-0.1,0-0.1,0-0.2
				c0.2-0.2,0.5-0.3,0.8-0.3C1019.3,526.9,1019.7,526.8,1020.1,526.7z M1020.3,531.2c0.7-0.1,1.3,0.1,1.8,0.6
				c0.4,0.9,0.2,1.6-0.8,1.9c-0.5,0.1-1.1,0.1-1.6-0.2c-0.5-0.4-0.7-0.9-0.4-1.6C1019.5,531.5,1019.9,531.3,1020.3,531.2z"/>
		</g>
		<g>
			<path class="st25" d="M1028.9,526.7c1.2-0.1,2.1,0.3,2.7,1.4c0.1,0.4,0.2,0.7,0.3,1.1c0,1.9,0,3.7,0,5.6c-0.6,0-1.1,0-1.7,0
				c0-1.9,0-3.7-0.1-5.6c-0.3-0.9-0.9-1.3-1.8-1c-0.5,0.2-0.8,0.6-1,1.1c-0.1,1.8-0.1,3.6-0.1,5.5c-0.5,0-1.1,0-1.6,0
				c0-2.7,0-5.3,0-8c0.5,0,0.9,0,1.4,0.1c0,0.3,0.1,0.6,0.1,0.9C1027.5,527.2,1028.1,526.8,1028.9,526.7z"/>
		</g>
		<g>
			<path class="st12" d="M1048.9,526.7c0.2,0,0.3,0,0.5,0c0,0.6,0,1.1,0,1.7c-0.5,0-1,0-1.5,0.2c-0.7,0.4-1,1-1,1.8c0,1.5,0,3,0,4.5
				c-0.5,0-1.1,0-1.6,0c0-2.7,0-5.3,0-8c0.5,0,1,0,1.5,0c0,0.4,0,0.8,0.1,1.3C1047.2,527.3,1047.9,526.8,1048.9,526.7z"/>
		</g>
		<g>
			<path class="st13" d="M987.7,526.9c0.6,0,1.1,0,1.7,0c0,2.7,0,5.3,0,8c-0.6,0-1.1,0-1.7,0C987.7,532.2,987.7,529.5,987.7,526.9z"
				/>
		</g>
		<g>
			<path class="st26" d="M1041.6,526.9c0.6,0,1.1,0,1.7,0c0,2.7,0,5.3,0,8c-0.6,0-1.1,0-1.7,0
				C1041.6,532.2,1041.6,529.5,1041.6,526.9z"/>
		</g>
		<g>
			<path class="st26" d="M1050.6,526.9c0.6,0,1.1,0,1.7,0c0,2.7,0,5.3,0,8c-0.6,0-1.1,0-1.7,0
				C1050.6,532.2,1050.6,529.5,1050.6,526.9z"/>
		</g>
	</g>
</g>
</svg>
