<?xml version="1.0" encoding="utf-8"?>
<!-- Generator: Adobe Illustrator 24.0.1, SVG Export Plug-In . SVG Version: 6.00 Build 0)  -->
<svg version="1.1" id="Layer_1" xmlns="http://www.w3.org/2000/svg" xmlns:xlink="http://www.w3.org/1999/xlink" x="0px" y="0px"
	 viewBox="0 0 2362 1328" style="enable-background:new 0 0 2362 1328;" xml:space="preserve">
<style type="text/css">
	.st0{fill-rule:evenodd;clip-rule:evenodd;fill:#7E72BB;}
	.st1{fill-rule:evenodd;clip-rule:evenodd;fill:#2E3192;}
	.st2{fill-rule:evenodd;clip-rule:evenodd;fill:#EF6036;}
	.st3{fill-rule:evenodd;clip-rule:evenodd;fill:#F9D2B9;}
	.st4{fill-rule:evenodd;clip-rule:evenodd;fill:#3F3E40;}
	.st5{fill-rule:evenodd;clip-rule:evenodd;fill:#3E3E40;}
	.st6{fill-rule:evenodd;clip-rule:evenodd;fill:#E1A88A;}
	.st7{fill-rule:evenodd;clip-rule:evenodd;fill:#FEFCFC;}
	.st8{fill-rule:evenodd;clip-rule:evenodd;fill:#715CA7;}
	.st9{fill-rule:evenodd;clip-rule:evenodd;fill:#9A5266;}
	.st10{fill-rule:evenodd;clip-rule:evenodd;fill:#DF9E7F;}
	.st11{fill-rule:evenodd;clip-rule:evenodd;fill:#A59CD0;}
	.st12{fill-rule:evenodd;clip-rule:evenodd;fill:#8579BF;}
	.st13{fill-rule:evenodd;clip-rule:evenodd;fill:#8F6585;}
	.st14{fill-rule:evenodd;clip-rule:evenodd;fill:#A95A5D;}
	.st15{fill-rule:evenodd;clip-rule:evenodd;fill:#EED7C1;}
	.st16{fill-rule:evenodd;clip-rule:evenodd;fill:#EED8C1;}
	.st17{opacity:0.996;fill-rule:evenodd;clip-rule:evenodd;fill:#FEFFFE;enable-background:new    ;}
	.st18{opacity:0.997;fill-rule:evenodd;clip-rule:evenodd;fill:#FEFFFE;enable-background:new    ;}
	.st19{opacity:0.955;fill-rule:evenodd;clip-rule:evenodd;fill:#FEFFFE;enable-background:new    ;}
	.st20{opacity:0.957;fill-rule:evenodd;clip-rule:evenodd;fill:#FEFFFE;enable-background:new    ;}
	.st21{opacity:0.959;fill-rule:evenodd;clip-rule:evenodd;fill:#FEFFFE;enable-background:new    ;}
	.st22{opacity:0.972;fill-rule:evenodd;clip-rule:evenodd;fill:#FEFFFE;enable-background:new    ;}
	.st23{opacity:0.968;fill-rule:evenodd;clip-rule:evenodd;fill:#FEFFFE;enable-background:new    ;}
	.st24{opacity:0.973;fill-rule:evenodd;clip-rule:evenodd;fill:#FEFFFE;enable-background:new    ;}
	.st25{opacity:0.978;fill-rule:evenodd;clip-rule:evenodd;fill:#FEFFFE;enable-background:new    ;}
	.st26{opacity:0.97;fill-rule:evenodd;clip-rule:evenodd;fill:#FEFFFE;enable-background:new    ;}
	.st27{opacity:0.976;fill-rule:evenodd;clip-rule:evenodd;fill:#FEFFFE;enable-background:new    ;}
	.st28{opacity:0.988;fill-rule:evenodd;clip-rule:evenodd;fill:#FEFFFE;enable-background:new    ;}
	.st29{opacity:0.98;fill-rule:evenodd;clip-rule:evenodd;fill:#FEFFFE;enable-background:new    ;}
	.st30{fill:#EF6036;}
</style>
<g>
	<path class="st0" d="M1020.5,62.5c-2.1,1.1-4.4,1.8-7,2C1015.4,62.8,1017.8,62.2,1020.5,62.5z"/>
</g>
<g>
	<path class="st1" d="M1020.5,62.5c20.9-2.6,38.1,4,51.5,20c2.3,4.2,4.3,8.6,6,13c0.7,5.3,0.7,10.7,0,16c-4,14.7-10.7,28-20,40
		c-5.4,11.1-11.6,21.8-18.5,32c-3.4,3-5.7,2.3-7-2c0.1-3.3-0.6-6.3-2-9c-0.3-7.1,0.2-14.1,1.5-21c7.9-11.6,15.4-23.4,22.5-35.5
		c1.8-5.7,2.3-11.6,1.5-17.5c-8.9-11.9-20.7-16.7-35.5-14.5c-13.5,2.8-17.6,10.6-12.5,23.5c1.9,2.4,4.4,3.7,7.5,4
		c4.1,1,8.5,1.3,13,1c-0.2,1.3,0.1,2.3,1,3c1.5,2.8,1.1,5.3-1,7.5c-21.7,11-34.9,4.8-39.5-18.5c-2.5-20.1,5.7-33.5,24.5-40
		C1016.1,64.3,1018.4,63.6,1020.5,62.5z"/>
</g>
<g>
	<path class="st1" d="M1015.5,111.5c4.7,0,9.3,0,14,0c0,1.3,0,2.7,0,4c-0.9-0.7-1.2-1.7-1-3C1024,112.8,1019.6,112.5,1015.5,111.5z"
		/>
</g>
<g>
	<path class="st2" d="M1473.5,609.5c-0.8,2.3-1.7,4.6-2.5,7c-5.7-6.4-12.9-9.1-21.5-8c-10.9-7.8-21.9-15.6-33-23.5
		c-8-6.7-14.5-14.5-19.5-23.5c-3.8-12.1-6.8-24.5-9-37c-4.4-30.5-8.2-61-11.5-91.5c-5.7,0-9.6,2.9-11.5,8.5
		c-10.3,38.8-13.4,78.1-9.5,118c6.1-0.3,10.8,2.1,14,7c-1.3,1.4-3,2.1-5,2c-5-1.7-10-1.9-15-0.5c-15,16.6-29.2,33.8-42.5,51.5
		c-0.4,8.3,2.8,14.8,9.5,19.5c2,0.5,4,0.7,6,0.5c-0.2,2.4,0,4.7,0.5,7c3.2,3.2,6.3,6.3,9.5,9.5c4.5,2.5,9.1,3.3,14,2.5
		c4.6-13,10.4-25.3,17.5-37c5.4-5.1,6.7-3.8,4,4c-5.3,12.3-10.4,24.6-15.5,37c4.4,4.4,9.4,8.1,15,11c0.8,7,3.8,12.8,9,17.5
		c-19.2,8.5-33,22.3-41.5,41.5c-9.2,23.1-14.2,47.1-15,72c-1.9,65.5,7.2,129.3,27.5,191.5c-3.7,1-6.8,2.8-9.5,5.5
		c-7-20.2-18.2-37.7-33.5-52.5c-13-10.5-27.7-17.8-44-22c-13.1-3.4-26.5-5.7-40-7c-48.8-3-97.4-1.8-146,3.5
		c-16.6-40.1-30.8-81.1-42.5-123c-10.1-43.1-13.6-86.8-10.5-131c6.1,2.5,12.4,4.2,19,5c6.2,1.2,12.5,1.3,19,0.5
		c1.2-0.2,2.2-0.7,3-1.5c14.9-3.9,27.9-11.2,39-22c1.4-1.2,2.6-0.9,3.5,1c16.9,23.6,36.1,45.4,57.5,65.5c16,13.6,31.6,27.6,47,42
		c13.4,12.6,28.4,22.9,45,31c3.2,1.6,6.3,1.7,9.5,0.5c0.7-3.7,0.7-7.3,0-11c-0.3-2.3-1.5-4.2-3.5-5.5c-11.1-4.4-21.4-10-31-17
		c-44.8-34.7-84.8-74.2-120-118.5c3.2-7.1,5.5-14.5,7-22c0.7-1.3,1.3-2.7,2-4c48.5,9.8,97.1,10.6,146,2.5c11.9-2.1,23.6-4.9,35-8.5
		c1.9,1.2,3.7,2.5,5.5,4c6.1-10.1,12.9-19.6,20.5-28.5c-4.4-1.1-8.7-2.5-13-4c-7.2-1.7-13.6-0.2-19,4.5c-1.6,2.8-2.3,5.8-2,9
		c-39.4,14.7-80.1,19.5-122,14.5c-17.2-1.5-34.2-4.4-51-8.5c-0.3,0-0.7,0-1,0c-3.3-23.3-14.9-40.9-35-53c-3-3-6.7-4.7-11-5
		c-4.8-2.1-9.8-3.1-15-3c-3.5-1-7.1-1.3-11-1c0.7-3.6,1.3-7.3,2-11c-10.3-53.6-10.4-107.3-0.5-161c6.6-29.6,18-57.3,34-83
		c10.9-18.6,22.3-36.9,34-55c19.3-25.9,42.4-47.8,69.5-65.5c46.3-27.8,96.3-37.8,150-30c26.5,6.2,51.9,15.5,76,28
		c29.1,23.4,51.9,51.9,68.5,85.5c9.8,24,14.6,49,14.5,75c-1.6,40.9-8.4,80.9-20.5,120c-8.5,27.9-18,55.4-28.5,82.5c1,2.3,2.7,4,5,5
		c5.3,1.6,10.6,2.9,16,4c2.2,1.5,4,3.3,5.5,5.5c-1.5,12.7-3.3,25.4-5.5,38C1464.6,587.1,1467.3,598.7,1473.5,609.5z"/>
</g>
<g>
	<path class="st1" d="M907.5,132.5c30.6-1.1,47.6,13.6,51,44c0,7.9,0,15.7,0,23.5c1.5,11.2,2.5,22.6,3,34c0,7.9-3,9.4-9,4.5
		c-4.7-4.5-8.9-9.5-12.5-15c-1.5-4.2-2.5-8.6-3-13c-0.1-12.7-0.8-25.4-2-38c-1.6-11.9-8.4-17.9-20.5-18c-12.7,0.7-22.6,6.4-29.5,17
		c-2.7,8.8-0.2,15.6,7.5,20.5c7.8,0.3,14.3-2.6,19.5-8.5c2.4,2.5,4.6,5.2,6.5,8c-12.8,23.7-28.3,25.7-46.5,6
		c-9.3-13.5-9.9-27.5-2-42C879.7,143.1,892.2,135.4,907.5,132.5z"/>
</g>
<g>
	<path class="st1" d="M1030.5,172.5c1.4,2.7,2.1,5.7,2,9C1031.1,178.8,1030.4,175.8,1030.5,172.5z"/>
</g>
<g>
	<path class="st1" d="M1062.5,221.5c-2.3,1.3-3.7,3.3-4,6c-11,9-20.2,7.3-27.5-5c-3.2-12,0.6-20.5,11.5-25.5
		C1059.5,196.7,1066.1,204.8,1062.5,221.5z"/>
</g>
<g>
	<path class="st3" d="M1398.5,368.5c0.8,20.3,1.1,40.7,1,61c-0.4,19.1-3.2,37.7-8.5,56c-2.4-14.9-4.4-29.9-6-45
		c-0.3-4.3-1.4-8.3-3.5-12c-8.8-3-15.9-0.7-21.5,7c-4.4,9.2-7.4,18.9-9,29c-3.6,23.5-5.7,47.2-6.5,71c-0.7,0.5-1.2,1.2-1.5,2
		c-22.4,14.3-46.9,23.6-73.5,28c-17.6,2.2-35.3,2.6-53,1c-12.5-2.7-24.8-6.2-37-10.5c-38.2-23.5-67.3-55.4-87.5-95.5
		c-4.2-9.8-7.9-19.8-11-30c-0.7-7.7-0.7-15.3,0-23c8.1-33.3,21.4-64.3,40-93c24.1-33.1,53.2-60.6,87.5-82.5c32.7-19,68-27.6,106-26
		c14.1,10,26.6,21.9,37.5,35.5c22.6,29.7,36.9,63,43,100C1395.9,350.6,1397.1,359.6,1398.5,368.5z"/>
</g>
<g>
	<path class="st1" d="M1062.5,221.5c-0.8,2.4-2.2,4.4-4,6C1058.8,224.8,1060.2,222.8,1062.5,221.5z"/>
</g>
<g>
	<path class="st1" d="M979.5,241.5c3.3-0.2,6.7,0,10,0.5c9.2,4.3,13,11.5,11.5,21.5c-2.8,11.6-10,15.8-21.5,12.5
		c-13.3-7.3-16-17.3-8-30C974.1,244.2,976.8,242.7,979.5,241.5z"/>
</g>
<g>
	<path class="st4" d="M1229.5,241.5c23.9-0.6,34.1,10.7,30.5,34c-0.7,3.3-2.5,5.1-5.5,5.5c-1.2-0.9-2-2.1-2.5-3.5
		c0.2-5.7,0.2-11.3,0-17c-3.5-6.8-9.1-10.2-17-10c-6.8,1.6-13.6,2.6-20.5,3c-0.4-2.8,0.6-5,3-6.5
		C1221.3,244.5,1225.3,242.6,1229.5,241.5z"/>
</g>
<g>
	<path class="st5" d="M1193.5,276.5c14.9,2.6,19.4,10.9,13.5,25c-4.6,11.4-12.1,20.2-22.5,26.5c-13.4,2.6-20.4-3-21-17
		c0-2.9,0.5-5.8,1.5-8.5c4.7-8.4,10.5-15.9,17.5-22.5C1186.4,279.1,1190,277.9,1193.5,276.5z"/>
</g>
<g>
	<path class="st5" d="M1312.5,294.5c1.3,0,2.7,0,4,0c1.6,8.4,6.6,13.9,15,16.5c2.6,0.9,5.3,1.6,8,2c6.7,0,13.4,0.2,20,0.5
		c1.4,2.7,0.8,4.9-2,6.5c-12.7,4-25.1,3-37-3c-3.2-2.9-6-6-8.5-9.5C1309.9,303,1310.1,298.7,1312.5,294.5z"/>
</g>
<g>
	<path class="st5" d="M1304.5,321.5c15.6,2.1,20.7,10.8,15.5,26c-3.5,15.5-13,23.7-28.5,24.5c-9.9-6.7-13.1-15.9-9.5-27.5
		C1285.7,333,1293.2,325.3,1304.5,321.5z"/>
</g>
<g>
	<path class="st2" d="M1242.5,365.5c26-0.5,36.8,12.2,32.5,38c-0.6,3.2-1.8,6.2-3.5,9c-1.1-9.1-2.6-18.1-4.5-27
		c-8.5-10.3-19-12.8-31.5-7.5c-2.8,1.8-5.3,4-7.5,6.5c-2.4,4.5-5.1,8.8-8,13c-2.7-8.1-1.4-15.4,4-22
		C1229.2,370.1,1235.4,366.7,1242.5,365.5z"/>
</g>
<g>
	<path class="st6" d="M1398.5,368.5c1.5,12,2.2,24.1,2,36.5c0,8.3-0.3,16.5-1,24.5C1399.6,409.2,1399.3,388.8,1398.5,368.5z"/>
</g>
<g>
	<path class="st3" d="M1449.5,608.5c-1.4,1-3.1,1.7-5,2c-2.7-2.5-5.5-4.8-8.5-7c-5.6,3.8-8.6,9.1-9,16c-8.4-5.1-16.9-5.2-25.5-0.5
		c-2.7,2.6-4.6,5.8-5.5,9.5c-0.2,4.4-0.3,8.8-0.5,13c-3.9-1.1-7.9-1.3-12-0.5c-2.7,1.7-4.1,4.2-4,7.5c0.1,2.1,1.1,3.4,3,4
		c5.7,5.5,9.4,12.1,11,20c-0.4,9-4.8,12.1-13,9.5c-4.2-3.1-8.6-5.9-13-8.5c-5.6-2.9-10.6-6.6-15-11c5.1-12.4,10.2-24.7,15.5-37
		c2.7-7.8,1.4-9.1-4-4c-7.1,11.7-12.9,24-17.5,37c-4.9,0.8-9.5,0-14-2.5c-3.2-3.2-6.3-6.3-9.5-9.5c-0.5-2.3-0.7-4.6-0.5-7
		c-2,0.2-4,0-6-0.5c-6.7-4.7-9.9-11.2-9.5-19.5c13.3-17.7,27.5-34.9,42.5-51.5c5-1.4,10-1.2,15,0.5c2,0.1,3.7-0.6,5-2
		c-3.2-4.9-7.9-7.3-14-7c-3.9-39.9-0.8-79.2,9.5-118c1.9-5.6,5.8-8.5,11.5-8.5c3.3,30.5,7.1,61,11.5,91.5c2.2,12.5,5.2,24.9,9,37
		c5,9,11.5,16.8,19.5,23.5C1427.6,592.9,1438.6,600.7,1449.5,608.5z"/>
</g>
<g>
	<path class="st2" d="M1232.5,445.5c3.7-0.2,7.3,0,11,0.5c12.7,8.8,19.5,21,20.5,36.5c1.1,12.4-0.6,24.4-5,36
		c-4.5,6.8-10.8,10.8-19,12c-6.7-1.4-11.7-5-15-11c-11.2-21.9-11.2-43.9,0-66C1227,450.3,1229.5,447.6,1232.5,445.5z"/>
</g>
<g>
	<path class="st7" d="M1234.5,452.5c8.5-0.2,13.8,3.8,16,12c-4.6,0.8-9.3,1.5-14,2c-2.8,0-5.4-0.5-8-1.5c-1-1-1.2-2.2-0.5-3.5
		C1229.7,458.1,1231.9,455.1,1234.5,452.5z"/>
</g>
<g>
	<path class="st8" d="M1045.5,536.5c3.9-0.3,7.5,0,11,1c-8-0.2-16,0.2-24,1c0.8-0.8,1.8-1.3,3-1.5
		C1038.8,536.5,1042.2,536.3,1045.5,536.5z"/>
</g>
<g>
	<path class="st1" d="M1056.5,537.5c5.2-0.1,10.2,0.9,15,3c3.2,2.5,6.9,4.1,11,5c20.1,12.1,31.7,29.7,35,53c0.1,6.4-0.2,12.7-1,19
		c-1.5,7.5-3.8,14.9-7,22c-3.1,3.7-5.7,7.7-8,12c-11.1,10.8-24.1,18.1-39,22c-7.3,0.8-14.6,1.1-22,1c-6.6-0.8-12.9-2.5-19-5
		c-3.5-2.1-7.2-4.1-11-6c-5.2-2.7-9.7-6.4-13.5-11c-3.3-4.9-6.8-9.6-10.5-14c-6.4-14.4-8.7-29.4-7-45c1.4-2,2.1-4.3,2-7
		c0-0.7,0-1.3,0-2c1.6-2,2.6-4.3,3-7c9.5-21.1,25.5-34.1,48-39C1040.5,537.7,1048.5,537.3,1056.5,537.5z"/>
</g>
<g>
	<path class="st9" d="M1071.5,540.5c4.3,0.3,8,2,11,5C1078.4,544.6,1074.7,543,1071.5,540.5z"/>
</g>
<g>
	<path class="st10" d="M1269.5,565.5c-4.1,1.5-8.4,2.4-13,2.5c-5.2,0.2-10.3,0.3-15.5,0.5c-8.4,0.1-16.6-0.5-24.5-2
		C1234.2,568.1,1251.9,567.7,1269.5,565.5z"/>
</g>
<g>
	<path class="st3" d="M1299.5,607.5c-4-4.3-6.6-9.3-8-15c-0.3-3.2,0.4-6.2,2-9c5.4-4.7,11.8-6.2,19-4.5c4.3,1.5,8.6,2.9,13,4
		c-7.6,8.9-14.4,18.4-20.5,28.5C1303.2,610,1301.4,608.7,1299.5,607.5z"/>
</g>
<g>
	<path class="st11" d="M984.5,577.5c-0.4,2.7-1.4,5-3,7C981.6,581.7,982.6,579.3,984.5,577.5z"/>
</g>
<g>
	<path class="st12" d="M981.5,586.5c0.1,2.7-0.6,5-2,7C979.2,590.8,979.8,588.4,981.5,586.5z"/>
</g>
<g>
	<path class="st2" d="M1352.5,593.5c1.3,0,2.7,0,4,0c0.2,1.4,0,2.7-0.5,4c-10.7,13.8-20.7,28.1-30,43c-1.7-1.3-2.8-3-3.5-5
		C1329.6,619.4,1339.6,605.4,1352.5,593.5z"/>
</g>
<g>
	<path class="st1" d="M1488.5,1062.5c-1.3-1.3-2.7-2.7-4-4c-3.4-11.1-6.2-22.4-8.5-34c-2-6.5-6.2-11-12.5-13.5
		c-6.4-0.7-12.7-0.4-19,1c-24.8,5.9-49.5,11.7-74,17.5c-6.4,1.6-6.4,3.1,0,4.5c8.3,7.9,9.1,16.8,2.5,26.5c-2.2,2.2-4.3,4.3-6.5,6.5
		c5.2,3.2,7.8,7.9,8,14c-0.5,7.8-3.5,14.2-9,19.5c-2.5,1.1-4.8,2.4-7,4c9.1,5.5,12.3,13.5,9.5,24c-6.3,15.9-15.8,18.1-28.5,6.5
		c-4.3-4.1-7.5-8.9-9.5-14.5c-17.5,25.3-41.7,39.8-72.5,43.5c-13.6,1.9-27.3,2.7-41,2.5c-57.4-0.9-114.4-6.2-171-16
		c-25.2-6.1-50.5-11.6-76-16.5c-23.8-6.8-44.8-18.4-63-35c-12.3-13.6-23.8-27.8-34.5-42.5c-15.7-28.3-22.7-58.7-21-91
		c6.7-35.6,14.7-71,24-106c8.9-27.8,19.4-54.8,31.5-81c1.2,0.1,2.1,0.7,2.5,2c5.4,17.2,11.4,34.2,18,51c14.5,25.7,32,49.2,52.5,70.5
		c6.5,4.4,12.8,9.1,19,14c19.3,5.3,39,8.5,59,9.5c5.6-1,11.3-1.6,17-2c48.6-5.3,97.2-6.5,146-3.5c13.5,1.3,26.9,3.6,40,7
		c16.3,4.2,31,11.5,44,22c15.3,14.8,26.5,32.3,33.5,52.5c2.7-2.7,5.8-4.5,9.5-5.5c-20.3-62.2-29.4-126-27.5-191.5
		c0.8-24.9,5.8-48.9,15-72c8.5-19.2,22.3-33,41.5-41.5c-5.2-4.7-8.2-10.5-9-17.5c4.4,2.6,8.8,5.4,13,8.5c8.2,2.6,12.6-0.5,13-9.5
		c-1.6-7.9-5.3-14.5-11-20c6.5-2.4,13-2.4,19.5,0c-5.1-18.9,2-26.7,21.5-23.5c4.8,1,9,3.2,12.5,6.5c-1.6-10.1,1.3-18.4,8.5-25
		c1.9-0.3,3.6-1,5-2c8.6-1.1,15.8,1.6,21.5,8c0.8-2.4,1.7-4.7,2.5-7c11.4-10.7,22.6-10.4,33.5,1c2.8,5,4.5,10.3,5,16
		c4-6.6,9.8-9.9,17.5-10c13.6-0.2,22.6,5.9,27,18.5c-2.7,9.4-8.4,16.4-17,21c-3.6,1.9-7.2,3.6-11,5c23.9,25.9,40,56.1,48.5,90.5
		c3.5,25.4,2.9,50.8-2,76c-4.7,24.8-11,49.1-19,73c-12.2,36-25.2,71.6-39,107C1509.1,1026.7,1499.6,1045.1,1488.5,1062.5z"/>
</g>
<g>
	<path class="st2" d="M1444.5,610.5c-7.2,6.6-10.1,14.9-8.5,25c-3.5-3.3-7.7-5.5-12.5-6.5c-19.5-3.2-26.6,4.6-21.5,23.5
		c-6.5-2.4-13-2.4-19.5,0c-1.9-0.6-2.9-1.9-3-4c-0.1-3.3,1.3-5.8,4-7.5c4.1-0.8,8.1-0.6,12,0.5c0.2-4.2,0.3-8.6,0.5-13
		c0.9-3.7,2.8-6.9,5.5-9.5c8.6-4.7,17.1-4.6,25.5,0.5c0.4-6.9,3.4-12.2,9-16C1439,605.7,1441.8,608,1444.5,610.5z"/>
</g>
<g>
	<path class="st13" d="M1117.5,598.5c0.3,0,0.7,0,1,0c0,5,0,10,0,15c-0.7,1.3-1.3,2.7-2,4C1117.3,611.2,1117.6,604.9,1117.5,598.5z"
		/>
</g>
<g>
	<path class="st3" d="M1291.5,592.5c1.4,5.7,4,10.7,8,15c-11.4,3.6-23.1,6.4-35,8.5c-48.9,8.1-97.5,7.3-146-2.5c0-5,0-10,0-15
		c16.8,4.1,33.8,7,51,8.5C1211.4,612,1252.1,607.2,1291.5,592.5z"/>
</g>
<g>
	<path class="st2" d="M986.5,638.5c3.7,4.4,7.2,9.1,10.5,14c3.8,4.6,8.3,8.3,13.5,11c-3.3,37.2-1.5,74.2,5.5,111
		c3.2,19.2,7.2,38.2,12,57c9.5,31.4,19.4,62.8,29.5,94c-20-1-39.7-4.2-59-9.5c-6.2-4.9-12.5-9.6-19-14c-20.5-21.3-38-44.8-52.5-70.5
		c-6.6-16.8-12.6-33.8-18-51c-0.4-1.3-1.2-1.9-2.5-2c-2.7-9-5.3-18-8-27c-1.3-3.6-1.8-7.3-1.5-11C926.3,706,956.1,672,986.5,638.5z"
		/>
</g>
<g>
	<path class="st14" d="M1062.5,673.5c-0.8,0.8-1.8,1.3-3,1.5c-6.5,0.8-12.8,0.7-19-0.5C1047.9,674.6,1055.2,674.3,1062.5,673.5z"/>
</g>
<g>
	<path class="st3" d="M1109.5,639.5c35.2,44.3,75.2,83.8,120,118.5c9.6,7,19.9,12.6,31,17c2,1.3,3.2,3.2,3.5,5.5
		c0.7,3.7,0.7,7.3,0,11c-3.2,1.2-6.3,1.1-9.5-0.5c-16.6-8.1-31.6-18.4-45-31c-15.4-14.4-31-28.4-47-42
		c-21.4-20.1-40.6-41.9-57.5-65.5c-0.9-1.9-2.1-2.2-3.5-1C1103.8,647.2,1106.4,643.2,1109.5,639.5z"/>
</g>
<g>
	<path class="st3" d="M1010.5,663.5c3.8,1.9,7.5,3.9,11,6c-3.1,44.2,0.4,87.9,10.5,131c11.7,41.9,25.9,82.9,42.5,123
		c-5.7,0.4-11.4,1-17,2c-10.1-31.2-20-62.6-29.5-94c-4.8-18.8-8.8-37.8-12-57C1009,737.7,1007.2,700.7,1010.5,663.5z"/>
</g>
<g>
	<path class="st15" d="M1484.5,1058.5c0.1,1-0.2,1.8-1,2.5c3.6,14.1,6.9,28.3,10,42.5c5.3,12.3,2.3,21.6-9,28
		c-6.7-22.5-13.8-44.8-21.5-67c-2.2-1.4-4.1-0.9-5.5,1.5c7.2,22.7,13.9,45.5,20,68.5c0.2,1.9-0.5,3.4-2,4.5
		c-6.8,4.2-13.8,4.7-21,1.5c-3.5-17.7-8.3-35-14.5-52c-1-3.4-3-4.4-6-3c-0.7,2.7-0.7,5.3,0,8c3.3,14.4,6.8,28.7,10.5,43
		c-2.9,2.2-6.2,3.2-10,3c-16.6-1.6-33.3-2.5-50-2.5c-2.9-5.1-2.3-9.8,2-14c9.1-5.9,19.1-9.4,30-10.5c-2.3-5.5-3.9-11.1-5-17
		c-9.2,6.8-19.6,9.8-31,9c9.9-9,11.7-19.3,5.5-31c-2.3-2.5-4.5-5-6.5-7.5c12.7-16.1,9.7-28.3-9-36.5c24.5-5.8,49.2-11.6,74-17.5
		c6.3-1.4,12.6-1.7,19-1c6.3,2.5,10.5,7,12.5,13.5C1478.3,1036.1,1481.1,1047.4,1484.5,1058.5z"/>
</g>
<g>
	<path class="st2" d="M1370.5,1029.5c18.7,8.2,21.7,20.4,9,36.5c2,2.5,4.2,5,6.5,7.5c6.2,11.7,4.4,22-5.5,31c-5.4-0.3-10.4-1.7-15-4
		c5.5-5.2,8.5-11.8,9-19.5c-0.2-6.1-2.8-10.8-8-14c2.2-2.2,4.3-4.3,6.5-6.5c6.6-9.7,5.8-18.6-2.5-26.5
		C1364.1,1032.6,1364.1,1031.1,1370.5,1029.5z"/>
</g>
<g>
	<path class="st2" d="M1484.5,1058.5c1.3,1.3,2.7,2.7,4,4c-0.2,1,0.2,1.7,1,2c4.1,13.2,7.7,26.6,11,40c-2.4,0.1-4.7-0.3-7-1
		c-3.1-14.2-6.4-28.4-10-42.5C1484.2,1060.3,1484.6,1059.5,1484.5,1058.5z"/>
</g>
<g>
	<path class="st2" d="M1484.5,1131.5c-0.6-0.1-1.1-0.4-1.5-1c-0.7,2.9-2.5,4.2-5.5,4c-6.1-23-12.8-45.8-20-68.5
		c1.4-2.4,3.3-2.9,5.5-1.5C1470.7,1086.7,1477.8,1109,1484.5,1131.5z"/>
</g>
<g>
	<path class="st16" d="M1489.5,1064.5c7.4,5.1,15.8,7.6,25,7.5c2.3,0.3,4.2,1.5,5.5,3.5c1,14.7-5.5,24.4-19.5,29
		C1497.2,1091.1,1493.6,1077.7,1489.5,1064.5z"/>
</g>
<g>
	<path class="st2" d="M1454.5,1140.5c-4.2,0.3-7.5-1.1-10-4c-3.7-14.3-7.2-28.6-10.5-43c-0.7-2.7-0.7-5.3,0-8c3-1.4,5-0.4,6,3
		C1446.2,1105.5,1451,1122.8,1454.5,1140.5z"/>
</g>
<g>
	<path class="st2" d="M1045.5,1150.5c56.6,9.8,113.6,15.1,171,16c-28.1,24.9-56.1,50.1-84,75.5c-9,7.2-18.3,13.8-28,20
		c-4.6,1.3-8.4,0.1-11.5-3.5C1074.9,1223.5,1059.1,1187.5,1045.5,1150.5z"/>
</g>
<g>
	<g>
		<path class="st17" d="M1004.7,571.1c2.4,0,4.4,0.9,6,2.6c3.6,4.8,7.2,9.5,10.8,14.3c3.5-4.7,7-9.3,10.5-14
			c1.6-1.9,3.7-2.9,6.2-2.9c5.7,0.1,11.4,0.1,17.1,0c1.5,0,3,0.3,4.4,1c-1.3,0-2.6,0.1-3.9,0.4c-1.2,0.3-2.3,0.9-3.2,1.7
			c-0.8,0.7-1.5,1.4-2.2,2.2c-1.2,1.3-2.3,2.7-3.4,4.1c-2.2,3.1-4.5,6.2-6.8,9.3c-3.6,4.7-7.1,9.3-10.7,14c0,4.5,0,9.1-0.1,13.6
			c-0.5,3.2-2.2,5.4-5.2,6.6c-0.5,0.2-0.9,0.3-1.4,0.4c-3,0.1-6,0.1-9.1,0.1c0-6.9,0-13.7,0-20.6c-5.1-6.7-10.2-13.5-15.3-20.2
			c-1.5-2.4-1.8-4.9-0.8-7.6C999,572.9,1001.4,571.3,1004.7,571.1z"/>
	</g>
	<g>
		<path class="st18" d="M1091.5,571.1c2.7,0,5.3,0,8,0c0,15.5,0,31,0,46.5c-0.5,3-2.1,5.1-4.9,6.3c-3.4,1.1-6.4,0.4-8.9-2.2
			c-1.1-1.3-1.7-2.8-1.8-4.4c0-7.1,0-14.3-0.1-21.4c-3.5,4-6.9,8.1-10.4,12.1c-3.5-4-6.9-8-10.4-12.1c0,7.5,0,15-0.1,22.4
			c-0.2,3.2-2,5.2-5.2,5.8c-0.4,0.1-0.9,0.1-1.3,0.2c-3.1,0-6.1,0-9.2,0c0-14.2,0-28.3,0-42.5c1.6-2.1,3.3-4.1,5.2-6
			c0.8-0.7,1.7-1.4,2.7-1.8c0.9-0.3,1.8-0.5,2.7-0.5c1.3,0,2.6,0,3.8,0.1c3.9,4.6,7.8,9.2,11.7,13.9c3.9-4.7,7.8-9.3,11.7-14
			C1087,571.9,1089.1,571.1,1091.5,571.1z"/>
	</g>
	<g>
		<path class="st19" d="M1024.3,628.5c0.8,0,1.3,0.5,1.4,1.3c-0.1,0.8-0.5,1.2-1.3,1.3c-1-0.2-1.4-0.8-1.1-1.8
			C1023.4,628.8,1023.8,628.5,1024.3,628.5z"/>
	</g>
	<g>
		<path class="st20" d="M1087.8,628.5c1,0.1,1.4,0.6,1.3,1.6c-0.3,0.8-0.9,1.1-1.7,0.9c-0.6-0.4-0.9-0.9-0.7-1.6
			C1086.9,628.8,1087.3,628.5,1087.8,628.5z"/>
	</g>
	<g>
		<path class="st21" d="M1098.2,628.5c1,0.1,1.4,0.7,1.3,1.7c-0.3,0.7-0.9,1-1.7,0.7c-0.6-0.3-0.9-0.8-0.7-1.5
			C1097.3,628.9,1097.6,628.5,1098.2,628.5z"/>
	</g>
	<g>
		<path class="st22" d="M996.9,629c0.8-0.1,1.5-0.1,2.3,0c0.8,1.9,1.7,3.8,2.5,5.7c0.9-1.9,1.7-3.8,2.6-5.7c0.7-0.1,1.5-0.1,2.2,0
			c-1.2,2.6-2.5,5.1-3.7,7.7c0,1.6,0,3.3,0,4.9c-0.7,0-1.3,0-2,0c0-1.6,0-3.3,0-4.9C999.5,634.1,998.2,631.6,996.9,629z"/>
	</g>
	<g>
		<path class="st23" d="M1046.4,629c0.7,0,1.4,0,2.1,0.1c1,2.6,2.1,5.1,3.1,7.7c1.1-2.6,2.1-5.1,3.1-7.7c0.7,0,1.3,0,2,0
			c0,4.2,0,8.5,0,12.7c-0.6,0-1.3,0-1.9,0c0-2.9,0-5.8,0-8.7c-0.9,2.2-1.8,4.5-2.7,6.7c-0.3,0-0.7,0-1,0c-0.9-2.2-1.8-4.4-2.7-6.5
			c0,2.9,0,5.7,0,8.6c-0.6,0-1.3,0-1.9,0C1046.4,637.4,1046.4,633.2,1046.4,629z"/>
	</g>
	<g>
		<path class="st23" d="M1082.7,629c0.6,0,1.3,0,1.9,0c0,4.2,0,8.5,0,12.7c-0.6,0-1.1,0-1.7,0c0-0.3-0.1-0.6-0.1-0.9
			c-0.8,1-1.9,1.3-3.1,1.1c-1.6-0.3-2.5-1.3-2.6-2.9c0-1.2,0-2.5,0-3.7c0.3-2.2,1.5-3.2,3.7-3c0.7,0.1,1.3,0.4,1.8,0.9
			C1082.7,631.7,1082.7,630.3,1082.7,629z M1080.6,633.8c1.2,0,1.9,0.5,2.1,1.7c0.1,1.1,0,2.2-0.1,3.2c-0.4,1.1-1.1,1.5-2.2,1.3
			c-0.7-0.2-1.2-0.7-1.3-1.4c-0.1-1.2,0-2.4,0.1-3.5C1079.4,634.4,1079.9,634,1080.6,633.8z"/>
	</g>
	<g>
		<path class="st24" d="M1017.3,630c0.6,0,1.3,0,1.9,0c0,0.8,0,1.5,0,2.3c0.9,0,1.7,0,2.6,0c0,0.5,0,1,0,1.5c-0.9,0-1.7,0-2.6,0
			c0,1.9,0,3.8,0.1,5.7c0.1,0.3,0.4,0.5,0.7,0.6c0.5,0,1,0,1.5-0.1c0.1,0.5,0.1,1,0.2,1.4c0,0,0,0.1-0.1,0.1
			c-0.9,0.2-1.9,0.3-2.8,0.1c-0.9-0.3-1.4-0.9-1.6-1.8c0-2,0-4.1,0-6.1c-0.5,0-1,0-1.5,0c0-0.5,0-1,0-1.5c0.5,0,1,0,1.5,0
			C1017.3,631.6,1017.3,630.8,1017.3,630z"/>
	</g>
	<g>
		<path class="st24" d="M1010.3,632.1c1-0.1,1.9,0.1,2.8,0.5c0.9,0.6,1.5,1.5,1.6,2.6c0,2.2,0,4.3,0,6.5c-0.5,0-1,0-1.5,0
			c-0.1-0.2-0.1-0.5-0.1-0.7c-0.7,0.7-1.5,1-2.5,0.9c-1.4,0.1-2.4-0.5-3-1.8c-0.5-2.1,0.3-3.5,2.4-4c0.7-0.1,1.4,0,2.1,0.2
			c0.3,0.1,0.5,0.3,0.8,0.5c0.1-2.4-0.9-3.3-3.3-2.8c-0.4,0.1-0.8,0.2-1.1,0.4c-0.2-0.5-0.4-1-0.5-1.5c0.2-0.2,0.5-0.3,0.7-0.4
			C1009.1,632.3,1009.7,632.2,1010.3,632.1z M1010.4,637.4c0.9-0.2,1.7,0.1,2.2,0.8c0.3,1.2-0.1,1.9-1.3,2.2c-0.8,0.1-1.5-0.1-2-0.7
			C1008.9,638.6,1009.3,637.8,1010.4,637.4z"/>
	</g>
	<g>
		<path class="st25" d="M1031.4,632.1c1-0.1,1.9,0.2,2.6,0.9c0.1,0.2,0.3,0.4,0.4,0.6c0.7-1.2,1.7-1.7,3.1-1.6
			c1.1,0.1,1.8,0.7,2.2,1.7c0.1,0.3,0.2,0.7,0.2,1c0,2.3,0,4.6,0,6.8c-0.6,0-1.3,0-1.9,0c0-2.2,0-4.3-0.1-6.5
			c-0.3-1.2-1.1-1.6-2.2-1.2c-0.5,0.2-0.8,0.6-0.9,1.1c-0.1,2.2-0.1,4.4-0.1,6.5c-0.6,0-1.3,0-1.9,0c0-2.2,0-4.4-0.1-6.5
			c-0.3-1.1-0.9-1.5-2-1.2c-0.6,0.2-0.9,0.6-1.1,1.2c-0.1,2.2-0.1,4.4-0.1,6.5c-0.6,0-1.3,0-1.9,0c0-3.1,0-6.2,0-9.4
			c0.5,0,1.1,0,1.6,0c0,0.4,0.1,0.7,0.1,1.1C1029.8,632.7,1030.5,632.3,1031.4,632.1z"/>
	</g>
	<g>
		<path class="st26" d="M1061.6,632.1c1.1-0.1,2.2,0.1,3.1,0.7c0.7,0.6,1.1,1.4,1.2,2.3c0,2.2,0,4.3,0,6.5c-0.5,0-1,0-1.5,0
			c-0.1-0.2-0.1-0.5-0.1-0.7c-0.7,0.7-1.5,1-2.5,0.9c-1.9,0-3-0.9-3.2-2.9c0.1-1.6,1-2.6,2.6-2.9c1-0.2,2,0,2.9,0.6
			c0.1-0.6,0-1.1-0.1-1.7c-0.4-0.8-1.1-1.2-2-1.2c-0.8,0-1.5,0.2-2.2,0.6c-0.2-0.4-0.4-0.9-0.5-1.4c0-0.1,0-0.2,0-0.2
			c0.3-0.2,0.6-0.3,0.9-0.4C1060.6,632.3,1061.1,632.2,1061.6,632.1z M1061.8,637.4c0.8-0.1,1.5,0.1,2.1,0.6
			c0.5,1.1,0.2,1.8-0.9,2.3c-0.6,0.2-1.3,0.1-1.8-0.2c-0.6-0.5-0.8-1.1-0.5-1.9C1060.9,637.8,1061.3,637.6,1061.8,637.4z"/>
	</g>
	<g>
		<path class="st27" d="M1071.8,632.1c1.4-0.2,2.5,0.4,3.2,1.6c0.2,0.4,0.3,0.8,0.3,1.3c0,2.2,0,4.4,0,6.6c-0.6,0-1.3,0-1.9,0
			c0-2.2,0-4.4-0.1-6.5c-0.3-1.1-1-1.5-2.2-1.2c-0.6,0.2-1,0.7-1.1,1.3c-0.1,2.1-0.1,4.3-0.1,6.4c-0.6,0-1.3,0-1.9,0
			c0-3.1,0-6.2,0-9.4c0.6,0,1.1,0,1.6,0.1c0,0.4,0.1,0.7,0.1,1.1C1070.2,632.7,1070.9,632.3,1071.8,632.1z"/>
	</g>
	<g>
		<path class="st25" d="M1095.4,632.1c0.2,0,0.4,0,0.5,0c0,0.6,0,1.3,0,1.9c-0.6,0-1.2,0-1.8,0.2c-0.8,0.5-1.2,1.2-1.2,2.2
			c0,1.7,0,3.5,0,5.2c-0.6,0-1.3,0-1.9,0c0-3.1,0-6.2,0-9.4c0.6,0,1.1,0,1.7,0c0,0.5,0,1,0.1,1.5
			C1093.4,632.8,1094.3,632.2,1095.4,632.1z"/>
	</g>
	<g>
		<path class="st28" d="M1023.4,632.3c0.6,0,1.3,0,1.9,0c0,3.1,0,6.2,0,9.4c-0.6,0-1.3,0-1.9,0
			C1023.4,638.6,1023.4,635.4,1023.4,632.3z"/>
	</g>
	<g>
		<path class="st29" d="M1086.9,632.3c0.6,0,1.3,0,1.9,0c0,3.1,0,6.2,0,9.4c-0.6,0-1.3,0-1.9,0
			C1086.9,638.6,1086.9,635.4,1086.9,632.3z"/>
	</g>
	<g>
		<path class="st29" d="M1097.3,632.3c0.6,0,1.3,0,1.9,0c0,3.1,0,6.2,0,9.4c-0.6,0-1.3,0-1.9,0
			C1097.3,638.6,1097.3,635.4,1097.3,632.3z"/>
	</g>
</g>
<path class="st30" d="M1287.3,582.8c0,0,11.3,26.5,17.7,28.7c6.5,2.1-5.5,10-5.5,10s-18.8-16.7-18.9-40.5"/>
</svg>
