<?xml version="1.0" encoding="utf-8"?>
<!-- Generator: Adobe Illustrator 24.0.1, SVG Export Plug-In . SVG Version: 6.00 Build 0)  -->
<svg version="1.1" id="Layer_1" xmlns="http://www.w3.org/2000/svg" xmlns:xlink="http://www.w3.org/1999/xlink" x="0px" y="0px"
	 viewBox="0 0 2362 1328" style="enable-background:new 0 0 2362 1328;" xml:space="preserve">
<style type="text/css">
	.st0{fill-rule:evenodd;clip-rule:evenodd;fill:#EF6036;}
	.st1{fill-rule:evenodd;clip-rule:evenodd;fill:#F9D2B9;}
	.st2{fill-rule:evenodd;clip-rule:evenodd;fill:#444345;}
	.st3{fill-rule:evenodd;clip-rule:evenodd;fill:#434245;}
	.st4{fill-rule:evenodd;clip-rule:evenodd;fill:#44329B;}
	.st5{fill-rule:evenodd;clip-rule:evenodd;fill:#FEFEFE;}
	.st6{fill-rule:evenodd;clip-rule:evenodd;fill:#2E3192;}
	.st7{fill-rule:evenodd;clip-rule:evenodd;fill:#C3BEDF;}
	.st8{fill-rule:evenodd;clip-rule:evenodd;fill:#523FA2;}
	.st9{opacity:0.996;fill-rule:evenodd;clip-rule:evenodd;fill:#FEFFFE;enable-background:new    ;}
	.st10{opacity:0.997;fill-rule:evenodd;clip-rule:evenodd;fill:#FEFFFE;enable-background:new    ;}
	.st11{opacity:0.955;fill-rule:evenodd;clip-rule:evenodd;fill:#FEFFFE;enable-background:new    ;}
	.st12{opacity:0.957;fill-rule:evenodd;clip-rule:evenodd;fill:#FEFFFE;enable-background:new    ;}
	.st13{opacity:0.959;fill-rule:evenodd;clip-rule:evenodd;fill:#FEFFFE;enable-background:new    ;}
	.st14{opacity:0.972;fill-rule:evenodd;clip-rule:evenodd;fill:#FEFFFE;enable-background:new    ;}
	.st15{opacity:0.968;fill-rule:evenodd;clip-rule:evenodd;fill:#FEFFFE;enable-background:new    ;}
	.st16{opacity:0.973;fill-rule:evenodd;clip-rule:evenodd;fill:#FEFFFE;enable-background:new    ;}
	.st17{opacity:0.978;fill-rule:evenodd;clip-rule:evenodd;fill:#FEFFFE;enable-background:new    ;}
	.st18{opacity:0.97;fill-rule:evenodd;clip-rule:evenodd;fill:#FEFFFE;enable-background:new    ;}
	.st19{opacity:0.976;fill-rule:evenodd;clip-rule:evenodd;fill:#FEFFFE;enable-background:new    ;}
	.st20{opacity:0.988;fill-rule:evenodd;clip-rule:evenodd;fill:#FEFFFE;enable-background:new    ;}
	.st21{opacity:0.98;fill-rule:evenodd;clip-rule:evenodd;fill:#FEFFFE;enable-background:new    ;}
</style>
<g>
	<path class="st0" d="M1545.5,879.5c-14.7,17.3-29.8,34.3-45.5,51c-77,77.5-156.9,151.5-239.5,222c-40.6,31.3-81.6,62.1-123,92.5
		c-10.5,7.3-21.7,13.5-33.5,18.5c-6.1-2.4-10.7-6.4-14-12c-17.3-35.5-34.8-70.8-52.5-106c6.3-4.1,11.5-9.5,15.5-16
		c11.3-39.6,15.3-79.9,12-121c-3.9-48.5-12.2-96.1-25-143c-9.3-34.9-25.6-65.9-49-93c-9.2-9.2-19.1-17.7-29.5-25.5
		c7.6,0.5,14.6-1.2,21-5c4.2-5,7.6-10.5,10-16.5c18.3,3.8,36,1.8,53-6c5.8,21,13.3,41.3,22.5,61c24.1,48.5,48.4,96.8,73,145
		c21.5,37.9,44.7,74.8,69.5,110.5c2.7,1.9,5.7,2.7,9,2.5c-0.9-7.4-3.9-13.9-9-19.5c0.3-0.3,0.7-0.7,1-1
		c-10.3-18-21.8-35.1-34.5-51.5c-35.9-63.2-69.2-127.8-100-194c-8.2-19.4-15.7-39.1-22.5-59c17.4-12.9,27.1-30.2,29-52
		c10.8,6.6,22.2,12.4,34,17.5c36,16,73.4,28,112,36c42.2,8.2,84.2,7.2,126-3c21.8-6.7,42.1-16.4,61-29c2.1-1.7,2.4-3.7,1-6
		c-2.9-1.3-5.9-1.7-9-1c-43.7,23.9-90.3,34.2-140,31c-64.2-4.8-124.2-23.2-180-55c22.7-6.1,45.7-11.1,69-15c41.3-9.4,81-23.4,119-42
		c27.4-15.7,53.4-33.4,78-53c7.9-7.8,14.9-16.3,21-25.5c-1.5-2.8-3.8-4.5-7-5c-42.6,43-92.6,74.5-150,94.5
		c-44.4,15.3-89.7,26.8-136,34.5c-14.6-39.1-43-56.9-85-53.5c-5.7,1.4-11.4,2.9-17,4.5c-1-3.3-2-6.7-3-10c1-3.9,3.4-6.7,7-8.5
		c8.3-3.1,16.3-6.8,24-11c1.5-2.2,2.2-4.7,2-7.5c-0.6-5.4-1.5-10.7-2.5-16c-13.7-33.9-25.1-68.5-34-104c-17-93.2,6.3-174.5,70-244
		c20.2-22.2,42.7-41.3,67.5-57.5c33.3-18.6,69-25.9,107-22c31.2,3.8,60.5,13.1,88,28c6.8,6.2,13.7,12.3,20.5,18.5
		c40.3,52.6,65.3,112,75,178c4.9,64,9.5,128,14,192c1.6,18.1,5.3,35.8,11,53c1.9,3.6,4.3,6.9,7,10c31,69.4,68.7,134.8,113,196
		c7.2,13.7,14.8,27,23,40c2.8,5.4,2.8,10.8,0,16C1563.2,855.8,1555,868.1,1545.5,879.5z"/>
</g>
<g>
	<path class="st1" d="M1158.5,203.5c24.4,5.3,47,14.8,68,28.5c45.4,30.7,79.2,71.2,101.5,121.5c12.1,26.2,21,53.6,26.5,82
		c-6,25.6-17.5,48.3-34.5,68c-17.7,21.4-38.2,39.6-61.5,54.5c-36.2,17.1-73.5,20.1-112,9c-40.2-12.7-74.4-34.5-102.5-65.5
		c-3-4.3-6-8.7-9-13c-6.1-44.5-2.4-88.1,11-131c11.8-41.2,31.1-78.2,58-111C1119.5,228.5,1137.7,214.1,1158.5,203.5z"/>
</g>
<g>
	<path class="st2" d="M1238.5,264.5c12.5-1,22.6,3.3,30.5,13c1.4,2.5,1.8,5.2,1,8c-1.7,1.1-3.6,1.2-5.5,0.5c-4.9-3.3-9.6-6.9-14-11
		c-5.8-3.2-11.5-2.9-17,1c-3.5,4.2-7.8,6.6-13,7c-1.3-3.2-0.7-6,2-8.5C1227.3,270.1,1232.6,266.8,1238.5,264.5z"/>
</g>
<g>
	<path class="st2" d="M1116.5,273.5c12.9-1.6,24.1,2.1,33.5,11c0.8,1.9,1.3,3.9,1.5,6c-1.7,0.2-3.4,0-5-0.5c-5.1-3.2-10.4-5.9-16-8
		c-12.7-2.5-22.4,1.9-29,13c-2.9,0.8-5.3,0-7-2.5C1098.8,282.5,1106.1,276.2,1116.5,273.5z"/>
</g>
<g>
	<path class="st3" d="M1245.5,304.5c10.5,0,16.7,5.3,18.5,16c4.4,14.6,1.2,27.1-9.5,37.5c-8.7,3-16.6,1.5-23.5-4.5
		c-1.4-1.8-2.4-3.8-3-6c-3.7-11-3-21.7,2-32C1234.5,310.7,1239.6,307,1245.5,304.5z"/>
</g>
<g>
	<path class="st3" d="M1126.5,320.5c7.1-1.4,12.6,1,16.5,7c7.8,14.1,7.3,27.8-1.5,41c-10.3,7.3-19.8,6.3-28.5-3
		c-7.2-15.8-4.7-30,7.5-42.5C1122.7,322.4,1124.7,321.6,1126.5,320.5z"/>
</g>
<g>
	<path class="st0" d="M1180.5,369.5c17-0.9,29.5,6.1,37.5,21c1.8,4.6,1.9,9.3,0.5,14c-2.2,0.1-4.2-0.4-6-1.5
		c-3.9-6.9-8.9-12.9-15-18c-14.7-7.9-25.2-4-31.5,11.5c-1.4,5.6-2.8,11.3-4,17c-4.1,1.5-7,0.2-8.5-4c1.4-12.9,6.4-24,15-33.5
		C1172.4,373.5,1176.4,371.4,1180.5,369.5z"/>
</g>
<g>
	<path class="st0" d="M1246.5,423.5c2.1,0,3.9,0.6,5.5,2c8.7,23.3,8.7,46.6,0,70c-11.3,23.1-29.8,32.6-55.5,28.5
		c-21.4-4.4-36.6-16.6-45.5-36.5c-4.6-10.5-7-21.5-7-33c5.8-3.3,12-5.8,18.5-7.5C1190.8,439.8,1218.8,431.9,1246.5,423.5z"/>
</g>
<g>
	<path class="st4" d="M940.5,535.5c-3,2.4-5.7,5-8,8c0.2-32.7,0-65.3-0.5-98c-0.4-0.9-0.9-1.8-1.5-2.5c-30.4-1.2-60.9-1.7-91.5-1.5
		c-29.8,0.3-59.7,0.7-89.5,1c-0.3,0.8-0.8,1.5-1.5,2c-0.5,49.3-0.7,98.7-0.5,148c-2-1.3-3.7-3-5-5c-0.2-52.3,0-104.7,0.5-157
		c0.8-1.5,2-2.7,3.5-3.5c62.7-0.7,125.3-0.7,188,0c2.6,0.7,4.4,2.2,5.5,4.5C940.5,466.2,940.7,500.8,940.5,535.5z"/>
</g>
<g>
	<path class="st5" d="M1228.5,436.5c1,0,2,0,3,0c-3.2,22.5-16.2,34.1-39,35c-7.5-0.5-14.5-2.6-21-6.5c-4.2-3.6-8.5-6.9-13-10
		C1182.1,449.4,1205.4,443.3,1228.5,436.5z"/>
</g>
<g>
	<path class="st5" d="M932.5,543.5c-6.8,16.4-8.7,33.4-5.5,51c1.4,6.4,2.9,12.7,4.5,19c0,49.3,0,98.7,0,148c-0.2,2.8-1.6,4.9-4,6.5
		c-58.3,0.7-116.7,0.7-175,0c-1.8-0.8-3.3-2-4.5-3.5c-0.5-16-0.7-32-0.5-48c9,0.8,14.5-3.2,16.5-12c3.2-17.9-2.3-32.3-16.5-43
		c0-7.7,0-15.3,0-23c7.4-4.3,10.7-10.8,10-19.5c0.1-10.2-3.2-19-10-26.5c-0.2-49.3,0-98.7,0.5-148c0.7-0.5,1.2-1.2,1.5-2
		c29.8-0.3,59.7-0.7,89.5-1c30.6-0.2,61.1,0.3,91.5,1.5c0.6,0.8,1.1,1.6,1.5,2.5C932.5,478.2,932.7,510.8,932.5,543.5z"/>
	
		<image style="overflow:visible;" width="720" height="1600" xlink:href="../WhatsApp Image 2023-09-21 at 10.19.11 copy.jpg"  transform="matrix(0.258 0 0 0.258 745.2505 425.4087)">
	</image>
	<rect x="706.6" y="787.5" class="st5" width="263" height="67.7"/>
	<rect x="685.5" y="365.1" class="st5" width="263" height="67.7"/>
</g>
<g>
	<path class="st1" d="M721.5,509.5c7.1,0.6,13.6,3,19.5,7c0.7,17.3,0.7,34.7,0,52c-8.3-6.3-15.9-13.3-23-21c-7.6-8.8-10.3-18.8-8-30
		C712.8,513.2,716.6,510.5,721.5,509.5z"/>
</g>
<g>
	<path class="st1" d="M977.5,581.5c1,3.3,2,6.7,3,10c10.3,21,10.5,42,0.5,63c-9.9,21.8-22.9,41.5-39,59c-1.6-2.5-1.8-5-0.5-7.5
		c-0.8-23.8-1.3-47.6-1.5-71.5c-2.5-5.9-4.6-11.9-6.5-18c-0.4-1.2-1.1-2.2-2-3c-1.6-6.3-3.1-12.6-4.5-19c-3.2-17.6-1.3-34.6,5.5-51
		c2.3-3,5-5.6,8-8c6.6-3.3,12.1-2,16.5,4C964.3,553.4,971.2,567.4,977.5,581.5z"/>
</g>
<g>
	<path class="st1" d="M742.5,587.5c1.3,2,3,3.7,5,5c6.8,7.5,10.1,16.3,10,26.5c0.7,8.7-2.6,15.2-10,19.5c-2,0.7-4,1.3-6,2
		c-21.5-3.4-33.9-15.9-37-37.5c-0.1-9.2,3.9-15.9,12-20C726,580,734.7,581.5,742.5,587.5z"/>
</g>
<g>
	<path class="st6" d="M1082.5,640.5c0.7,7,1.1,14,1,21c-1.9,21.8-11.6,39.1-29,52c-3.2,1.8-6.2,3.8-9,6c-17,7.8-34.7,9.8-53,6
		c-2.4,6-5.8,11.5-10,16.5c-6.4,3.8-13.4,5.5-21,5c10.4,7.8,20.3,16.3,29.5,25.5c23.4,27.1,39.7,58.1,49,93
		c12.8,46.9,21.1,94.5,25,143c3.3,41.1-0.7,81.4-12,121c-4,6.5-9.2,11.9-15.5,16c-16,8.6-33,11.4-51,8.5c-19.7-2.4-38.1-8.7-55-19
		c-60.6-39.6-113.5-88.1-158.5-145.5c-35.2-51.5-43.5-107.1-25-167c3-10.3,6.8-20.3,11.5-30c-13.5,3.1-25-0.6-34.5-11
		c-6.8-11.5-7.2-23.2-1-35c4.6-5.3,10.3-9,17-11c0.5-7,0.7-14,0.5-21c1.9,0.9,3.9,1.5,6,2c-0.2,16,0,32,0.5,48
		c1.2,1.5,2.7,2.7,4.5,3.5c58.3,0.7,116.7,0.7,175,0c2.4-1.6,3.8-3.7,4-6.5c0.7-48.3,1.3-96.7,2-145c1.9,6.1,4,12.1,6.5,18
		c0.2,23.9,0.7,47.7,1.5,71.5c-1.3,2.5-1.1,5,0.5,7.5c16.1-17.5,29.1-37.2,39-59c10-21,9.8-42-0.5-63c5.6-1.6,11.3-3.1,17-4.5
		C1039.5,583.6,1067.9,601.4,1082.5,640.5z"/>
</g>
<g>
	<path class="st7" d="M931.5,613.5c0.9,0.8,1.6,1.8,2,3c-0.7,48.3-1.3,96.7-2,145C931.5,712.2,931.5,662.8,931.5,613.5z"/>
</g>
<g>
	<path class="st8" d="M747.5,638.5c0,7.7,0,15.3,0,23c-2-0.3-4-0.7-6-1c0-6.7,0-13.3,0-20C743.5,639.8,745.5,639.2,747.5,638.5z"/>
</g>
<g>
	<path class="st1" d="M741.5,660.5c2,0.3,4,0.7,6,1c14.2,10.7,19.7,25.1,16.5,43c-2,8.8-7.5,12.8-16.5,12c-2.1-0.5-4.1-1.1-6-2
		c-10.1-5.6-17-13.9-20.5-25C715.7,671,722.5,661.3,741.5,660.5z"/>
</g>
<g>
	<path class="st1" d="M1083.5,661.5c0.1-7-0.3-14-1-21c46.3-7.7,91.6-19.2,136-34.5c57.4-20,107.4-51.5,150-94.5
		c3.2,0.5,5.5,2.2,7,5c-6.1,9.2-13.1,17.7-21,25.5c-24.6,19.6-50.6,37.3-78,53c-38,18.6-77.7,32.6-119,42c-23.3,3.9-46.3,8.9-69,15
		c55.8,31.8,115.8,50.2,180,55c49.7,3.2,96.3-7.1,140-31c3.1-0.7,6.1-0.3,9,1c1.4,2.3,1.1,4.3-1,6c-18.9,12.6-39.2,22.3-61,29
		c-41.8,10.2-83.8,11.2-126,3c-38.6-8-76-20-112-36C1105.7,673.9,1094.3,668.1,1083.5,661.5z"/>
</g>
<g>
	<path class="st0" d="M943.5,772.5c2.4-0.5,4.1,0.3,5,2.5c-3,8.4-9,12.5-18,12.5c-0.6-1.8-0.6-3.5,0-5c3.2-2.1,6.5-3.9,10-5.5
		C941.9,775.7,942.9,774.2,943.5,772.5z"/>
</g>
<g>
	<path class="st0" d="M781.5,782.5c44.3,2,88.7,2.5,133,1.5c3,3.1,2.3,5.1-2,6c-20.8,0.3-41.7,0.8-62.5,1.5
		c-19.5-0.7-39-1.2-58.5-1.5c-4.4-0.6-8.7-1.4-13-2.5C779.1,785.5,780.1,783.8,781.5,782.5z"/>
</g>
<g>
	<path class="st1" d="M1054.5,713.5c6.8,19.9,14.3,39.6,22.5,59c30.8,66.2,64.1,130.8,100,194c12.7,16.4,24.2,33.5,34.5,51.5
		c-0.3,0.3-0.7,0.7-1,1c5.1,5.6,8.1,12.1,9,19.5c-3.3,0.2-6.3-0.6-9-2.5c-24.8-35.7-48-72.6-69.5-110.5c-24.6-48.2-48.9-96.5-73-145
		c-9.2-19.7-16.7-40-22.5-61C1048.3,717.3,1051.3,715.3,1054.5,713.5z"/>
</g>
<g>
	<path class="st6" d="M1545.5,879.5c11.5,46.3,16.7,93.3,15.5,141c-0.8,18.6-5.8,35.9-15,52c-3.1,4.1-6.6,8-10.5,11.5
		c-15.9,11.1-32.9,20.5-51,28c-49.5,20.2-100.8,33.2-154,39c-23.3,2.3-46.6,2.8-70,1.5c82.6-70.5,162.5-144.5,239.5-222
		C1515.7,913.8,1530.8,896.8,1545.5,879.5z"/>
</g>
<g>
	<g>
		<path class="st9" d="M960.9,619.2c2.6,0,4.8,0.9,6.5,2.8c3.9,5.2,7.8,10.3,11.7,15.5c3.8-5,7.6-10.1,11.4-15.1
			c1.7-2.1,4-3.1,6.7-3.2c6.1,0.1,12.3,0.1,18.4,0c1.7,0,3.2,0.3,4.7,1.1c-1.4,0-2.9,0.1-4.3,0.4c-1.3,0.4-2.5,1-3.5,1.8
			c-0.8,0.8-1.6,1.5-2.4,2.3c-1.3,1.4-2.5,2.9-3.7,4.4c-2.4,3.4-4.8,6.7-7.3,10c-3.8,5-7.7,10.1-11.5,15.1c0,4.9,0,9.8-0.1,14.7
			c-0.5,3.4-2.4,5.8-5.6,7.1c-0.5,0.2-1,0.3-1.5,0.4c-3.3,0.1-6.5,0.1-9.8,0.1c0-7.4,0-14.9,0-22.3c-5.5-7.3-11-14.6-16.5-21.8
			c-1.7-2.6-1.9-5.3-0.8-8.2C954.8,621.2,957.3,619.5,960.9,619.2z"/>
	</g>
	<g>
		<path class="st10" d="M1054.8,619.2c2.9,0,5.8,0,8.7,0c0,16.8,0,33.5,0,50.3c-0.5,3.3-2.3,5.5-5.3,6.8c-3.7,1.2-6.9,0.4-9.6-2.4
			c-1.2-1.4-1.8-3-2-4.8c0-7.7,0-15.4-0.1-23.1c-3.7,4.4-7.5,8.7-11.2,13.1c-3.8-4.3-7.5-8.7-11.2-13.1c0,8.1,0,16.2-0.1,24.3
			c-0.3,3.5-2.1,5.6-5.6,6.3c-0.5,0.1-0.9,0.2-1.4,0.2c-3.3,0-6.6,0-9.9,0c0-15.3,0-30.6,0-45.9c1.7-2.3,3.6-4.5,5.6-6.5
			c0.9-0.8,1.8-1.5,2.9-2c0.9-0.4,1.9-0.5,2.9-0.6c1.4-0.1,2.8,0,4.1,0.1c4.2,5,8.5,10,12.6,15c4.2-5.1,8.4-10.1,12.6-15.1
			C1049.9,620.1,1052.2,619.2,1054.8,619.2z"/>
	</g>
	<g>
		<path class="st11" d="M982.1,681.3c0.9,0,1.4,0.5,1.5,1.4c-0.1,0.9-0.5,1.3-1.4,1.4c-1.1-0.2-1.5-0.8-1.2-1.9
			C981.2,681.6,981.6,681.3,982.1,681.3z"/>
	</g>
	<g>
		<path class="st12" d="M1050.8,681.3c1,0.1,1.5,0.7,1.4,1.7c-0.3,0.9-1,1.2-1.9,0.9c-0.7-0.4-0.9-1-0.7-1.8
			C1049.8,681.6,1050.2,681.3,1050.8,681.3z"/>
	</g>
	<g>
		<path class="st13" d="M1062,681.3c1.1,0.1,1.6,0.7,1.4,1.8c-0.4,0.8-1,1-1.8,0.8c-0.7-0.3-0.9-0.9-0.8-1.6
			C1061,681.7,1061.4,681.3,1062,681.3z"/>
	</g>
	<g>
		<path class="st14" d="M952.5,681.8c0.8-0.1,1.7-0.1,2.5,0c0.9,2,1.8,4.1,2.7,6.1c0.9-2,1.9-4.1,2.8-6.1c0.8-0.1,1.6-0.1,2.4,0
			c-1.3,2.8-2.7,5.6-4,8.3c0,1.8,0,3.6,0,5.4c-0.7,0-1.4,0-2.2,0c0-1.8,0-3.6,0-5.4C955.3,687.4,953.9,684.6,952.5,681.8z"/>
	</g>
	<g>
		<path class="st15" d="M1006,681.8c0.7,0,1.5,0,2.2,0.1c1.1,2.8,2.2,5.5,3.3,8.3c1.2-2.8,2.3-5.5,3.3-8.3c0.7,0,1.4,0,2.2,0
			c0,4.6,0,9.2,0,13.8c-0.7,0-1.4,0-2.1,0c0-3.1,0-6.3,0-9.4c-1,2.4-1.9,4.8-3,7.2c-0.4,0.1-0.7,0-1.1,0c-1-2.4-1.9-4.7-2.9-7.1
			c0,3.1,0,6.2,0,9.3c-0.7,0-1.4,0-2,0C1006,691,1006,686.4,1006,681.8z"/>
	</g>
	<g>
		<path class="st15" d="M1045.3,681.8c0.7,0,1.4,0,2.1,0c0,4.6,0,9.2,0,13.8c-0.6,0-1.2,0-1.8,0c0-0.3-0.1-0.7-0.1-1
			c-0.9,1-2,1.4-3.4,1.2c-1.7-0.3-2.7-1.4-2.8-3.2c0-1.3,0-2.7,0-4c0.3-2.4,1.7-3.4,4-3.3c0.8,0.1,1.4,0.4,1.9,1
			C1045.3,684.8,1045.3,683.3,1045.3,681.8z M1043,687.1c1.3,0,2.1,0.6,2.3,1.8c0.1,1.2,0,2.3-0.1,3.5c-0.4,1.2-1.2,1.6-2.4,1.4
			c-0.8-0.2-1.3-0.8-1.4-1.6c-0.1-1.3,0-2.6,0.1-3.8C1041.7,687.7,1042.2,687.2,1043,687.1z"/>
	</g>
	<g>
		<path class="st16" d="M974.6,682.9c0.7,0,1.4,0,2,0c0,0.8,0,1.7,0,2.5c0.9,0,1.9,0,2.8,0c0,0.6,0,1.1,0,1.7c-0.9,0-1.9,0-2.8,0
			c0,2,0,4.1,0.1,6.1c0.2,0.4,0.4,0.6,0.8,0.7c0.6,0,1.1,0,1.7-0.1c0.1,0.5,0.2,1,0.3,1.6c0,0.1,0,0.1-0.1,0.2c-1,0.3-2,0.3-3.1,0.2
			c-1-0.3-1.5-1-1.7-1.9c0-2.2,0-4.4,0-6.6c-0.5,0-1.1,0-1.6,0c0-0.6,0-1.1,0-1.7c0.5,0,1.1,0,1.6,0
			C974.6,684.6,974.6,683.8,974.6,682.9z"/>
	</g>
	<g>
		<path class="st16" d="M966.9,685.2c1-0.1,2,0.1,3,0.5c1,0.6,1.6,1.6,1.7,2.8c0,2.3,0,4.7,0,7c-0.6,0-1.1,0-1.7,0
			c-0.1-0.3-0.1-0.5-0.2-0.8c-0.7,0.7-1.6,1.1-2.7,1c-1.5,0.1-2.6-0.5-3.3-1.9c-0.6-2.3,0.3-3.7,2.6-4.3c0.8-0.1,1.5,0,2.3,0.2
			c0.3,0.2,0.6,0.3,0.9,0.5c0.2-2.6-1-3.6-3.5-3c-0.4,0.1-0.8,0.2-1.2,0.5c-0.3-0.5-0.4-1.1-0.5-1.7c0.2-0.2,0.5-0.3,0.8-0.4
			C965.7,685.4,966.3,685.3,966.9,685.2z M967.1,691c1-0.2,1.8,0.1,2.4,0.9c0.4,1.3-0.1,2.1-1.4,2.3c-0.9,0.1-1.6-0.1-2.1-0.8
			C965.5,692.2,965.9,691.4,967.1,691z"/>
	</g>
	<g>
		<path class="st17" d="M989.7,685.2c1.1-0.1,2.1,0.2,2.8,1c0.1,0.2,0.3,0.5,0.4,0.7c0.7-1.3,1.8-1.9,3.3-1.7
			c1.1,0.1,1.9,0.8,2.4,1.8c0.1,0.4,0.2,0.7,0.3,1.1c0,2.5,0,4.9,0,7.4c-0.7,0-1.4,0-2,0c0-2.3,0-4.7-0.1-7
			c-0.3-1.3-1.1-1.7-2.4-1.3c-0.5,0.2-0.9,0.7-1,1.2c-0.1,2.4-0.1,4.7-0.1,7.1c-0.7,0-1.4,0-2.1,0c0-2.4,0-4.7-0.1-7.1
			c-0.3-1.2-1-1.6-2.2-1.3c-0.6,0.2-1,0.7-1.2,1.3c-0.1,2.4-0.1,4.7-0.1,7.1c-0.7,0-1.4,0-2,0c0-3.4,0-6.8,0-10.1c0.6,0,1.2,0,1.8,0
			c0,0.4,0.1,0.8,0.1,1.2C988.1,685.8,988.8,685.3,989.7,685.2z"/>
	</g>
	<g>
		<path class="st18" d="M1022.4,685.2c1.2-0.1,2.3,0.1,3.4,0.8c0.8,0.7,1.2,1.5,1.3,2.5c0,2.3,0,4.7,0,7c-0.6,0-1.1,0-1.7,0
			c-0.1-0.3-0.1-0.5-0.2-0.8c-0.7,0.7-1.6,1.1-2.7,1c-2.1,0-3.3-1-3.5-3.1c0.2-1.7,1.1-2.8,2.8-3.1c1.1-0.2,2.2,0,3.1,0.7
			c0.1-0.6,0-1.2-0.1-1.8c-0.4-0.9-1.2-1.3-2.2-1.3c-0.8,0-1.6,0.2-2.4,0.6c-0.2-0.5-0.4-1-0.5-1.5c0-0.1,0-0.2,0-0.3
			c0.3-0.2,0.6-0.3,1-0.4C1021.3,685.4,1021.9,685.3,1022.4,685.2z M1022.6,691c0.9-0.2,1.6,0.1,2.3,0.7c0.6,1.2,0.2,2-1,2.5
			c-0.7,0.2-1.4,0.1-2-0.3c-0.7-0.5-0.9-1.2-0.5-2C1021.7,691.4,1022.1,691.1,1022.6,691z"/>
	</g>
	<g>
		<path class="st19" d="M1033.5,685.2c1.6-0.2,2.7,0.4,3.4,1.8c0.2,0.5,0.3,0.9,0.3,1.4c0,2.4,0,4.8,0,7.1c-0.7,0-1.4,0-2.1,0
			c0-2.4,0-4.7-0.1-7.1c-0.4-1.2-1.1-1.6-2.3-1.3c-0.7,0.3-1.1,0.7-1.2,1.4c-0.1,2.3-0.1,4.6-0.1,6.9c-0.7,0-1.4,0-2,0
			c0-3.4,0-6.8,0-10.1c0.6,0,1.2,0,1.8,0.1c0.1,0.4,0.1,0.8,0.1,1.1C1031.8,685.8,1032.5,685.4,1033.5,685.2z"/>
	</g>
	<g>
		<path class="st17" d="M1059,685.2c0.2,0,0.4,0,0.6,0c0,0.7,0,1.4,0,2.1c-0.7,0-1.3,0-1.9,0.2c-0.9,0.5-1.3,1.3-1.3,2.3
			c0,1.9,0,3.8,0,5.7c-0.7,0-1.4,0-2,0c0-3.4,0-6.8,0-10.1c0.6,0,1.2,0,1.8,0c0,0.5,0,1.1,0.1,1.6
			C1056.8,685.9,1057.7,685.3,1059,685.2z"/>
	</g>
	<g>
		<path class="st20" d="M981.1,685.4c0.7,0,1.4,0,2.1,0c0,3.4,0,6.8,0,10.1c-0.7,0-1.4,0-2.1,0C981.1,692.2,981.1,688.8,981.1,685.4
			z"/>
	</g>
	<g>
		<path class="st21" d="M1049.8,685.4c0.7,0,1.4,0,2.1,0c0,3.4,0,6.8,0,10.1c-0.7,0-1.4,0-2.1,0
			C1049.8,692.2,1049.8,688.8,1049.8,685.4z"/>
	</g>
	<g>
		<path class="st21" d="M1061.1,685.4c0.7,0,1.4,0,2.1,0c0,3.4,0,6.8,0,10.1c-0.7,0-1.4,0-2.1,0
			C1061.1,692.2,1061.1,688.8,1061.1,685.4z"/>
	</g>
</g>
<g>
	<path class="st4" d="M940.5,535.5c-3,2.4-5.7,5-8,8c0.2-32.7,0-65.3-0.5-98c-0.4-0.9-0.9-1.8-1.5-2.5c-30.4-1.2-60.9-1.7-91.5-1.5
		c-29.8,0.3-59.7,0.7-89.5,1c-0.3,0.8-0.8,1.5-1.5,2c-0.5,49.3-0.7,98.7-0.5,148c-2-1.3-3.7-3-5-5c-0.2-52.3,0-104.7,0.5-157
		c0.8-1.5,2-2.7,3.5-3.5c62.7-0.7,125.3-0.7,188,0c2.6,0.7,4.4,2.2,5.5,4.5C940.5,466.2,940.7,500.8,940.5,535.5z"/>
</g>
<g>
	<path class="st1" d="M977.5,581.5c1,3.3,2,6.7,3,10c10.3,21,10.5,42,0.5,63c-9.9,21.8-22.9,41.5-39,59c-1.6-2.5-1.8-5-0.5-7.5
		c-0.8-23.8-1.3-47.6-1.5-71.5c-2.5-5.9-4.6-11.9-6.5-18c-0.4-1.2-1.1-2.2-2-3c-1.6-6.3-3.1-12.6-4.5-19c-3.2-17.6-1.3-34.6,5.5-51
		c2.3-3,5-5.6,8-8c6.6-3.3,12.1-2,16.5,4C964.3,553.4,971.2,567.4,977.5,581.5z"/>
</g>
</svg>
