<?xml version="1.0" encoding="utf-8"?>
<!-- Generator: Adobe Illustrator 24.0.1, SVG Export Plug-In . SVG Version: 6.00 Build 0)  -->
<svg version="1.1" id="Layer_1" xmlns="http://www.w3.org/2000/svg" xmlns:xlink="http://www.w3.org/1999/xlink" x="0px" y="0px"
	 viewBox="0 0 2362 1328" style="enable-background:new 0 0 2362 1328;" xml:space="preserve">
<style type="text/css">
	.st0{fill-rule:evenodd;clip-rule:evenodd;fill:#434245;}
	.st1{fill-rule:evenodd;clip-rule:evenodd;fill:#F9D2B9;}
	.st2{fill-rule:evenodd;clip-rule:evenodd;fill:#EF6036;}
	.st3{fill-rule:evenodd;clip-rule:evenodd;fill:#444345;}
	.st4{fill-rule:evenodd;clip-rule:evenodd;fill:#484748;}
	.st5{fill-rule:evenodd;clip-rule:evenodd;fill:#494849;}
	.st6{fill-rule:evenodd;clip-rule:evenodd;fill:#454446;}
	.st7{fill-rule:evenodd;clip-rule:evenodd;fill:#FEFEFE;}
	.st8{fill-rule:evenodd;clip-rule:evenodd;fill:#464446;}
	.st9{fill-rule:evenodd;clip-rule:evenodd;fill:#FEFBFB;}
	.st10{fill-rule:evenodd;clip-rule:evenodd;fill:#2E3192;}
	.st11{fill-rule:evenodd;clip-rule:evenodd;fill:#9C5463;}
	.st12{fill-rule:evenodd;clip-rule:evenodd;fill:#6F5FB2;}
	.st13{fill-rule:evenodd;clip-rule:evenodd;fill:#7962A5;}
	.st14{fill-rule:evenodd;clip-rule:evenodd;fill:#965167;}
	.st15{fill-rule:evenodd;clip-rule:evenodd;fill:#72407A;}
	.st16{opacity:0.996;fill-rule:evenodd;clip-rule:evenodd;fill:#FEFFFE;enable-background:new    ;}
	.st17{opacity:0.997;fill-rule:evenodd;clip-rule:evenodd;fill:#FEFFFE;enable-background:new    ;}
	.st18{opacity:0.955;fill-rule:evenodd;clip-rule:evenodd;fill:#FEFFFE;enable-background:new    ;}
	.st19{opacity:0.957;fill-rule:evenodd;clip-rule:evenodd;fill:#FEFFFE;enable-background:new    ;}
	.st20{opacity:0.959;fill-rule:evenodd;clip-rule:evenodd;fill:#FEFFFE;enable-background:new    ;}
	.st21{opacity:0.972;fill-rule:evenodd;clip-rule:evenodd;fill:#FEFFFE;enable-background:new    ;}
	.st22{opacity:0.968;fill-rule:evenodd;clip-rule:evenodd;fill:#FEFFFE;enable-background:new    ;}
	.st23{opacity:0.973;fill-rule:evenodd;clip-rule:evenodd;fill:#FEFFFE;enable-background:new    ;}
	.st24{opacity:0.978;fill-rule:evenodd;clip-rule:evenodd;fill:#FEFFFE;enable-background:new    ;}
	.st25{opacity:0.97;fill-rule:evenodd;clip-rule:evenodd;fill:#FEFFFE;enable-background:new    ;}
	.st26{opacity:0.976;fill-rule:evenodd;clip-rule:evenodd;fill:#FEFFFE;enable-background:new    ;}
	.st27{opacity:0.988;fill-rule:evenodd;clip-rule:evenodd;fill:#FEFFFE;enable-background:new    ;}
	.st28{opacity:0.98;fill-rule:evenodd;clip-rule:evenodd;fill:#FEFFFE;enable-background:new    ;}
</style>
<g>
	<path class="st0" d="M1120.5,410.5c-6.1-12.9-15.4-22.7-28-29.5c-6.5-2.2-13.2-3.5-20-4c-2.1-0.7-3.7-1.9-5-3.5
		c6.4-46.2,7.9-92.5,4.5-139c-1.3-11.5-3.5-22.8-6.5-34c-8-0.4-15.7-2.3-23-5.5c-16.5-8.5-32.5-17.9-48-28
		c-21.5-13-44.9-20.2-70-21.5c-14.4,0.8-28.4,3.7-42,8.5c-26.9,11.8-52.9,25.1-78,40c-6.3,2.6-12.6,5.1-19,7.5
		c-5.1,13.9-10,27.9-14.5,42c-5.1,24.9-9.4,49.9-13,75c-0.2,4.7-2.4,7.5-6.5,8.5c-6.9-7.2-15.4-11.1-25.5-11.5
		c-7.9,0.9-15.4,2.9-22.5,6c-15.6-4.7-27.1-14.4-34.5-29c-3.1-7.1-5.2-14.4-6.5-22c0-2.4,1-4,3-5c5,2.2,10,4.3,15,6.5
		c8.4,1.9,15.6-0.3,21.5-6.5c0.3-1.3,0.7-2.7,1-4c-0.8-8.6-1.3-17.3-1.5-26c-1.1-16.8,4.2-31.1,16-43c-24.8-16.5-34.3-39.5-28.5-69
		c3.5-12.9,10-24.1,19.5-33.5c0.7-0.7,1.3-0.7,2,0c3.6,6.3,6.7,12.8,9.5,19.5c3.9,5.2,9.1,7,15.5,5.5c8-1.3,15.7-3.6,23-7
		c18.3-14.3,36.7-28.7,55-43c56.2-27.5,114.2-32.1,174-14c32.8,11.3,60.3,30.1,82.5,56.5c1.8,3.9,3.3,7.9,4.5,12
		c20.8-17.1,44.5-22.6,71-16.5c6.7,1.4,12.7,4.2,18,8.5c-5.2,5.4-10.9,10.2-17,14.5c-16.2,13.8-26.6,31.1-31,52
		c7.2,5.6,14.6,11.3,22,17c21.5,19.6,29.7,43.7,24.5,72.5c-1.3,7.4-3,14.7-5,22c-5.9,14.9-11.6,29.9-17,45
		c-1.4,11.3,3.1,19.1,13.5,23.5c6.3,0.7,12.7,0.5,19-0.5c1.3,0.2,2.7,0.3,4,0.5c0.6,0.7,0.9,1.6,1,2.5c-8.2,20.7-22.2,36.2-42,46.5
		C1130.7,409,1125.7,410.1,1120.5,410.5z"/>
</g>
<g>
	<path class="st1" d="M1120.5,410.5c0.8,8.9-1,17.3-5.5,25c-7.5,9.5-15.7,18.3-24.5,26.5c-10.7,6.9-22.4,9.5-35,8
		c-4.3-0.7-8.3-2.2-12-4.5c-22,29.7-50.7,50-86,61c-21.2,5.8-42.9,8.2-65,7.5c-6.7-1.4-13.4-3-20-5c-14.8-6.9-29.5-14.1-44-21.5
		c-37.8-22.7-63.7-55-77.5-97c-28.1,7.3-47.4-2.7-58-30c-7.7-21.7-4.2-41.4,10.5-59c7.1-3.1,14.6-5.1,22.5-6
		c10.1,0.4,18.6,4.3,25.5,11.5c4.1-1,6.3-3.8,6.5-8.5c3.6-25.1,7.9-50.1,13-75c4.5-14.1,9.4-28.1,14.5-42c6.4-2.4,12.7-4.9,19-7.5
		c25.1-14.9,51.1-28.2,78-40c13.6-4.8,27.6-7.7,42-8.5c25.1,1.3,48.5,8.5,70,21.5c15.5,10.1,31.5,19.5,48,28c7.3,3.2,15,5.1,23,5.5
		c3,11.2,5.2,22.5,6.5,34c3.4,46.5,1.9,92.8-4.5,139c1.3,1.6,2.9,2.8,5,3.5c6.8,0.5,13.5,1.8,20,4
		C1105.1,387.8,1114.4,397.6,1120.5,410.5z"/>
</g>
<g>
	<path class="st2" d="M1864.5,936.5c-10.3,13.4-20.8,26.8-31.5,40c-18.8-31-39.2-61-61-90c-16.6-20.7-37.1-36.2-61.5-46.5
		c-22.7-7.6-45.2-7.1-67.5,1.5c1.9-5.6,3.4-11.5,4.5-17.5c-0.4-10.9-6.1-16.8-17-17.5c-16.7,2.1-26.7,11.4-30,28
		c-3.5-1.6-7.2-2.9-11-4c-2.9-13.7-5.9-27.4-9-41c53.9,3.4,102.6-10.8,146-42.5c1.8-1.8,2.2-3.8,1-6c-2.9-1.3-5.9-1.7-9-1
		c-25,14.3-51.5,25.2-79.5,32.5c-20.6,4.1-41.2,5.4-62,4c-8.6-30.9-17.4-61.7-26.5-92.5c0.3-0.8,0.7-1.7,1-2.5
		c13.7-6.4,27.1-13.5,40-21.5c17.1-11.5,33.7-23.5,50-36c12.6-10.5,23.7-22.4,33.5-35.5c0.6-2.1,1.4-4.1,2.5-6c-2-3.9-5-5.2-9-4
		c-5.2,6.3-10.5,12.5-16,18.5c-19,16.1-38.3,31.8-58,47c-15.1,9.5-30.7,18-47,25.5c-1.3-4.6-2.4-9.3-3.5-14
		c-1.5-1.9-3.4-3.4-5.5-4.5c-10.3-2.6-17.5,0.9-21.5,10.5c-2.7,8-5,16-7,24c-2.9-9.6-7.1-18.6-12.5-27c-5.4-4.3-11.4-5.1-18-2.5
		c-2.9,2.3-5.1,5.1-6.5,8.5c-1.9,11.5-2.7,23-2.5,34.5c-13.8,4.3-27.6,8.5-41.5,12.5c-12.8,2.3-25.3,5.3-37.5,9c-0.3,0-0.7,0-1,0
		c-7.1-23.1-22.1-38.7-45-47c-2.9-2.2-6.2-3.2-10-3c-18.2-3.3-35.5-0.9-52,7c0.2-3.3,0.9-6.5,2-9.5c7.2-5.1,14.8-9.4,23-13
		c7.6-4.5,11.2-11.1,11-20c-1.2-6.7-3.1-13.2-5.5-19.5c-12.9-28.2-25.5-56.6-38-85c-22.1-76.2-13.4-148.5,26-217
		c19.4-30.7,42.5-58.6,69.5-83.5c9.6-7.8,19.6-15.1,30-22c15.4-8.1,31.4-14.4,48-19c19.5-4.1,39.1-5.5,59-4c24.4,3.3,48.1,9.3,71,18
		c5.1,2.5,10.1,5.1,15,8c5.4,5,11,9.7,17,14c28.1,32.3,49.9,68.4,65.5,108.5c12.2,32.8,20.2,66.5,24,101c2.3,24,4.7,48,7,72
		c4.5,27.7,7.8,55.7,10,84c3.3,15.3,6.9,30.7,11,46c2.4,6.5,6.1,12.2,11,17c5.9,12.8,12.1,25.5,18.5,38c31.1,54,66,105.3,104.5,154
		c2.7,4.5,5.2,9.2,7.5,14c5,8,10.5,15.7,16.5,23c0.9,3,1.7,6,2.5,9c-1.6,4.3-3.1,8.6-4.5,13C1878.9,915.7,1872.1,926.4,1864.5,936.5
		z"/>
</g>
<g>
	<path class="st3" d="M846.5,193.5c8.7-0.2,17.3,0,26,0.5c10.8,2.1,19.3,7.6,25.5,16.5c1.3,5-0.5,7.2-5.5,6.5
		c-14.1-13.6-30.5-17-49-10c-12.1,4.5-22.6,11.3-31.5,20.5c-1.9-2.1-3.1-4.6-3.5-7.5C818.6,207.4,831.3,198.5,846.5,193.5z"/>
</g>
<g>
	<path class="st3" d="M1001.5,214.5c27.8-2.5,45.6,9.5,53.5,36c1.8,5.2,0.3,8.8-4.5,11c-0.7-0.3-1.3-0.7-2-1
		c-2.2-9.1-6.1-17.4-11.5-25c-10.6-10.1-23.1-13.6-37.5-10.5c-7.7,2.9-15.4,5.6-23,8c-0.7-2.2-0.2-4.4,1.5-6.5
		C985,220.7,992.8,216.7,1001.5,214.5z"/>
</g>
<g>
	<path class="st0" d="M867.5,240.5c10.4-1.5,16.9,2.9,19.5,13c2.6,16.6-2.9,29.8-16.5,39.5c-7.6,4-13.7,2.5-18.5-4.5
		C845.1,268.5,850.2,252.5,867.5,240.5z"/>
</g>
<g>
	<path class="st0" d="M997.5,259.5c15.7,0.3,22.2,8.3,19.5,24c-2.4,11.4-8.3,20.5-17.5,27.5c-11.1,5.1-18,1.6-20.5-10.5
		C976.2,282.6,982.4,269,997.5,259.5z"/>
</g>
<g>
	<path class="st1" d="M1446.5,279.5c2.7-0.2,5.3,0,8,0.5c10.4,3.1,20.7,6.5,31,10c36.2,15.9,67.7,38.4,94.5,67.5
		c34.6,41.8,58.6,89.1,72,142c-0.4,12.1-3,23.8-8,35c-16.7,33.5-39.5,62.2-68.5,86c-31.9,23.1-67.6,31.9-107,26.5
		c-44.6-7.9-83.5-27.1-116.5-57.5c-6.1-6.1-11.4-12.8-16-20c-12-83,4-160,48-231C1400.6,314,1421.5,294.3,1446.5,279.5z"/>
</g>
<g>
	<path class="st2" d="M914.5,325.5c9.3-1.4,17.6,0.6,25,6c7.7,7.2,12,16,13,26.5c-0.8,3.3-2.1,6.3-4,9c-1.5,0.5-2.7,0-3.5-1.5
		c0.6-14.9-5.9-25.1-19.5-30.5c-8.4-1.7-15.7,0.3-22,6c-3.3,4-6.7,8-10,12c-1.3,0.7-2.5,0.5-3.5-0.5c-1.2-2.3-1.5-4.6-1-7
		C895.3,336,903.8,329.3,914.5,325.5z"/>
</g>
<g>
	<path class="st4" d="M1529.5,336.5c13.1-0.9,23.6,3.8,31.5,14c0.5,2.3,0.7,4.6,0.5,7c-3.6,0.1-6.9-0.8-10-2.5
		c-4.8-5.2-10.7-8.7-17.5-10.5c-1.9,0.4-3.8,1.1-5.5,2c-4.2,3.4-8.5,6.5-13,9.5c-2.7,1.1-4.4,0.2-5-2.5c0.5-2.3,1.5-4.3,3-6
		C1518.6,343.3,1524,339.6,1529.5,336.5z"/>
</g>
<g>
	<path class="st2" d="M732.5,339.5c9-0.5,15.7,3.2,20,11c-0.7,0.8-1.6,1.5-2.5,2c-6.1-3.2-12.6-4.3-19.5-3.5c-4.3,3-8,6.7-11,11
		c-3.1,1.7-6.3,1.9-9.5,0.5c-0.5-1.8-0.2-3.5,1-5C716.4,347.6,723.5,342.3,732.5,339.5z"/>
</g>
<g>
	<path class="st5" d="M1407.5,351.5c6-0.2,12,0,18,0.5c5.9,2.5,11.4,5.7,16.5,9.5c0.8,1.9,1.3,3.9,1.5,6c-1.7,0.2-3.4,0-5-0.5
		c-4.3-2.3-8.7-4.7-13-7c-14.4-3.4-25,1.2-32,14c-2.9,0.8-5.3,0-7-2.5C1390.4,361.4,1397.4,354.7,1407.5,351.5z"/>
</g>
<g>
	<path class="st2" d="M844.5,375.5c3.1,0,6.1,0.5,9,1.5c35.1,16.6,72.1,25.9,111,28c1.2,0.9,2,2.1,2.5,3.5
		c2.8,39.6-15,64.4-53.5,74.5c-43.4,2.2-69.9-17.9-79.5-60.5C829.8,405,833.3,389.3,844.5,375.5z"/>
</g>
<g>
	<path class="st6" d="M1538.5,376.5c6.6-0.8,11.8,1.5,15.5,7c5.8,12,6.8,24.3,3,37c-2.9,4.2-6.4,7.7-10.5,10.5
		c-13.6,3-22.1-2.2-25.5-15.5C1515.6,397.1,1521.4,384.1,1538.5,376.5z"/>
</g>
<g>
	<path class="st7" d="M862.5,392.5c7.8,2.1,15.8,4.6,24,7.5c21.9,6.2,44.2,9.6,67,10c-24.5,20.9-50.5,22.9-78,6
		C867.9,409.9,863.5,402,862.5,392.5z"/>
</g>
<g>
	<path class="st8" d="M1419.5,397.5c7.2-1.1,13.1,1.2,17.5,7c8.7,13.8,8.7,27.4,0,41c-1.7,2.1-3.9,3.6-6.5,4.5
		c-18.1,1.9-27.1-6.2-27-24.5C1403.7,413,1409.1,403.7,1419.5,397.5z"/>
</g>
<g>
	<path class="st2" d="M1068.5,403.5c22-2.5,31.8,7.2,29.5,29c-0.9,2.6-2.4,4.8-4.5,6.5c-1.1,0.7-2.1,0.6-3-0.5
		c-1.5-4.9-2.3-9.9-2.5-15c-1.4-3.4-3.6-6.2-6.5-8.5c-5.4-1.8-10.9-3-16.5-3.5C1065.3,408.5,1066.5,405.8,1068.5,403.5z"/>
</g>
<g>
	<path class="st2" d="M1476.5,444.5c10.4-1.1,19.7,1.4,28,7.5c5.8,4.9,9.8,10.9,12,18c-0.4,2.5-0.8,5-1,7.5c-2.1,0.3-4.1,0-6-1
		c-4.8-8-11.1-14.5-19-19.5c-9.7-3.3-17.8-1.2-24.5,6.5c-3.3,8.4-5.3,17-6,26c-3.1,1.4-5.8,0.7-8-2c-0.1-9.7,1.9-19.1,6-28
		C1462.4,452.2,1468.6,447.2,1476.5,444.5z"/>
</g>
<g>
	<path class="st2" d="M1544.5,495.5c2.1,0,3.9,0.6,5.5,2c11,25.6,11,51.3,0,77c-9.2,14.9-22.5,22.9-40,24c-26.7,0.2-46.1-11.4-58-35
		c-2.3-6.3-4.7-12.7-7-19c-1.3-4.6-1.6-9.3-1-14c1.8-1.2,3.7-2.3,5.5-3.5C1481.3,516.6,1513,506.1,1544.5,495.5z"/>
</g>
<g>
	<path class="st2" d="M828.5,507.5c14.5,7.4,29.2,14.6,44,21.5c6.6,2,13.3,3.6,20,5c22.1,0.8,43.8-1.8,65-7.5c-0.3,2.7-0.7,5.3-1,8
		c-32.5,12.9-66.2,21.5-101,26c7.1,15.4,13.6,31.1,19.5,47c9.8-13.8,19.8-27.5,30-41c1.8-0.8,3.3-2,4.5-3.5
		c15.3-4.2,30.6-7.3,46-9.5c3.3-0.5,6.7-1.2,10-2c2.1,0.3,3.4,1.4,4,3.5c0,18.2-1.1,36.3-3.5,54.5c-0.5,1-1,2-1.5,3
		c-21.1,10.5-42.8,19.8-65,28c1.3-7.3-1.7-11.3-9-12c-12,2.8-20.2,10.2-24.5,22c-3.3,8.4-5.6,17.1-7,26c-0.3-10-0.7-20-1-30
		c-1-6-3-11.7-6-17c-8-7.2-16.5-7.9-25.5-2c-13.7-15.7-27-31.7-40-48c0.1-14.4,1.7-28.5,5-42.5c2-2.5,4.7-3.7,8-3.5
		c8,0.8,15.9,2.5,23.5,5C825.1,528.2,826.9,517.9,828.5,507.5z"/>
</g>
<g>
	<path class="st9" d="M1527.5,508.5c1,0,2,0,3,0c-1.4,7.2-3.6,14.2-6.5,21c-11.6,14-26.4,18.8-44.5,14.5c-7.7-3.2-14.7-7.6-21-13
		c22.2-7.3,44.5-14.1,67-20.5C1526.7,510.3,1527.4,509.6,1527.5,508.5z"/>
</g>
<g>
	<path class="st1" d="M956.5,534.5c-0.7,5.1-1.4,10.3-2,15.5c0,1.4,0.3,2.6,1,3.5c-15.4,2.2-30.7,5.3-46,9.5
		c-1.2,1.5-2.7,2.7-4.5,3.5c-10.2,13.5-20.2,27.2-30,41c-5.9-15.9-12.4-31.6-19.5-47C890.3,556,924,547.4,956.5,534.5z"/>
</g>
<g>
	<path class="st1" d="M1589.5,830.5c-3.3-1.1-6.6-1.1-10,0c-11.1-3.4-19.2,0.3-24.5,11c-1.3,3.6-2.1,7.2-2.5,11
		c-4.4-0.4-8.5,0.3-12.5,2c-5.2-24.5-9.6-49.2-13-74c-2.5-22.9-3.5-45.9-3-69c0.3-6.5,1.8-12.7,4.5-18.5c2.7-2.2,5.2-2,7.5,0.5
		c1,3,2,6,3,9c3.3,23.8,7.3,47.4,12,71c1.1,2.9,3.1,4.9,6,6c2.1-1.1,3.2-3,3.5-5.5c-3-29-8.8-57.5-17.5-85.5
		c-3.7-5.5-8.9-7.4-15.5-5.5c-5.5,2.5-9,6.6-10.5,12.5c-0.8,3.6-1.4,7.3-2,11c-4.9-12.3-13.4-16.1-25.5-11.5
		c-3.6,4.5-5.4,9.7-5.5,15.5c0.9,28,2.3,56,4,84c2.6,5.2,4.9,5.2,7,0c-0.3-25.5-1.1-51-2.5-76.5c0.1-4.2,0.6-8.4,1.5-12.5
		c0.7-2,2-3.3,4-4c3.2,1.2,5.9,3.2,8,6c3.1,7.2,5.7,14.5,8,22c1.2,16.6,1.8,33.3,2,50c3.2,21.2,7.4,42.2,12.5,63
		c-4.5,0-9.2,0.1-14,0.5c-2.8,1.1-5.2,2.6-7.5,4.5c-6.7-9.8-15.9-13.6-27.5-11.5c-1.6,0.6-2.9,1.4-4,2.5c-2.1-0.2-4.1,0.2-6,1
		c1.1-22.7,1.5-45.3,1-68c-14.3-4.9-28.6-9.8-43-14.5c-11.9-4.1-23.1-9.6-33.5-16.5c-0.2-3.2-0.7-6.2-1.5-9c0-1,0-2,0-3
		c-0.3-2.7-0.7-5.3-1-8c12.2-3.7,24.7-6.7,37.5-9c13.9-4,27.7-8.2,41.5-12.5c-0.2-11.5,0.6-23,2.5-34.5c1.4-3.4,3.6-6.2,6.5-8.5
		c6.6-2.6,12.6-1.8,18,2.5c5.4,8.4,9.6,17.4,12.5,27c2-8,4.3-16,7-24c4-9.6,11.2-13.1,21.5-10.5c2.1,1.1,4,2.6,5.5,4.5
		c1.1,4.7,2.2,9.4,3.5,14c16.3-7.5,31.9-16,47-25.5c19.7-15.2,39-30.9,58-47c5.5-6,10.8-12.2,16-18.5c4-1.2,7,0.1,9,4
		c-1.1,1.9-1.9,3.9-2.5,6c-9.8,13.1-20.9,25-33.5,35.5c-16.3,12.5-32.9,24.5-50,36c-12.9,8-26.3,15.1-40,21.5
		c-0.3,0.8-0.7,1.7-1,2.5c9.1,30.8,17.9,61.6,26.5,92.5c20.8,1.4,41.4,0.1,62-4c28-7.3,54.5-18.2,79.5-32.5c3.1-0.7,6.1-0.3,9,1
		c1.2,2.2,0.8,4.2-1,6c-43.4,31.7-92.1,45.9-146,42.5C1583.6,803.1,1586.6,816.8,1589.5,830.5z"/>
</g>
<g>
	<path class="st10" d="M786.5,579.5c13,16.3,26.3,32.3,40,48c-5.7,30.5-12.9,60.9-21.5,91c-12.1,26.3-24.8,52.3-38,78
		c-7.6,3.7-15.4,6.9-23.5,9.5c-40.6,12-80.6,25.5-120,40.5c14-37.7,27.2-75.7,39.5-114c0.9-2.5,0.4-4.7-1.5-6.5
		c-2.6-1.2-5.2-1.6-8-1c-12.5,30.1-25,60.3-37.5,90.5c-4.8,12.6-9.3,25.3-13.5,38c-28.6,11.4-57.3,22.9-86,34.5
		c-15.3,6.6-29.9,14.3-44,23c-5.1,4.1-10,8.6-14.5,13.5c-8.8,12.1-16.8,24.8-24,38c-1.8,5.3-3.3,10.6-4.5,16
		c-13.4-10.9-25.2-23.2-35.5-37c-5.1-6.5-7.1-13.8-6-22c19.6-25.3,39.6-50.3,60-75c59.1-68.4,117.4-137.4,175-207
		c8.9-9.2,18-18,27.5-26.5c6.6-4.4,13.6-8.1,21-11C709,588.2,747.3,581.4,786.5,579.5z"/>
</g>
<g>
	<path class="st10" d="M964.5,612.5c16.6,11,33.6,21.5,51,31.5c23.8,12.4,47.5,25.1,71,38c9.4,6.4,16.3,14.9,20.5,25.5
		c8.1,20.1,14.5,40.8,19,62c9.2,43.9,17.8,87.9,26,132c11.4,57.3,26.4,113.7,45,169c2,12-2.2,21.2-12.5,27.5
		c-5.2,3.1-10.5,5.9-16,8.5c0.3-11.6-1.2-22.9-4.5-34c0.7-12.5-2.6-23.9-10-34c-33.2-36.7-69-70.4-107.5-101
		c-1.1-45.7-1.1-91.3,0-137c0.1-4-0.6-7.8-2-11.5c-4.6-1.1-7.5,0.8-8.5,5.5c-1.3,44.7-1.8,89.3-1.5,134
		c-36.2-24.6-71.5-50.4-106-77.5c-9.3-8.8-14.8-19.6-16.5-32.5c-6.5-42.7-11.6-85.5-15.5-128.5c0.6-16.5,1.6-33,3-49.5
		C921.7,632.3,943.4,623,964.5,612.5z"/>
</g>
<g>
	<path class="st1" d="M899.5,640.5c-1.4,16.5-2.4,33-3,49.5c3.9,43,9,85.8,15.5,128.5c1.7,12.9,7.2,23.7,16.5,32.5
		c34.5,27.1,69.8,52.9,106,77.5c4,3,8,6,12,9c38.5,30.6,74.3,64.3,107.5,101c7.4,10.1,10.7,21.5,10,34c3.3,11.1,4.8,22.4,4.5,34
		c-4.2,22.3-17.5,35.5-40,39.5c-32.8,3.8-64.1-1.4-94-15.5c-21.7-17.6-40.9-37.6-57.5-60c-23-32-45-64.6-66-98
		c-12.7-17.3-25.3-34.7-38-52c-4.2-4.2-8.3-8.3-12.5-12.5c-12.7-1.8-22.6-7.9-29.5-18.5c-1.9-3.4-3.1-7.1-3.5-11
		c3-4.1,4.9-8.8,5.5-14c6.8-40.2,12.5-80.5,17-121c1.4-8.4,3.1-16.7,5-25c2.9-11.3,6.6-22.3,11-33c3.9-4.3,8.7-6,14.5-5
		c0.3,2,0.7,4,1,6c-3.9,21.9-6.6,43.9-8,66c0.1,3.7,0.6,7.4,1.5,11c1.8,3.8,3.8,3.8,6,0c2.8-22.9,5-45.9,6.5-69
		c-0.1-6-0.6-12-1.5-18c-11.8-7.6-21.8-5.6-30,6c-2.3-16.3-11.1-21.8-26.5-16.5c-2.2,2.5-3.7,5.3-4.5,8.5c-6.1,23.5-11.8,47.2-17,71
		c-0.7,3.3-0.7,6.7,0,10c0.7,0.7,1.3,1.3,2,2c2.1-1.5,3.5-3.5,4-6c5.4-23.2,10.1-46.5,14-70c1.8-9.1,6.9-12.3,15.5-9.5
		c3.9,4,5.6,8.8,5,14.5c-4.8,42.6-9.3,85.3-13.5,128c-3.4,17.3-6.4,34.6-9,52c-0.4,2.5-1.2,4.8-2.5,7c0.7,1.4,1.3,2.7,2,4
		c-4.3,11.3-12.7,17-25,17c-4.8-0.1-9.3-1.1-13.5-3c-16.1,9.6-31.6,20.1-46.5,31.5c-17.4,14.4-35,28.4-53,42
		c-28.7,20.3-57.3,40.7-86,61c-21.7,10.5-44.4,18.4-68,23.5c-20.6,6-41.6,8.5-63,7.5c-23.8-3.5-39.3-16.7-46.5-39.5
		c-1.6-13.5,0.2-26.5,5.5-39c1.2-5.4,2.7-10.7,4.5-16c7.2-13.2,15.2-25.9,24-38c4.5-4.9,9.4-9.4,14.5-13.5c14.1-8.7,28.7-16.4,44-23
		c28.7-11.6,57.4-23.1,86-34.5c7.1-2.1,14.1-4.5,21-7c39.4-15,79.4-28.5,120-40.5c8.1-2.6,15.9-5.8,23.5-9.5
		c13.2-25.7,25.9-51.7,38-78c8.6-30.1,15.8-60.5,21.5-91c9-5.9,17.5-5.2,25.5,2c3,5.3,5,11,6,17c0.3,10,0.7,20,1,30
		c1.4-8.9,3.7-17.6,7-26c4.3-11.8,12.5-19.2,24.5-22C897.8,629.2,900.8,633.2,899.5,640.5z"/>
</g>
<g>
	<path class="st2" d="M827.5,878.5c-0.7-0.3-1.3-0.7-2-1c-0.7-1.3-1.3-2.6-2-4c1.3-2.2,2.1-4.5,2.5-7c2.6-17.4,5.6-34.7,9-52
		c4.2-42.7,8.7-85.4,13.5-128c0.6-5.7-1.1-10.5-5-14.5c-8.6-2.8-13.7,0.4-15.5,9.5c-3.9,23.5-8.6,46.8-14,70c-0.5,2.5-1.9,4.5-4,6
		c-0.7-0.7-1.3-1.3-2-2c-0.7-3.3-0.7-6.7,0-10c5.2-23.8,10.9-47.5,17-71c0.8-3.2,2.3-6,4.5-8.5c15.4-5.3,24.2,0.2,26.5,16.5
		c8.2-11.6,18.2-13.6,30-6c0.9,6,1.4,12,1.5,18c-1.5,23.1-3.7,46.1-6.5,69c-2.2,3.8-4.2,3.8-6,0c-0.9-3.6-1.4-7.3-1.5-11
		c1.4-22.1,4.1-44.1,8-66c-0.3-2-0.7-4-1-6c-5.8-1-10.6,0.7-14.5,5c-4.4,10.7-8.1,21.7-11,33c-1.9,8.3-3.6,16.6-5,25
		c-4.5,40.5-10.2,80.8-17,121C832.4,869.7,830.5,874.4,827.5,878.5z"/>
</g>
<g>
	<path class="st10" d="M1335.5,670.5c3.1,1.4,6.4,2.4,10,3c22.9,8.3,37.9,23.9,45,47c-0.5,3.2,0.1,5.9,2,8c0,1,0,2,0,3
		c1.5,25.3-7.2,46.3-26,63c-3.2,1.8-6.2,3.8-9,6c-2.4,0.7-4.8,1.7-7,3c-2.5,0.3-4.5,1.3-6,3c-12.5,3.5-25.2,4.5-38,3
		c-3.4-1.6-7.1-2.6-11-3c-12.5-3.8-23.1-10.5-32-20c-13.5-15.9-19.2-34.3-17-55c1.5-5.2,2.8-10.5,4-16c6.7-16.4,17.7-29,33-38
		C1300,669.6,1317.3,667.2,1335.5,670.5z"/>
</g>
<g>
	<path class="st11" d="M1335.5,670.5c3.8-0.2,7.1,0.8,10,3C1341.9,672.9,1338.6,671.9,1335.5,670.5z"/>
</g>
<g>
	<path class="st2" d="M1579.5,830.5c-10.4,4.3-15.4,12.1-15,23.5c0.1,3.9,0.4,7.7,1,11.5c-4.3-0.2-8.7,0-13,0.5
		c-2.4,0.7-4.6,1.9-6.5,3.5c-4.1-8.5-10.9-13.1-20.5-14c-9.1,1-16.6,5-22.5,12c-2.2-13.3-9.4-22.8-21.5-28.5c-2-0.5-4-0.7-6-0.5
		c1.1-1.1,2.4-1.9,4-2.5c11.6-2.1,20.8,1.7,27.5,11.5c2.2-1.9,4.8-3.4,7.5-4.5c4.8-0.4,9.5-0.5,14-0.5c-5.1-20.8-9.3-41.8-12.5-63
		c-0.2-16.7-0.8-33.4-2-50c-2.3-7.5-4.9-14.8-8-22c-2.1-2.8-4.8-4.8-8-6c-2,0.7-3.3,2-4,4c-0.9,4.1-1.4,8.3-1.5,12.5
		c1.4,25.5,2.2,51,2.5,76.5c-2.1,5.2-4.4,5.2-7,0c-1.7-28-3.1-56-4-84c0.1-5.8,1.9-11,5.5-15.5c12.1-4.6,20.6-0.8,25.5,11.5
		c0.6-3.7,1.2-7.4,2-11c1.5-5.9,5-10,10.5-12.5c6.6-1.9,11.8,0,15.5,5.5c8.7,28,14.5,56.5,17.5,85.5c-0.3,2.5-1.4,4.4-3.5,5.5
		c-2.9-1.1-4.9-3.1-6-6c-4.7-23.6-8.7-47.2-12-71c-1-3-2-6-3-9c-2.3-2.5-4.8-2.7-7.5-0.5c-2.7,5.8-4.2,12-4.5,18.5
		c-0.5,23.1,0.5,46.1,3,69c3.4,24.8,7.8,49.5,13,74c4-1.7,8.1-2.4,12.5-2c0.4-3.8,1.2-7.4,2.5-11
		C1560.3,830.8,1568.4,827.1,1579.5,830.5z"/>
</g>
<g>
	<path class="st2" d="M1469.5,711.5c2,16,2.7,32.3,2,49c-25.7-7.4-50.3-17.2-74-29.5C1421.3,723.2,1445.3,716.7,1469.5,711.5z"/>
</g>
<g>
	<path class="st12" d="M1250.5,715.5c-1.2,5.5-2.5,10.8-4,16C1246,725.6,1247.4,720.3,1250.5,715.5z"/>
</g>
<g>
	<path class="st2" d="M623.5,846.5c-6.9,2.5-13.9,4.9-21,7c4.2-12.7,8.7-25.4,13.5-38c12.5-30.2,25-60.4,37.5-90.5
		c2.8-0.6,5.4-0.2,8,1c1.9,1.8,2.4,4,1.5,6.5C650.7,770.8,637.5,808.8,623.5,846.5z"/>
</g>
<g>
	<path class="st13" d="M1390.5,720.5c0.3,0,0.7,0,1,0c0.3,2.7,0.7,5.3,1,8C1390.6,726.4,1390,723.7,1390.5,720.5z"/>
</g>
<g>
	<path class="st2" d="M1392.5,731.5c0.8,2.8,1.3,5.8,1.5,9c10.4,6.9,21.6,12.4,33.5,16.5c14.4,4.7,28.7,9.6,43,14.5
		c0.5,22.7,0.1,45.3-1,68c-3.9,1-6.7,3.4-8.5,7c-1.9,4.8-2.9,9.8-3,15c-11.4-10.6-24.2-12.8-38.5-6.5c-6.7,6.8-8.8,15-6.5,24.5
		c1.9,6.9,5.7,12.4,11.5,16.5c-3,0.7-6,1.2-9,1.5c-11.8-22.7-23.4-45.5-35-68.5c-4-11.8-8.7-23.3-14-34.5
		C1385.3,777.8,1394,756.8,1392.5,731.5z"/>
</g>
<g>
	<path class="st2" d="M1263.5,786.5c8.9,9.5,19.5,16.2,32,20c3.3,2,7,3,11,3c12.8,1.5,25.5,0.5,38-3c2.5-0.3,4.5-1.3,6-3
		c2.2-1.3,4.6-2.3,7-3c3.4,8.8,6.6,17.8,9.5,27c3.9,7.1,7.2,14.4,10,22c10.1,17,19.6,34.3,28.5,52c-19.3,8.5-34.5,21.8-45.5,40
		c-14.8,26.3-26.4,54-35,83c-20.8-29-41-58.3-60.5-88c-9-15.3-18-30.6-27-46C1246.3,855.8,1255,821.2,1263.5,786.5z"/>
</g>
<g>
	<path class="st2" d="M1046.5,937.5c-4-3-8-6-12-9c-0.3-44.7,0.2-89.3,1.5-134c1-4.7,3.9-6.6,8.5-5.5c1.4,3.7,2.1,7.5,2,11.5
		C1045.4,846.2,1045.4,891.8,1046.5,937.5z"/>
</g>
<g>
	<path class="st1" d="M1366.5,794.5c5.3,11.2,10,22.7,14,34.5c11.6,23,23.2,45.8,35,68.5c-3.2,1.5-6.5,2.8-10,4
		c-8.9-17.7-18.4-35-28.5-52c-2.8-7.6-6.1-14.9-10-22c-2.9-9.2-6.1-18.2-9.5-27C1360.3,798.3,1363.3,796.3,1366.5,794.5z"/>
</g>
<g>
	<path class="st14" d="M1350.5,803.5c-1.5,1.7-3.5,2.7-6,3C1346,804.8,1348,803.8,1350.5,803.5z"/>
</g>
<g>
	<path class="st10" d="M1864.5,936.5c15.4,44.5,25.2,90.1,29.5,137c1.4,19.2-0.9,37.8-7,56c-4.7,8.4-10.5,15.9-17.5,22.5
		c-26.8,20.7-56.8,35.1-90,43c-41.8,11.5-84.1,20.4-127,26.5c13.6-19.7,27.7-39.1,42.5-58c4.8-8.2,9.7-16.3,14.5-24.5
		c-59.3-26.3-104.1-68.1-134.5-125.5c0.7,35.4-6.6,69.1-22,101c-17,36.7-40.5,68.5-70.5,95.5c15,15.8,30.6,30.6,47,44.5
		c-44,7-88,6.5-132-1.5c-9.1-2.2-17.8-5.6-26-10c-24.4-14.7-44.5-33.9-60.5-57.5c-6.3-11-12.7-22-19-33c-11.7-27.6-19.4-56.2-23-86
		c-5.2-43.2-6.8-86.5-4.5-130c19.5,29.7,39.7,59,60.5,88c8.6-29,20.2-56.7,35-83c11-18.2,26.2-31.5,45.5-40c3.5-1.2,6.8-2.5,10-4
		c3-0.3,6-0.8,9-1.5c-5.8-4.1-9.6-9.6-11.5-16.5c-2.3-9.5-0.2-17.7,6.5-24.5c14.3-6.3,27.1-4.1,38.5,6.5c0.1-5.2,1.1-10.2,3-15
		c1.8-3.6,4.6-6,8.5-7c1.9-0.8,3.9-1.2,6-1c2-0.2,4,0,6,0.5c12.1,5.7,19.3,15.2,21.5,28.5c5.9-7,13.4-11,22.5-12
		c9.6,0.9,16.4,5.5,20.5,14c1.9-1.6,4.1-2.8,6.5-3.5c4.3-0.5,8.7-0.7,13-0.5c-0.6-3.8-0.9-7.6-1-11.5c-0.4-11.4,4.6-19.2,15-23.5
		c3.4-1.1,6.7-1.1,10,0c3.8,1.1,7.5,2.4,11,4c3.3-16.6,13.3-25.9,30-28c10.9,0.7,16.6,6.6,17,17.5c-1.1,6-2.6,11.9-4.5,17.5
		c22.3-8.6,44.8-9.1,67.5-1.5c24.4,10.3,44.9,25.8,61.5,46.5c21.8,29,42.2,59,61,90C1843.7,963.3,1854.2,949.9,1864.5,936.5z"/>
</g>
<g>
	<path class="st15" d="M1295.5,806.5c3.9,0.4,7.6,1.4,11,3C1302.5,809.5,1298.8,808.5,1295.5,806.5z"/>
</g>
<g>
	<path class="st10" d="M825.5,877.5c0.7,0.3,1.3,0.7,2,1c0.4,3.9,1.6,7.6,3.5,11c6.9,10.6,16.8,16.7,29.5,18.5
		c4.2,4.2,8.3,8.3,12.5,12.5c12.7,17.3,25.3,34.7,38,52c21,33.4,43,66,66,98c16.6,22.4,35.8,42.4,57.5,60c1.2,18.1-1,35.8-6.5,53
		c-2.8,5.1-6.6,9.3-11.5,12.5c-33.3,16.5-68.7,25.5-106,27c-33.9,1.6-67.5-0.4-101-6c-70.6-10.9-139.6-28.2-207-52
		c-20.8-7.7-40.2-18.1-58-31c-4.2-4.2-8.3-8.3-12.5-12.5c-7.1-9.1-10.4-19.5-10-31c3.1-13.9,7-27.6,11.5-41
		c23.6-5.1,46.3-13,68-23.5c28.7-20.3,57.3-40.7,86-61c18-13.6,35.6-27.6,53-42c14.9-11.4,30.4-21.9,46.5-31.5
		c4.2,1.9,8.7,2.9,13.5,3C812.8,894.5,821.2,888.8,825.5,877.5z"/>
</g>
<g>
	<path class="st2" d="M432.5,897.5c3.6,2.3,6.9,4.9,10,8c-7.3,9.1-14.8,18.1-22.5,27c-3-2.8-5.9-5.8-8.5-9
		C418.5,914.8,425.5,906.1,432.5,897.5z"/>
</g>
<g>
	<path class="st2" d="M1652.5,1221.5c-17,22.6-33.5,45.6-49.5,69c-2.2,3.2-4.9,5.8-8,8c-8-3.3-15.5-7.5-22.5-12.5
		c-14.5-10.4-28.8-20.9-43-31.5c-16.4-13.9-32-28.7-47-44.5c30-27,53.5-58.8,70.5-95.5c15.4-31.9,22.7-65.6,22-101
		c30.4,57.4,75.2,99.2,134.5,125.5c-4.8,8.2-9.7,16.3-14.5,24.5C1680.2,1182.4,1666.1,1201.8,1652.5,1221.5z"/>
</g>
<g>
	<path class="st2" d="M1169.5,1035.5c1.6-0.1,2.8,0.5,3.5,2c3.8,9.9,7.3,19.9,10.5,30c-2.4,2.7-5.4,4.7-9,6
		c-4.7-11.2-8.7-22.7-12-34.5C1165.2,1038.3,1167.5,1037.2,1169.5,1035.5z"/>
</g>
<g>
	<g>
		<path class="st16" d="M903.7,787.7c3.3,0.2,6,1.6,8.1,4c4.6,6.8,9.2,13.7,13.7,20.5c5.2-6.1,10.4-12.2,15.6-18.4
			c2.4-2.5,5.3-3.7,8.7-3.6c7.8,0.5,15.6,1,23.5,1.4c2.1,0.1,4.1,0.7,5.9,1.8c-1.8-0.1-3.6-0.1-5.5,0.2c-1.7,0.4-3.2,1.1-4.6,2.1
			c-1.1,0.9-2.2,1.8-3.2,2.8c-1.7,1.7-3.4,3.5-5,5.3c-3.3,4.1-6.6,8.2-10,12.2c-5.3,6.1-10.5,12.2-15.8,18.4
			c-0.4,6.2-0.8,12.5-1.2,18.7c-0.9,4.3-3.4,7.2-7.6,8.6c-0.6,0.2-1.3,0.3-2,0.4c-4.2-0.1-8.3-0.3-12.5-0.6
			c0.6-9.5,1.1-18.9,1.6-28.4c-6.5-9.7-12.9-19.3-19.4-29c-1.9-3.4-2.1-6.9-0.5-10.5C895.8,789.7,899.1,787.7,903.7,787.7z"/>
	</g>
	<g>
		<path class="st17" d="M1023.1,794.5c3.7,0.2,7.3,0.4,11,0.6c-1.2,21.3-2.4,42.7-3.7,64c-0.9,4.1-3.3,6.9-7.3,8.3
			c-4.8,1.3-8.8,0.1-12-3.7c-1.4-1.8-2.1-3.9-2.2-6.2c0.5-9.8,1.1-19.6,1.6-29.4c-5.1,5.3-10.1,10.6-15.2,15.9
			c-4.5-5.8-8.9-11.6-13.3-17.4c-0.6,10.3-1.2,20.6-1.8,30.9c-0.6,4.4-3.1,7-7.5,7.6c-0.6,0.1-1.2,0.1-1.8,0.1
			c-4.2-0.2-8.4-0.4-12.6-0.7c1.1-19.5,2.2-38.9,3.4-58.4c2.3-2.8,4.8-5.4,7.6-7.9c1.1-1,2.4-1.7,3.8-2.3c1.2-0.4,2.5-0.6,3.8-0.5
			c1.8,0,3.5,0.2,5.3,0.4c5,6.6,10,13.3,15,20c5.7-6.1,11.4-12.2,17.2-18.3C1016.7,795.3,1019.7,794.3,1023.1,794.5z"/>
	</g>
	<g>
		<path class="st18" d="M926.1,868.1c1.1,0.1,1.7,0.7,1.8,1.8c-0.2,1.1-0.8,1.6-1.9,1.6c-1.4-0.3-1.9-1.2-1.4-2.5
			C924.9,868.5,925.4,868.2,926.1,868.1z"/>
	</g>
	<g>
		<path class="st19" d="M1013.4,873.1c1.3,0.2,1.8,1,1.6,2.3c-0.5,1.1-1.3,1.4-2.5,1c-0.8-0.6-1.1-1.3-0.8-2.3
			C1012.2,873.5,1012.7,873.2,1013.4,873.1z"/>
	</g>
	<g>
		<path class="st20" d="M1027.8,874c1.4,0.2,1.9,1.1,1.6,2.4c-0.5,1-1.3,1.2-2.4,0.9c-0.8-0.5-1.1-1.2-0.9-2.1
			C1026.4,874.4,1027,874,1027.8,874z"/>
	</g>
	<g>
		<path class="st21" d="M888.5,866.7c1.1,0,2.1,0,3.2,0.2c1,2.7,2,5.3,3,8c1.3-2.5,2.7-5,4-7.6c1-0.1,2,0,3,0.2
			c-1.9,3.4-3.8,6.9-5.8,10.3c-0.2,2.3-0.3,4.5-0.4,6.8c-0.9-0.1-1.8-0.1-2.8-0.2c0.1-2.3,0.3-4.5,0.3-6.8
			C891.6,874,890.1,870.3,888.5,866.7z"/>
	</g>
	<g>
		<path class="st22" d="M956.5,870.5c0.9,0,1.9,0.1,2.8,0.2c1.2,3.6,2.4,7.2,3.6,10.8c1.7-3.4,3.3-6.9,4.9-10.4
			c0.9,0.1,1.8,0.1,2.8,0.2c-0.3,5.8-0.7,11.7-1,17.5c-0.9-0.1-1.8-0.1-2.7-0.2c0.2-4,0.5-8,0.6-12c-1.4,3-2.8,6-4.3,9
			c-0.5,0-0.9,0-1.3-0.1c-1-3.1-2.1-6.1-3.1-9.2c-0.3,3.9-0.5,7.9-0.7,11.8c-0.9,0-1.7-0.1-2.6-0.1
			C955.8,882.2,956.1,876.4,956.5,870.5z"/>
	</g>
	<g>
		<path class="st22" d="M1006.4,873.4c0.9,0.1,1.8,0.1,2.7,0.2c-0.3,5.8-0.7,11.7-1,17.5c-0.8,0-1.6-0.1-2.3-0.1
			c0-0.4,0-0.9-0.1-1.3c-1.2,1.3-2.7,1.7-4.4,1.3c-2.2-0.5-3.3-2-3.3-4.2c0-1.7,0.1-3.4,0.3-5.1c0.6-3,2.4-4.3,5.4-3.9
			c1,0.2,1.8,0.6,2.4,1.4C1006.2,877.2,1006.4,875.3,1006.4,873.4z M1003.1,879.9c1.7,0,2.6,0.9,2.7,2.5c0,1.5-0.1,3-0.3,4.5
			c-0.6,1.4-1.6,2-3.1,1.6c-1-0.4-1.6-1.1-1.7-2.1c0-1.6,0.1-3.2,0.4-4.9C1001.4,880.6,1002.1,880.1,1003.1,879.9z"/>
	</g>
	<g>
		<path class="st23" d="M916.4,869.7c0.9,0,1.7,0.1,2.6,0.1c-0.1,1.1-0.1,2.1-0.2,3.2c1.2,0.1,2.4,0.1,3.6,0.2
			c0,0.7-0.1,1.4-0.1,2.1c-1.2-0.1-2.4-0.1-3.6-0.2c-0.2,2.6-0.3,5.2-0.3,7.8c0.2,0.5,0.5,0.8,1,0.9c0.7,0.1,1.4,0.1,2.1,0
			c0.1,0.7,0.1,1.3,0.2,2c0,0.1-0.1,0.1-0.1,0.2c-1.3,0.3-2.6,0.3-3.9,0c-1.2-0.5-1.9-1.3-2-2.6c0.1-2.8,0.3-5.6,0.4-8.4
			c-0.7,0-1.4-0.1-2-0.1c0-0.7,0.1-1.4,0.1-2.1c0.7,0,1.4,0.1,2,0.1C916.3,871.8,916.4,870.7,916.4,869.7z"/>
	</g>
	<g>
		<path class="st23" d="M906.6,872.1c1.3,0,2.6,0.3,3.8,0.9c1.2,0.9,1.9,2.1,1.9,3.6c-0.1,3-0.3,5.9-0.5,8.9c-0.7,0-1.4-0.1-2.1-0.2
			c-0.1-0.3-0.1-0.7-0.1-1c-1,0.9-2.2,1.3-3.5,1.1c-2,0-3.3-0.9-4-2.7c-0.5-3,0.6-4.7,3.6-5.3c1-0.1,2,0.1,2.9,0.4
			c0.4,0.2,0.7,0.5,1.1,0.8c0.4-3.2-1-4.6-4.3-4.1c-0.6,0.1-1.1,0.3-1.6,0.5c-0.3-0.7-0.5-1.4-0.6-2.1c0.3-0.2,0.7-0.4,1-0.5
			C905,872.3,905.8,872.1,906.6,872.1z M906.4,879.4c1.3-0.2,2.3,0.3,3,1.3c0.4,1.7-0.3,2.6-2,2.9c-1.1,0.1-2-0.3-2.7-1.2
			C904.2,880.8,904.8,879.8,906.4,879.4z"/>
	</g>
	<g>
		<path class="st24" d="M935.6,873.7c1.4-0.1,2.6,0.4,3.5,1.5c0.2,0.3,0.3,0.6,0.4,0.9c1-1.6,2.5-2.3,4.4-1.9
			c1.4,0.3,2.4,1.1,2.9,2.5c0.1,0.5,0.2,0.9,0.2,1.4c-0.1,3.1-0.3,6.3-0.5,9.4c-0.9,0-1.7-0.1-2.6-0.1c0.2-3,0.3-5.9,0.4-8.9
			c-0.3-1.6-1.3-2.2-2.9-1.8c-0.7,0.3-1.1,0.8-1.3,1.5c-0.3,3-0.5,6-0.6,9c-0.9-0.1-1.8-0.1-2.7-0.2c0.2-3,0.3-6,0.4-9
			c-0.3-1.5-1.2-2.1-2.7-1.8c-0.8,0.3-1.3,0.8-1.6,1.6c-0.3,3-0.5,6-0.6,9c-0.9,0-1.7-0.1-2.6-0.1c0.2-4.3,0.5-8.6,0.7-12.9
			c0.8,0,1.5,0.1,2.3,0.1c0,0.5,0,1,0,1.5C933.4,874.3,934.3,873.8,935.6,873.7z"/>
	</g>
	<g>
		<path class="st25" d="M977.1,876.1c1.6-0.1,3,0.3,4.2,1.3c0.9,0.9,1.4,2,1.5,3.3c-0.1,3-0.3,5.9-0.5,8.9c-0.7,0-1.4-0.1-2.1-0.2
			c-0.1-0.3-0.1-0.7-0.1-1c-1,0.9-2.2,1.3-3.5,1.1c-2.7-0.1-4.1-1.5-4.2-4.2c0.3-2.2,1.6-3.5,3.8-3.8c1.5-0.2,2.7,0.2,3.9,1.1
			c0.1-0.8,0.1-1.6,0-2.4c-0.5-1.2-1.4-1.8-2.7-1.8c-1.1,0-2.1,0.2-3.1,0.6c-0.2-0.6-0.4-1.3-0.6-1.9c-0.1-0.1,0-0.2,0.1-0.3
			c0.4-0.2,0.8-0.4,1.2-0.5C975.7,876.3,976.4,876.2,977.1,876.1z M976.9,883.4c1.1-0.1,2.1,0.2,2.8,1.1c0.6,1.5,0.2,2.5-1.4,3
			c-0.9,0.2-1.7,0-2.5-0.5c-0.8-0.7-1-1.6-0.5-2.6C975.7,883.9,976.3,883.5,976.9,883.4z"/>
	</g>
	<g>
		<path class="st26" d="M991.2,876.9c2-0.1,3.4,0.7,4.2,2.5c0.2,0.6,0.3,1.2,0.3,1.8c-0.1,3-0.3,6.1-0.5,9.1
			c-0.9-0.1-1.8-0.1-2.7-0.2c0.2-3,0.3-6,0.4-9c-0.4-1.5-1.3-2.1-2.9-1.8c-0.9,0.3-1.4,0.9-1.7,1.7c-0.3,2.9-0.5,5.9-0.6,8.8
			c-0.9,0-1.7-0.1-2.6-0.1c0.2-4.3,0.5-8.6,0.7-12.9c0.8,0,1.5,0.1,2.3,0.2c0,0.5,0,1,0,1.5C989,877.5,990,877,991.2,876.9z"/>
	</g>
	<g>
		<path class="st24" d="M1023.6,878.8c0.2,0,0.5,0,0.7,0c-0.1,0.9-0.1,1.8-0.2,2.7c-0.8-0.1-1.6-0.1-2.4,0.1
			c-1.1,0.6-1.8,1.5-1.8,2.9c-0.2,2.4-0.3,4.8-0.5,7.2c-0.9,0-1.7-0.1-2.6-0.1c0.2-4.3,0.5-8.6,0.7-12.9c0.8,0,1.6,0.1,2.3,0.1
			c0,0.7,0,1.4,0,2C1020.8,879.5,1022,878.8,1023.6,878.8z"/>
	</g>
	<g>
		<path class="st27" d="M924.6,873.3c0.9,0.1,1.8,0.1,2.7,0.2c-0.2,4.3-0.5,8.6-0.7,12.9c-0.9-0.1-1.8-0.1-2.7-0.2
			C924.1,881.9,924.4,877.6,924.6,873.3z"/>
	</g>
	<g>
		<path class="st28" d="M1011.9,878.3c0.9,0.1,1.8,0.1,2.7,0.2c-0.2,4.3-0.5,8.6-0.7,12.9c-0.9-0.1-1.8-0.1-2.7-0.2
			C1011.4,886.9,1011.6,882.6,1011.9,878.3z"/>
	</g>
	<g>
		<path class="st28" d="M1026.3,879.2c0.9,0.1,1.8,0.1,2.7,0.2c-0.2,4.3-0.5,8.6-0.7,12.9c-0.9-0.1-1.8-0.1-2.7-0.2
			C1025.8,887.7,1026,883.5,1026.3,879.2z"/>
	</g>
</g>
<g>
	<g>
		<path class="st16" d="M1273.5,702c2.5,0,4.5,0.9,6.2,2.7c3.7,4.9,7.4,9.9,11.2,14.8c3.6-4.8,7.2-9.6,10.9-14.4c1.7-2,3.8-3,6.4-3
			c5.9,0.1,11.7,0.1,17.6,0c1.6,0,3.1,0.3,4.5,1.1c-1.4,0-2.7,0.1-4.1,0.4c-1.2,0.3-2.4,0.9-3.3,1.8c-0.8,0.7-1.5,1.5-2.3,2.2
			c-1.2,1.4-2.4,2.8-3.5,4.2c-2.3,3.2-4.6,6.4-7,9.5c-3.7,4.8-7.3,9.6-11,14.4c0,4.7,0,9.4-0.1,14c-0.5,3.3-2.2,5.5-5.3,6.8
			c-0.5,0.2-1,0.3-1.5,0.4c-3.1,0.1-6.2,0.1-9.4,0.1c0-7.1,0-14.2,0-21.3c-5.2-7-10.5-13.9-15.7-20.9c-1.6-2.5-1.8-5.1-0.8-7.8
			C1267.7,703.8,1270.2,702.2,1273.5,702z"/>
	</g>
	<g>
		<path class="st17" d="M1363.2,702c2.8,0,5.5,0,8.3,0c0,16,0,32,0,48c-0.5,3.1-2.2,5.3-5.1,6.5c-3.5,1.2-6.6,0.4-9.2-2.3
			c-1.1-1.3-1.7-2.8-1.9-4.6c0-7.4,0-14.7-0.1-22.1c-3.6,4.2-7.1,8.4-10.7,12.5c-3.6-4.1-7.1-8.3-10.7-12.5c0,7.7,0,15.4-0.1,23.2
			c-0.2,3.3-2,5.3-5.3,6c-0.4,0.1-0.9,0.1-1.3,0.2c-3.2,0-6.3,0-9.5,0c0-14.6,0-29.2,0-43.8c1.6-2.2,3.4-4.3,5.3-6.2
			c0.8-0.8,1.7-1.4,2.7-1.9c0.9-0.3,1.8-0.5,2.8-0.5c1.3-0.1,2.6,0,4,0.1c4,4.8,8.1,9.5,12.1,14.3c4-4.8,8-9.6,12.1-14.4
			C1358.5,702.8,1360.7,702,1363.2,702z"/>
	</g>
	<g>
		<path class="st18" d="M1293.8,761.2c0.8,0,1.3,0.5,1.4,1.3c-0.1,0.8-0.5,1.3-1.3,1.3c-1.1-0.2-1.4-0.8-1.2-1.8
			C1292.9,761.5,1293.3,761.2,1293.8,761.2z"/>
	</g>
	<g>
		<path class="st19" d="M1359.3,761.2c1,0.1,1.4,0.7,1.3,1.6c-0.3,0.8-0.9,1.1-1.8,0.9c-0.7-0.4-0.9-0.9-0.7-1.7
			C1358.4,761.5,1358.8,761.2,1359.3,761.2z"/>
	</g>
	<g>
		<path class="st20" d="M1370.1,761.2c1.1,0.1,1.5,0.7,1.3,1.8c-0.4,0.7-0.9,1-1.7,0.8c-0.6-0.3-0.9-0.8-0.8-1.6
			C1369.1,761.6,1369.5,761.3,1370.1,761.2z"/>
	</g>
	<g>
		<path class="st21" d="M1265.6,761.7c0.8-0.1,1.6-0.1,2.4,0c0.9,1.9,1.7,3.9,2.6,5.8c0.9-1.9,1.8-3.9,2.6-5.8
			c0.8-0.1,1.5-0.1,2.2,0c-1.3,2.7-2.6,5.3-3.9,8c0,1.7,0,3.4,0,5.1c-0.7,0-1.4,0-2.1,0c0-1.7,0-3.4,0-5.1
			C1268.2,767,1266.9,764.4,1265.6,761.7z"/>
	</g>
	<g>
		<path class="st22" d="M1316.6,761.7c0.7,0,1.4,0,2.1,0.1c1.1,2.6,2.1,5.3,3.2,7.9c1.1-2.6,2.2-5.3,3.2-8c0.7,0,1.4,0,2.1,0
			c0,4.4,0,8.8,0,13.1c-0.7,0-1.3,0-2,0c0-3,0-6,0-9c-0.9,2.3-1.9,4.6-2.8,6.9c-0.3,0-0.7,0-1,0c-0.9-2.2-1.8-4.5-2.7-6.7
			c0,3,0,5.9,0,8.9c-0.6,0-1.3,0-1.9,0C1316.6,770.4,1316.6,766.1,1316.6,761.7z"/>
	</g>
	<g>
		<path class="st22" d="M1354.1,761.7c0.7,0,1.3,0,2,0c0,4.4,0,8.8,0,13.1c-0.6,0-1.2,0-1.8,0c0-0.3-0.1-0.7-0.1-1
			c-0.8,1-1.9,1.4-3.2,1.1c-1.7-0.3-2.5-1.3-2.6-3c0-1.3,0-2.6,0-3.8c0.3-2.2,1.6-3.3,3.9-3.1c0.7,0.1,1.4,0.4,1.9,0.9
			C1354.1,764.5,1354.1,763.1,1354.1,761.7z M1351.9,766.7c1.2,0,2,0.5,2.2,1.8c0.1,1.1,0,2.2-0.1,3.3c-0.4,1.1-1.1,1.6-2.3,1.4
			c-0.8-0.2-1.2-0.7-1.4-1.5c-0.1-1.2,0-2.4,0.1-3.6C1350.7,767.3,1351.2,766.9,1351.9,766.7z"/>
	</g>
	<g>
		<path class="st23" d="M1286.6,762.8c0.6,0,1.3,0,1.9,0c0,0.8,0,1.6,0,2.4c0.9,0,1.8,0,2.7,0c0,0.5,0,1.1,0,1.6c-0.9,0-1.8,0-2.7,0
			c0,1.9,0,3.9,0.1,5.8c0.1,0.3,0.4,0.6,0.8,0.6c0.5,0,1.1,0,1.6-0.1c0.1,0.5,0.2,1,0.2,1.5c0,0.1,0,0.1-0.1,0.2
			c-1,0.3-1.9,0.3-2.9,0.2c-0.9-0.3-1.4-0.9-1.6-1.9c0-2.1,0-4.2,0-6.3c-0.5,0-1,0-1.5,0c0-0.5,0-1.1,0-1.6c0.5,0,1,0,1.5,0
			C1286.6,764.4,1286.6,763.6,1286.6,762.8z"/>
	</g>
	<g>
		<path class="st23" d="M1279.3,765c1-0.1,2,0.1,2.9,0.5c1,0.6,1.5,1.5,1.6,2.6c0,2.2,0,4.5,0,6.7c-0.5,0-1.1,0-1.6,0
			c-0.1-0.2-0.1-0.5-0.2-0.8c-0.7,0.7-1.6,1-2.6,1c-1.5,0.1-2.5-0.5-3.1-1.8c-0.5-2.2,0.3-3.6,2.5-4.1c0.7-0.1,1.5,0,2.2,0.2
			c0.3,0.1,0.6,0.3,0.8,0.5c0.2-2.4-1-3.4-3.4-2.9c-0.4,0.1-0.8,0.2-1.2,0.5c-0.2-0.5-0.4-1-0.5-1.6c0.2-0.2,0.5-0.3,0.8-0.4
			C1278.1,765.2,1278.7,765,1279.3,765z M1279.5,770.4c0.9-0.2,1.7,0.1,2.3,0.9c0.4,1.2-0.1,2-1.4,2.2c-0.8,0.1-1.5-0.1-2-0.8
			C1278,771.6,1278.3,770.8,1279.5,770.4z"/>
	</g>
	<g>
		<path class="st24" d="M1301.1,765c1.1-0.1,2,0.2,2.7,1c0.1,0.2,0.3,0.4,0.4,0.7c0.7-1.3,1.8-1.8,3.2-1.6c1.1,0.1,1.9,0.7,2.3,1.7
			c0.1,0.3,0.2,0.7,0.2,1c0,2.4,0,4.7,0,7.1c-0.6,0-1.3,0-1.9,0c0-2.2,0-4.5-0.1-6.7c-0.3-1.2-1.1-1.6-2.3-1.2
			c-0.5,0.2-0.8,0.6-0.9,1.2c-0.1,2.2-0.1,4.5-0.1,6.7c-0.7,0-1.3,0-2,0c0-2.3,0-4.5-0.1-6.7c-0.3-1.1-1-1.5-2.1-1.2
			c-0.6,0.2-1,0.6-1.1,1.2c-0.1,2.2-0.1,4.5-0.1,6.7c-0.6,0-1.3,0-1.9,0c0-3.2,0-6.4,0-9.7c0.6,0,1.1,0,1.7,0c0,0.4,0.1,0.8,0.1,1.2
			C1299.5,765.5,1300.2,765.1,1301.1,765z"/>
	</g>
	<g>
		<path class="st25" d="M1332.3,765c1.2-0.1,2.2,0.1,3.2,0.8c0.7,0.6,1.1,1.4,1.2,2.4c0,2.2,0,4.5,0,6.7c-0.5,0-1.1,0-1.6,0
			c-0.1-0.2-0.1-0.5-0.2-0.8c-0.7,0.7-1.6,1-2.6,1c-2,0-3.1-1-3.3-2.9c0.1-1.7,1-2.7,2.7-3c1.1-0.2,2.1,0,2.9,0.6
			c0.1-0.6,0-1.2-0.1-1.8c-0.4-0.9-1.1-1.3-2.1-1.2c-0.8,0-1.6,0.2-2.3,0.6c-0.2-0.5-0.4-0.9-0.5-1.4c0-0.1,0-0.2,0-0.2
			c0.3-0.2,0.6-0.3,0.9-0.4C1331.2,765.1,1331.8,765,1332.3,765z M1332.5,770.4c0.8-0.1,1.6,0.1,2.2,0.7c0.5,1.1,0.2,1.9-0.9,2.3
			c-0.7,0.2-1.3,0.1-1.9-0.2c-0.7-0.5-0.8-1.1-0.5-1.9C1331.6,770.8,1332,770.6,1332.5,770.4z"/>
	</g>
	<g>
		<path class="st26" d="M1342.9,765c1.5-0.2,2.6,0.4,3.3,1.7c0.2,0.4,0.3,0.9,0.3,1.3c0,2.3,0,4.5,0,6.8c-0.7,0-1.3,0-2,0
			c0-2.3,0-4.5-0.1-6.7c-0.3-1.1-1.1-1.5-2.2-1.2c-0.6,0.2-1,0.7-1.2,1.4c-0.1,2.2-0.1,4.4-0.1,6.6c-0.6,0-1.3,0-1.9,0
			c0-3.2,0-6.4,0-9.7c0.6,0,1.1,0,1.7,0.1c0,0.4,0.1,0.7,0.1,1.1C1341.2,765.5,1341.9,765.1,1342.9,765z"/>
	</g>
	<g>
		<path class="st24" d="M1367.2,765c0.2,0,0.4,0,0.5,0c0,0.7,0,1.3,0,2c-0.6,0-1.2,0-1.8,0.2c-0.8,0.5-1.2,1.2-1.2,2.2
			c0,1.8,0,3.6,0,5.4c-0.6,0-1.3,0-1.9,0c0-3.2,0-6.4,0-9.7c0.6,0,1.2,0,1.8,0c0,0.5,0,1,0.1,1.5
			C1365.1,765.6,1366,765.1,1367.2,765z"/>
	</g>
	<g>
		<path class="st27" d="M1292.9,765.1c0.7,0,1.3,0,2,0c0,3.2,0,6.4,0,9.7c-0.7,0-1.3,0-2,0C1292.9,771.6,1292.9,768.4,1292.9,765.1z
			"/>
	</g>
	<g>
		<path class="st28" d="M1358.4,765.1c0.7,0,1.3,0,2,0c0,3.2,0,6.4,0,9.7c-0.7,0-1.3,0-2,0C1358.4,771.6,1358.4,768.4,1358.4,765.1z
			"/>
	</g>
	<g>
		<path class="st28" d="M1369.2,765.1c0.7,0,1.3,0,2,0c0,3.2,0,6.4,0,9.7c-0.7,0-1.3,0-2,0C1369.2,771.6,1369.2,768.4,1369.2,765.1z
			"/>
	</g>
</g>
<g>
	<path class="st1" d="M899.5,640.5c-1.4,16.5-2.4,33-3,49.5c3.9,43,9,85.8,15.5,128.5c1.7,12.9,7.2,23.7,16.5,32.5
		c34.5,27.1,69.8,52.9,106,77.5c4,3,8,6,12,9c38.5,30.6,74.3,64.3,107.5,101c7.4,10.1,10.7,21.5,10,34c3.3,11.1,4.8,22.4,4.5,34
		c-4.2,22.3-17.5,35.5-40,39.5c-32.8,3.8-64.1-1.4-94-15.5c-21.7-17.6-40.9-37.6-57.5-60c-23-32-45-64.6-66-98
		c-12.7-17.3-25.3-34.7-38-52c-4.2-4.2-8.3-8.3-12.5-12.5c-12.7-1.8-22.6-7.9-29.5-18.5c-1.9-3.4-3.1-7.1-3.5-11
		c3-4.1,4.9-8.8,5.5-14c6.8-40.2,12.5-80.5,17-121c1.4-8.4,3.1-16.7,5-25c2.9-11.3,6.6-22.3,11-33c3.9-4.3,8.7-6,14.5-5
		c0.3,2,0.7,4,1,6c-3.9,21.9-6.6,43.9-8,66c0.1,3.7,0.6,7.4,1.5,11c1.8,3.8,3.8,3.8,6,0c2.8-22.9,5-45.9,6.5-69
		c-0.1-6-0.6-12-1.5-18c-11.8-7.6-21.8-5.6-30,6c-2.3-16.3-11.1-21.8-26.5-16.5c-2.2,2.5-3.7,5.3-4.5,8.5c-6.1,23.5-11.8,47.2-17,71
		c-0.7,3.3-0.7,6.7,0,10c0.7,0.7,1.3,1.3,2,2c2.1-1.5,3.5-3.5,4-6c5.4-23.2,10.1-46.5,14-70c1.8-9.1,6.9-12.3,15.5-9.5
		c3.9,4,5.6,8.8,5,14.5c-4.8,42.6-9.3,85.3-13.5,128c-3.4,17.3-6.4,34.6-9,52c-0.4,2.5-1.2,4.8-2.5,7c0.7,1.4,1.3,2.7,2,4
		c-4.3,11.3-12.7,17-25,17c-4.8-0.1-9.3-1.1-13.5-3c-16.1,9.6-31.6,20.1-46.5,31.5c-17.4,14.4-35,28.4-53,42
		c-28.7,20.3-57.3,40.7-86,61c-21.7,10.5-44.4,18.4-68,23.5c-20.6,6-41.6,8.5-63,7.5c-23.8-3.5-39.3-16.7-46.5-39.5
		c-1.6-13.5,0.2-26.5,5.5-39c1.2-5.4,2.7-10.7,4.5-16c7.2-13.2,15.2-25.9,24-38c4.5-4.9,9.4-9.4,14.5-13.5c14.1-8.7,28.7-16.4,44-23
		c28.7-11.6,57.4-23.1,86-34.5c7.1-2.1,14.1-4.5,21-7c39.4-15,79.4-28.5,120-40.5c8.1-2.6,15.9-5.8,23.5-9.5
		c13.2-25.7,25.9-51.7,38-78c8.6-30.1,15.8-60.5,21.5-91c9-5.9,17.5-5.2,25.5,2c3,5.3,5,11,6,17c0.3,10,0.7,20,1,30
		c1.4-8.9,3.7-17.6,7-26c4.3-11.8,12.5-19.2,24.5-22C897.8,629.2,900.8,633.2,899.5,640.5z"/>
</g>
<g>
	<path class="st2" d="M827.5,878.5c-0.7-0.3-1.3-0.7-2-1c-0.7-1.3-1.3-2.6-2-4c1.3-2.2,2.1-4.5,2.5-7c2.6-17.4,5.6-34.7,9-52
		c4.2-42.7,8.7-85.4,13.5-128c0.6-5.7-1.1-10.5-5-14.5c-8.6-2.8-13.7,0.4-15.5,9.5c-3.9,23.5-8.6,46.8-14,70c-0.5,2.5-1.9,4.5-4,6
		c-0.7-0.7-1.3-1.3-2-2c-0.7-3.3-0.7-6.7,0-10c5.2-23.8,10.9-47.5,17-71c0.8-3.2,2.3-6,4.5-8.5c15.4-5.3,24.2,0.2,26.5,16.5
		c8.2-11.6,18.2-13.6,30-6c0.9,6,1.4,12,1.5,18c-1.5,23.1-3.7,46.1-6.5,69c-2.2,3.8-4.2,3.8-6,0c-0.9-3.6-1.4-7.3-1.5-11
		c1.4-22.1,4.1-44.1,8-66c-0.3-2-0.7-4-1-6c-5.8-1-10.6,0.7-14.5,5c-4.4,10.7-8.1,21.7-11,33c-1.9,8.3-3.6,16.6-5,25
		c-4.5,40.5-10.2,80.8-17,121C832.4,869.7,830.5,874.4,827.5,878.5z"/>
</g>
</svg>
