<?xml version="1.0" encoding="utf-8"?>
<!-- Generator: Adobe Illustrator 24.0.1, SVG Export Plug-In . SVG Version: 6.00 Build 0)  -->
<svg version="1.1" id="Layer_1" xmlns="http://www.w3.org/2000/svg" xmlns:xlink="http://www.w3.org/1999/xlink" x="0px" y="0px"
	 viewBox="0 0 2362 1328" style="enable-background:new 0 0 2362 1328;" xml:space="preserve">
<style type="text/css">
	.st0{fill-rule:evenodd;clip-rule:evenodd;fill:#FFD400;}
	.st1{fill-rule:evenodd;clip-rule:evenodd;fill:#EF6036;}
	.st2{fill-rule:evenodd;clip-rule:evenodd;fill:#FEFEFE;}
	.st3{fill-rule:evenodd;clip-rule:evenodd;fill:#F9D2B9;}
	.st4{fill-rule:evenodd;clip-rule:evenodd;fill:#3E3E40;}
	.st5{fill-rule:evenodd;clip-rule:evenodd;fill:#3F3E40;}
	.st6{fill-rule:evenodd;clip-rule:evenodd;fill:#2E3192;}
	.st7{opacity:0.996;fill-rule:evenodd;clip-rule:evenodd;fill:#FEFFFE;enable-background:new    ;}
	.st8{opacity:0.997;fill-rule:evenodd;clip-rule:evenodd;fill:#FEFFFE;enable-background:new    ;}
	.st9{opacity:0.955;fill-rule:evenodd;clip-rule:evenodd;fill:#FEFFFE;enable-background:new    ;}
	.st10{opacity:0.957;fill-rule:evenodd;clip-rule:evenodd;fill:#FEFFFE;enable-background:new    ;}
	.st11{opacity:0.959;fill-rule:evenodd;clip-rule:evenodd;fill:#FEFFFE;enable-background:new    ;}
	.st12{opacity:0.972;fill-rule:evenodd;clip-rule:evenodd;fill:#FEFFFE;enable-background:new    ;}
	.st13{opacity:0.968;fill-rule:evenodd;clip-rule:evenodd;fill:#FEFFFE;enable-background:new    ;}
	.st14{opacity:0.973;fill-rule:evenodd;clip-rule:evenodd;fill:#FEFFFE;enable-background:new    ;}
	.st15{opacity:0.978;fill-rule:evenodd;clip-rule:evenodd;fill:#FEFFFE;enable-background:new    ;}
	.st16{opacity:0.97;fill-rule:evenodd;clip-rule:evenodd;fill:#FEFFFE;enable-background:new    ;}
	.st17{opacity:0.976;fill-rule:evenodd;clip-rule:evenodd;fill:#FEFFFE;enable-background:new    ;}
	.st18{opacity:0.988;fill-rule:evenodd;clip-rule:evenodd;fill:#FEFFFE;enable-background:new    ;}
	.st19{opacity:0.98;fill-rule:evenodd;clip-rule:evenodd;fill:#FEFFFE;enable-background:new    ;}
</style>
<g>
	<path class="st0" d="M801.5,96.5c5.5-1.4,9,0.6,10.5,6c5.6,13.6,10.5,27.4,14.5,41.5c-0.2,1.7-0.8,3-2,4c-3.3,0.7-6.7,0.7-10,0
		c-1.5-1.6-2.7-3.4-3.5-5.5c-4.4-11.9-8.4-23.9-12-36c-0.7-2.7-0.7-5.3,0-8C800,97.9,800.8,97.3,801.5,96.5z"/>
</g>
<g>
	<path class="st1" d="M1523.5,890.5c-35.5,34.4-71.5,68.2-108,101.5c-60.5,53-120.9,106.2-181,159.5c-34.4,29.6-68.4,59.8-102,90.5
		c-9,7.2-18.3,13.8-28,20c-4.6,1.3-8.4,0.1-11.5-3.5c-18.4-36.5-34.9-73.8-49.5-112c-9.6-24-18.9-48.2-28-72.5
		c4.6-14.5,7.4-29.3,8.5-44.5c2.7-44.3,3.7-88.6,3-133c-1.3-27.4-6.3-54-15-80c-13.3-30.7-32.8-56.9-58.5-78.5
		c6.8-3.9,12.8-8.8,18-14.5c8.7,5,18,8,28,9c2.8,1,5.8,1.3,9,1c3.7,34.2,10.2,67.9,19.5,101c16.6,62.6,37.6,123.6,63,183
		c12,26,26,50.6,42,74c2.4,2.9,4.9,5.8,7.5,8.5c0.9,0.5,1.9,0.7,3,0.5c0.2-2.4,0-4.7-0.5-7c-15.9-30.4-31.2-61.1-46-92
		c-32.6-77.5-58.6-157.1-78-239c-1.9-10-3.8-20-5.5-30c43.6-7.6,64.8-33.6,63.5-78c-1-5.1-2.2-10.1-3.5-15
		c61.8,19.9,125.1,29.1,190,27.5c28.1-1.1,55.4-6.1,82-15c13.8-5,23.5-14.2,29-27.5c-1.7-0.2-3.4,0-5,0.5
		c-21.9,13.1-45.6,21.4-71,25c-39.2,5.2-78.6,5.9-118,2c-37.6-4-74.6-10.9-111-20.5c-1.2-1.5-2.2-3.1-3-5c49.3,3.9,98-0.3,146-12.5
		c57.9-17.4,105.7-49.5,143.5-96.5c5.2-8,9.5-16.4,13-25c-15.9,21.5-34.7,40-56.5,55.5c-43,32-91.4,51-145,57
		c-37.3,4-74.6,6.8-112,8.5c-23.6-19.4-49.5-23.4-78-12c0.9-8.6,4.6-15.8,11-21.5c6.7-3.3,13.3-6.7,20-10c3.4-3,6.4-6.4,9-10
		C970.2,486.2,956,406.4,975,320.5c24.5-87.4,76.6-152.6,156.5-195.5c29-11.7,59-15.4,90-11c68.7,7.7,117.6,42.9,146.5,105.5
		c16,37.3,27.3,75.9,34,116c13.9,79.7,20.2,160.1,19,241c15.8,25.7,32.2,51,49,76c23.2,34.9,43.5,71.6,61,110
		c6.5,16,12.2,32.4,17,49c5.4,20.2,2.8,39.2-8,57C1534.7,876,1529.2,883.4,1523.5,890.5z"/>
</g>
<g>
	<path class="st0" d="M746.5,131.5c15.1,9.7,29.3,20.7,42.5,33c-1.2,10.2-6,12.7-14.5,7.5c-12.7-7.7-24.5-16.5-35.5-26.5
		c-2-2.7-2-5.3,0-8C741.1,134.8,743.6,132.8,746.5,131.5z"/>
</g>
<g>
	<path class="st0" d="M897.5,302.5c-18,4.6-35.3,11-52,19c-3.1-1.2-6.1-2.7-9-4.5c-16.9-3.2-32.3-9.9-46-20
		c-19.5-18.3-25.6-40.5-18.5-66.5c12.6-41.7,40.5-66.6,83.5-74.5c35.1-3.4,60.3,10.8,75.5,42.5c6.6,21.3,4.3,41.6-7,61
		c-6.6,10.3-13.6,20.3-21,30C901.1,293.8,899.2,298.2,897.5,302.5z"/>
</g>
<g>
	<path class="st0" d="M701.5,194.5c18.3,2.9,36.3,7.1,54,12.5c7.4,3.5,8,8.1,2,14c-1.6,1.3-3.5,2.1-5.5,2.5
		c-17.6-4.8-35.1-9.9-52.5-15.5c-0.5-0.5-1-1-1.5-1.5c-0.7-3.3-0.7-6.7,0-10C699.3,195.9,700.5,195.2,701.5,194.5z"/>
</g>
<g>
	<path class="st2" d="M812.5,195.5c3.6,2.1,5.3,5.2,5,9.5c-3.6,10.8-7.1,21.6-10.5,32.5c-1.3,8-0.3,15.7,3,23c4.3,6,8.7,12,13,18
		c2.9,9.6-0.5,15.6-10,18c-20.5-6.3-31-20.3-31.5-42c1.4-22,9.7-40.8,25-56.5C808.6,197.2,810.6,196.3,812.5,195.5z"/>
</g>
<g>
	<path class="st3" d="M1160.5,199.5c20.6,2.6,39.9,9.1,58,19.5c22.8,12.1,42.6,27.9,59.5,47.5c30.1,36.6,52.8,77.6,68,123
		c3,9.9,5.3,19.9,7,30c-0.2,15.3-3.5,30-10,44c-23.3,51-61.5,85.5-114.5,103.5c-32.1,8.3-63.4,6-94-7
		c-33.3-12.9-62.2-32.4-86.5-58.5c-7.1-8.4-12.4-17.7-16-28c-6.4-69.7,7.3-135,41-196C1094.2,242.4,1123.4,216.4,1160.5,199.5z"/>
</g>
<g>
	<path class="st1" d="M850.5,215.5c6.9-1.3,11.4,1.4,13.5,8c2.4,6.6,1.2,12.4-3.5,17.5c1.7,8.9,3.5,17.8,5.5,26.5
		c3.8-9.8,8.3-19.3,13.5-28.5c-5.1-8-3.4-14.3,5-19c5.4-1.7,9.6-0.2,12.5,4.5c3.7,6.8,2.9,12.9-2.5,18.5c-2.8,1.7-5.6,1.8-8.5,0.5
		c-5,12-10,24-15,36c-0.8,0.8-1.7,1.7-2.5,2.5c1.4,4.5,2.7,9,4,13.5c-2.8,2.2-5.8,4.2-9,6c-0.6-0.2-1.1-0.5-1.5-1
		c-4-19.2-7.3-38.6-10-58c-3-3.7-6-7.3-9-11C841.5,224.2,844,218.9,850.5,215.5z"/>
</g>
<g>
	<path class="st4" d="M1239.5,263.5c12.8-2.5,22.3,1.9,28.5,13c2.3,3.7,2,7-1,10c-3.5-3.5-7-7-10.5-10.5c-13.1-6.2-24.1-3.5-33,8
		c-2.8,0-4.1-1.5-4-4.5c1.3-5.1,4.3-8.9,9-11.5C1232.2,266.2,1235.8,264.7,1239.5,263.5z"/>
</g>
<g>
	<path class="st5" d="M1120.5,272.5c10.6-1.1,19.7,1.9,27.5,9c1,2.2,1.5,4.6,1.5,7c-5.8-0.8-11.5-2.3-17-4.5
		c-12.8-2.4-23.2,1.6-31,12c-3.1,0.6-4.7-0.7-5-4c2.5-5.6,6.1-10.3,11-14C1111.9,276.1,1116.3,274.3,1120.5,272.5z"/>
</g>
<g>
	<path class="st2" d="M837.5,285.5c4.3,2.8,8.1,6.1,11.5,10c1.3,9.7-2.8,13.5-12.5,11.5c-3.7-1.4-6.4-3.9-8-7.5
		C831.5,294.8,834.5,290.1,837.5,285.5z"/>
</g>
<g>
	<path class="st6" d="M845.5,321.5c16.7-8,34-14.4,52-19c3.3-1.5,6.5-1.2,9.5,1c3.4,10.2,7.4,20.2,12,30c1.4,5.3,0.3,9.8-3.5,13.5
		c-18,9.4-37,15.4-57,18c-6.6-9.7-11.8-20.2-15.5-31.5C841.8,328.9,842.6,324.9,845.5,321.5z"/>
</g>
<g>
	<path class="st4" d="M1245.5,306.5c15.7,1.4,23.7,10,24,26c-0.2,12-5.2,21.1-15,27.5c-11.3,2.6-19.1-1.6-23.5-12.5
		c-3.7-12.7-2-24.7,5-36C1238.9,309.1,1242.1,307.5,1245.5,306.5z"/>
</g>
<g>
	<path class="st4" d="M1124.5,319.5c13.8-1,22,5.3,24.5,19c2.5,15.1-2.6,26.6-15.5,34.5c-12,1.4-19.8-3.8-23.5-15.5
		c-3.7-12.5-1.6-23.6,6.5-33.5C1119.1,322.2,1121.8,320.7,1124.5,319.5z"/>
</g>
<g>
	<path class="st1" d="M1184.5,367.5c10.3,1.4,18.8,6.1,25.5,14c2.8,3.7,5.2,7.7,7,12c1.5,4.8,0.1,8.5-4,11
		c-4.2-6.8-8.8-13.5-13.5-20c-9.8-8.3-19.3-8-28.5,1c-5.3,7.4-7.9,15.8-8,25c-1,1.1-1.8,2.2-2.5,3.5c-1.1,0.5-2.1,0.3-3-0.5
		C1149.7,388.3,1158.7,373,1184.5,367.5z"/>
</g>
<g>
	<path class="st3" d="M961.5,611.5c-3.9,12.7-8.6,25-14,37c-6.7-8.3-15.3-11.5-26-9.5c-9.5,1.2-17.3,5.3-23.5,12.5
		c-1.3,2.2-2.3,4.6-3,7c-15.5-12.6-32.6-15.5-51.5-8.5c-11.1,3.8-18,11.3-20.5,22.5c-3.8-2.6-7.9-3.6-12.5-3c-1.2-3.2-2.2-6.6-3-10
		c-21.1-3.6-34-16-38.5-37c-3.1-18.6,4.4-30.1,22.5-34.5c-5.6-18.6,0.4-31.9,18-40c5.9-2.1,11.8-2,17.5,0.5
		c-0.7-11.7,2.8-21.8,10.5-30.5c9.7-7,19.7-7.3,30-1c4.1,3.1,8,6.6,11.5,10.5c0.2-36.4,4.2-72.4,12-108c2.4-9.9,7.2-18.4,14.5-25.5
		c16.6-8,26.4-2.8,29.5,15.5c0.9,7.8,1.4,15.6,1.5,23.5c-2,39.8-3.6,79.7-5,119.5c10.3-3.2,20.3-2.4,30,2.5
		c8.6,8,11.4,17.9,8.5,29.5C967.7,593.7,964.8,602.7,961.5,611.5z"/>
</g>
<g>
	<path class="st1" d="M1238.5,429.5c3.4-0.4,6.2,0.6,8.5,3c6.8,16.4,8.8,33.4,6,51c-4.4,19.1-15.6,32.6-33.5,40.5
		c-12.1,3.1-23.4,1.5-34-5c-21.9-15.2-35.6-35.9-41-62c0.2-0.9,0.6-1.7,1-2.5C1176.5,445.8,1207.5,437.4,1238.5,429.5z"/>
</g>
<g>
	<path class="st2" d="M1229.5,437.5c1,0,2,0,3,0c-2.3,13.5-10,22.7-23,27.5c-18.6,6.4-35.3,3.1-50-10
		C1183.4,451,1206.8,445.2,1229.5,437.5z"/>
</g>
<g>
	<path class="st1" d="M827.5,551.5c1.5,0,2.7,0.7,3.5,2c0.8,18.9,5.8,36.6,15,53c4.1,5.4,9.2,8.9,15.5,10.5
		c-3.4-5.2-3.9-10.7-1.5-16.5c3.7-7,8.6-13.1,14.5-18.5c15.4-11.9,32.2-21.4,50.5-28.5c1.4,0.4,2.6,1.3,3.5,2.5
		c-8.7,6.7-18,12.3-28,17c-14.2,8.7-25.5,20.2-34,34.5c0.8,2.6,2.5,4.5,5,5.5c14.3,0.6,28.3-1.4,42-6c12.1-3.9,24.1-8.1,36-12.5
		c1.4,0.4,2.4,1.2,3,2.5c-2.2,4.1-5.5,6.7-10,8c-20.6,9.2-42.1,15.4-64.5,18.5c-3.2-0.5-6.4-1.2-9.5-2c-3.5,2.6-7.5,3.6-12,3
		c-3.3,10.3-10.3,16.3-21,18c-0.1,2.3-0.9,4.3-2.5,6c-3.5,3.5-7,7-10.5,10.5c-2.5,1.9-5.3,3.1-8.5,3.5c-2.8-0.1-4.1-1.4-4-4
		c7-4.1,12.8-9.4,17.5-16c-16.2-11.8-28.2-26.9-36-45.5c0.6-2.3,1.9-3.3,4-3c7.2,12.8,15.5,24.8,25,36c6.2,5.5,13.2,6.8,21,4
		c4.6-2.6,8.6-5.9,12-10c-9.5-5.8-16-13.9-19.5-24.5c-5.2-13.2-8-26.8-8.5-41C825.3,555.8,826,553.5,827.5,551.5z"/>
</g>
<g>
	<path class="st6" d="M1055.5,613.5c4.1,4.1,7.7,8.4,11,13c0.8,1.9,1.8,3.5,3,5c0.8,3,2.2,5.7,4,8c1.3,4.9,2.5,9.9,3.5,15
		c1.3,44.4-19.9,70.4-63.5,78c-4.7,0-9.3,0-14,0c-10-1-19.3-4-28-9c-5.2,5.7-11.2,10.6-18,14.5c25.7,21.6,45.2,47.8,58.5,78.5
		c8.7,26,13.7,52.6,15,80c0.7,44.4-0.3,88.7-3,133c-1.1,15.2-3.9,30-8.5,44.5c9.1,24.3,18.4,48.5,28,72.5c-25.1-3.5-48.7-11.1-71-23
		c-27.9,8.9-53.2,4-76-14.5c-13.8-12.4-25.3-26.6-34.5-42.5c-23.6-45.5-47.9-90.5-73-135c-15.2-25.8-23.7-53.7-25.5-83.5
		c0.9-29.6,9.5-56.6,26-81c-12.2-0.3-22.1-5.1-29.5-14.5c-8-15.8-3.5-26.3,13.5-31.5c4.9-1,9.9-1.5,15-1.5c-4-16.5,1.3-28.6,16-36.5
		c3.6-1.1,7.3-1.6,11-1.5c6.9,1.6,13.4,4.3,19.5,8c1.7-1,3.3-2,5-3c8.4-19.5,22.6-25.3,42.5-17.5c5.5,2.2,10.5,5.2,15,9
		c2,0.7,4,0.7,6,0c10.6-12.4,23.3-17.7,38-16c2.3-4.4,4.3-8.9,6-13.5c5.4-12,10.1-24.3,14-37c5.1-3.7,10.4-7.1,16-10
		C1006,590.1,1031.9,594.1,1055.5,613.5z"/>
</g>
<g>
	<path class="st3" d="M1066.5,626.5c-3.3-4.6-6.9-8.9-11-13c37.4-1.7,74.7-4.5,112-8.5c53.6-6,102-25,145-57
		c21.8-15.5,40.6-34,56.5-55.5c-3.5,8.6-7.8,17-13,25c-37.8,47-85.6,79.1-143.5,96.5C1164.5,626.2,1115.8,630.4,1066.5,626.5z"/>
</g>
<g>
	<path class="st1" d="M947.5,648.5c-1.7,4.6-3.7,9.1-6,13.5c-14.7-1.7-27.4,3.6-38,16c-2,0.7-4,0.7-6,0c-4.5-3.8-9.5-6.8-15-9
		c-19.9-7.8-34.1-2-42.5,17.5c-1.7,1-3.3,2-5,3c-6.1-3.7-12.6-6.4-19.5-8c-2-3.8-3.7-7.8-5-12c4.6-0.6,8.7,0.4,12.5,3
		c2.5-11.2,9.4-18.7,20.5-22.5c18.9-7,36-4.1,51.5,8.5c0.7-2.4,1.7-4.8,3-7c6.2-7.2,14-11.3,23.5-12.5
		C932.2,637,940.8,640.2,947.5,648.5z"/>
</g>
<g>
	<path class="st3" d="M1073.5,639.5c-1.8-2.3-3.2-5-4-8c36.4,9.6,73.4,16.5,111,20.5c39.4,3.9,78.8,3.2,118-2
		c25.4-3.6,49.1-11.9,71-25c1.6-0.5,3.3-0.7,5-0.5c-5.5,13.3-15.2,22.5-29,27.5c-26.6,8.9-53.9,13.9-82,15
		C1198.6,668.6,1135.3,659.4,1073.5,639.5z"/>
</g>
<g>
	<path class="st6" d="M1523.5,890.5c7.6,28.2,14.8,56.5,21.5,85c4.5,19.5,7.8,39.1,10,59c3.8,25.3-5.7,43.4-28.5,54.5
		c-18.9,9.6-38.6,17.3-59,23c-76.2,22-153.8,35.2-233,39.5c60.1-53.3,120.5-106.5,181-159.5C1452,958.7,1488,924.9,1523.5,890.5z"/>
</g>
<g>
	<path class="st3" d="M999.5,732.5c4.7,0,9.3,0,14,0c1.7,10,3.6,20,5.5,30c19.4,81.9,45.4,161.5,78,239c14.8,30.9,30.1,61.6,46,92
		c0.5,2.3,0.7,4.6,0.5,7c-1.1,0.2-2.1,0-3-0.5c-2.6-2.7-5.1-5.6-7.5-8.5c-16-23.4-30-48-42-74c-25.4-59.4-46.4-120.4-63-183
		c-9.3-33.1-15.8-66.8-19.5-101C1005.3,733.8,1002.3,733.5,999.5,732.5z"/>
</g>
<g>
	<g>
		<path class="st7" d="M966.3,628.5c2.4,0,4.4,0.9,6.1,2.6c3.6,4.8,7.2,9.6,10.8,14.4c3.5-4.7,7-9.3,10.5-14c1.6-1.9,3.7-2.9,6.2-3
			c5.7,0.1,11.4,0.1,17.1,0c1.6,0,3,0.3,4.4,1c-1.3,0-2.7,0.1-4,0.4c-1.2,0.3-2.3,0.9-3.2,1.7c-0.8,0.7-1.5,1.4-2.2,2.2
			c-1.2,1.3-2.3,2.7-3.4,4.1c-2.2,3.1-4.5,6.2-6.8,9.3c-3.6,4.7-7.1,9.3-10.7,14c0,4.5,0,9.1-0.1,13.6c-0.5,3.2-2.2,5.4-5.2,6.6
			c-0.5,0.2-0.9,0.3-1.4,0.4c-3,0.1-6.1,0.1-9.1,0.1c0-6.9,0-13.8,0-20.7c-5.1-6.8-10.2-13.5-15.3-20.3c-1.5-2.4-1.8-4.9-0.8-7.6
			C960.7,630.3,963,628.7,966.3,628.5z"/>
	</g>
	<g>
		<path class="st8" d="M1053.4,628.5c2.7,0,5.4,0,8,0c0,15.6,0,31.1,0,46.7c-0.5,3-2.1,5.1-4.9,6.3c-3.4,1.1-6.4,0.4-8.9-2.2
			c-1.1-1.3-1.7-2.8-1.8-4.4c0-7.1,0-14.3-0.1-21.4c-3.5,4.1-6.9,8.1-10.4,12.2c-3.5-4-6.9-8.1-10.4-12.1c0,7.5,0,15-0.1,22.5
			c-0.2,3.3-2,5.2-5.2,5.8c-0.4,0.1-0.9,0.1-1.3,0.2c-3.1,0-6.1,0-9.2,0c0-14.2,0-28.4,0-42.6c1.6-2.1,3.3-4.2,5.2-6.1
			c0.8-0.7,1.7-1.4,2.7-1.8c0.9-0.3,1.8-0.5,2.7-0.5c1.3,0,2.6,0,3.8,0.1c3.9,4.6,7.8,9.3,11.7,13.9c3.9-4.7,7.8-9.4,11.7-14
			C1048.8,629.3,1050.9,628.5,1053.4,628.5z"/>
	</g>
	<g>
		<path class="st9" d="M986,686c0.8,0,1.3,0.5,1.4,1.3c-0.1,0.8-0.5,1.2-1.3,1.3c-1-0.2-1.4-0.8-1.2-1.8
			C985.1,686.3,985.5,686.1,986,686z"/>
	</g>
	<g>
		<path class="st10" d="M1049.7,686c1,0.1,1.4,0.6,1.3,1.6c-0.3,0.8-0.9,1.1-1.7,0.9c-0.6-0.4-0.9-0.9-0.7-1.6
			C1048.7,686.4,1049.1,686.1,1049.7,686z"/>
	</g>
	<g>
		<path class="st11" d="M1060.1,686c1,0.1,1.4,0.7,1.3,1.7c-0.3,0.7-0.9,1-1.7,0.7c-0.6-0.3-0.9-0.8-0.7-1.5
			C1059.1,686.4,1059.5,686.1,1060.1,686z"/>
	</g>
	<g>
		<path class="st12" d="M958.6,686.6c0.8-0.1,1.5-0.1,2.3,0c0.8,1.9,1.7,3.8,2.5,5.7c0.9-1.9,1.7-3.8,2.6-5.7c0.7-0.1,1.5-0.1,2.2,0
			c-1.2,2.6-2.5,5.2-3.8,7.7c0,1.7,0,3.3,0,5c-0.7,0-1.3,0-2,0c0-1.7,0-3.3,0-5C961.2,691.7,959.9,689.1,958.6,686.6z"/>
	</g>
	<g>
		<path class="st13" d="M1008.1,686.5c0.7,0,1.4,0,2.1,0.1c1,2.6,2.1,5.1,3.1,7.7c1.1-2.6,2.1-5.1,3.1-7.7c0.7,0,1.3,0,2,0
			c0,4.3,0,8.5,0,12.8c-0.6,0-1.3,0-1.9,0c0-2.9,0-5.8,0-8.7c-0.9,2.2-1.8,4.5-2.7,6.7c-0.3,0-0.7,0-1,0c-0.9-2.2-1.8-4.4-2.7-6.6
			c0,2.9,0,5.7,0,8.6c-0.6,0-1.3,0-1.9,0C1008.1,695,1008.1,690.8,1008.1,686.5z"/>
	</g>
	<g>
		<path class="st13" d="M1044.6,686.5c0.6,0,1.3,0,1.9,0c0,4.3,0,8.5,0,12.8c-0.6,0-1.1,0-1.7,0c0-0.3-0.1-0.6-0.1-0.9
			c-0.8,1-1.9,1.3-3.1,1.1c-1.6-0.3-2.5-1.3-2.6-2.9c0-1.2,0-2.5,0-3.7c0.3-2.2,1.5-3.2,3.8-3c0.7,0.1,1.3,0.4,1.8,0.9
			C1044.6,689.3,1044.6,687.9,1044.6,686.5z M1042.4,691.4c1.2,0,1.9,0.5,2.1,1.7c0.1,1.1,0,2.2-0.1,3.2c-0.4,1.1-1.1,1.5-2.2,1.3
			c-0.7-0.2-1.2-0.7-1.3-1.4c-0.1-1.2,0-2.4,0.1-3.5C1041.2,692,1041.7,691.5,1042.4,691.4z"/>
	</g>
	<g>
		<path class="st14" d="M979,687.6c0.6,0,1.3,0,1.9,0c0,0.8,0,1.5,0,2.3c0.9,0,1.7,0,2.6,0c0,0.5,0,1,0,1.5c-0.9,0-1.7,0-2.6,0
			c0,1.9,0,3.8,0.1,5.7c0.1,0.3,0.4,0.5,0.7,0.6c0.5,0,1,0,1.5-0.1c0.1,0.5,0.1,1,0.2,1.4c0,0,0,0.1-0.1,0.1
			c-0.9,0.2-1.9,0.3-2.8,0.1c-0.9-0.3-1.4-0.9-1.6-1.8c0-2,0-4.1,0-6.1c-0.5,0-1,0-1.5,0c0-0.5,0-1,0-1.5c0.5,0,1,0,1.5,0
			C979,689.1,979,688.3,979,687.6z"/>
	</g>
	<g>
		<path class="st14" d="M971.9,689.7c1-0.1,1.9,0.1,2.8,0.5c0.9,0.6,1.5,1.5,1.6,2.6c0,2.2,0,4.3,0,6.5c-0.5,0-1,0-1.5,0
			c-0.1-0.2-0.1-0.5-0.1-0.7c-0.7,0.7-1.5,1-2.5,0.9c-1.4,0.1-2.4-0.5-3-1.8c-0.5-2.1,0.3-3.5,2.4-4c0.7-0.1,1.4,0,2.1,0.2
			c0.3,0.1,0.5,0.3,0.8,0.5c0.1-2.4-0.9-3.3-3.3-2.8c-0.4,0.1-0.8,0.2-1.1,0.4c-0.2-0.5-0.4-1-0.5-1.5c0.2-0.2,0.5-0.3,0.7-0.4
			C970.8,689.9,971.4,689.8,971.9,689.7z M972.1,695c0.9-0.2,1.7,0.1,2.2,0.8c0.3,1.2-0.1,1.9-1.3,2.2c-0.8,0.1-1.5-0.1-2-0.7
			C970.6,696.1,971,695.4,972.1,695z"/>
	</g>
	<g>
		<path class="st15" d="M993.1,689.7c1-0.1,1.9,0.2,2.6,0.9c0.1,0.2,0.3,0.4,0.4,0.6c0.7-1.2,1.7-1.7,3.1-1.6
			c1.1,0.1,1.8,0.7,2.2,1.7c0.1,0.3,0.2,0.7,0.2,1c0,2.3,0,4.6,0,6.9c-0.6,0-1.3,0-1.9,0c0-2.2,0-4.3-0.1-6.5
			c-0.3-1.2-1.1-1.6-2.2-1.2c-0.5,0.2-0.8,0.6-0.9,1.2c-0.1,2.2-0.1,4.4-0.1,6.6c-0.6,0-1.3,0-1.9,0c0-2.2,0-4.4-0.1-6.6
			c-0.3-1.1-0.9-1.5-2-1.2c-0.6,0.2-0.9,0.6-1.1,1.2c-0.1,2.2-0.1,4.4-0.1,6.6c-0.6,0-1.3,0-1.9,0c0-3.1,0-6.3,0-9.4
			c0.6,0,1.1,0,1.7,0c0,0.4,0.1,0.7,0.1,1.1C991.5,690.2,992.2,689.8,993.1,689.7z"/>
	</g>
	<g>
		<path class="st16" d="M1023.4,689.7c1.1-0.1,2.2,0.1,3.1,0.7c0.7,0.6,1.1,1.4,1.2,2.3c0,2.2,0,4.3,0,6.5c-0.5,0-1,0-1.5,0
			c-0.1-0.2-0.1-0.5-0.1-0.7c-0.7,0.7-1.5,1-2.5,0.9c-1.9,0-3-0.9-3.2-2.9c0.1-1.6,1-2.6,2.6-2.9c1-0.2,2,0,2.9,0.6
			c0.1-0.6,0-1.2-0.1-1.7c-0.4-0.8-1.1-1.2-2-1.2c-0.8,0-1.5,0.2-2.2,0.6c-0.2-0.4-0.4-0.9-0.5-1.4c0-0.1,0-0.2,0-0.2
			c0.3-0.2,0.6-0.3,0.9-0.4C1022.3,689.9,1022.9,689.8,1023.4,689.7z M1023.5,695c0.8-0.1,1.5,0.1,2.1,0.6c0.5,1.1,0.2,1.8-0.9,2.3
			c-0.6,0.2-1.3,0.1-1.8-0.2c-0.6-0.5-0.8-1.1-0.5-1.9C1022.7,695.4,1023.1,695.1,1023.5,695z"/>
	</g>
	<g>
		<path class="st17" d="M1033.6,689.7c1.4-0.2,2.5,0.4,3.2,1.7c0.2,0.4,0.3,0.9,0.3,1.3c0,2.2,0,4.4,0,6.6c-0.6,0-1.3,0-1.9,0
			c0-2.2,0-4.4-0.1-6.6c-0.3-1.1-1-1.5-2.2-1.2c-0.6,0.2-1,0.7-1.2,1.3c-0.1,2.1-0.1,4.3-0.1,6.4c-0.6,0-1.3,0-1.9,0
			c0-3.1,0-6.3,0-9.4c0.6,0,1.1,0,1.7,0.1c0,0.4,0.1,0.7,0.1,1.1C1032.1,690.3,1032.8,689.8,1033.6,689.7z"/>
	</g>
	<g>
		<path class="st15" d="M1057.3,689.7c0.2,0,0.4,0,0.5,0c0,0.6,0,1.3,0,1.9c-0.6,0-1.2,0-1.8,0.2c-0.8,0.5-1.2,1.2-1.2,2.2
			c0,1.8,0,3.5,0,5.3c-0.6,0-1.3,0-1.9,0c0-3.1,0-6.3,0-9.4c0.6,0,1.1,0,1.7,0c0,0.5,0,1,0.1,1.5
			C1055.3,690.3,1056.1,689.8,1057.3,689.7z"/>
	</g>
	<g>
		<path class="st18" d="M985.1,689.9c0.6,0,1.3,0,1.9,0c0,3.1,0,6.3,0,9.4c-0.6,0-1.3,0-1.9,0C985.1,696.1,985.1,693,985.1,689.9z"
			/>
	</g>
	<g>
		<path class="st19" d="M1048.7,689.9c0.6,0,1.3,0,1.9,0c0,3.1,0,6.3,0,9.4c-0.6,0-1.3,0-1.9,0
			C1048.7,696.1,1048.7,693,1048.7,689.9z"/>
	</g>
	<g>
		<path class="st19" d="M1059.2,689.9c0.6,0,1.3,0,1.9,0c0,3.1,0,6.3,0,9.4c-0.6,0-1.3,0-1.9,0
			C1059.2,696.1,1059.2,693,1059.2,689.9z"/>
	</g>
</g>
</svg>
