<svg width="25" height="24" viewBox="0 0 25 24" fill="none" xmlns="http://www.w3.org/2000/svg">
<path d="M14.0156 7H10.0156C8.36563 7 7.01562 8.35 7.01562 10V14C7.01562 15.65 8.36563 17 10.0156 17H14.0156C15.6656 17 17.0156 15.65 17.0156 14V10" stroke="#171717" stroke-width="1.5" stroke-linecap="round" stroke-linejoin="round"/>
<path d="M12.0156 7V17" stroke="#171717" stroke-width="1.5" stroke-linecap="round" stroke-linejoin="round"/>
<path d="M7.01562 12H17.0156" stroke="#171717" stroke-width="1.5" stroke-linecap="round" stroke-linejoin="round"/>
<path d="M2.01562 12.98V15C2.01562 20 4.01562 22 9.01562 22H15.0156C20.0156 22 22.0156 20 22.0156 15V9C22.0156 4 20.0156 2 15.0156 2H9.01562C4.01562 2 2.01562 4 2.01562 9" stroke="#171717" stroke-width="1.5" stroke-linecap="round" stroke-linejoin="round"/>
</svg>
